<?xml version="1.0" encoding="UTF-8" standalone="no"?>
<svg
   xmlns:dc="http://purl.org/dc/elements/1.1/"
   xmlns:cc="http://creativecommons.org/ns#"
   xmlns:rdf="http://www.w3.org/1999/02/22-rdf-syntax-ns#"
   xmlns:svg="http://www.w3.org/2000/svg"
   xmlns="http://www.w3.org/2000/svg"
   xmlns:sodipodi="http://sodipodi.sourceforge.net/DTD/sodipodi-0.dtd"
   xmlns:inkscape="http://www.inkscape.org/namespaces/inkscape"
   sodipodi:docname="logo_TheSiS.svg"
   inkscape:version="1.0.1 (c497b03c, 2020-09-10)"
   id="svg8"
   version="1.1"
   viewBox="0 0 65 65"
   height="65mm"
   width="65mm"
   inkscape:export-filename="D:\TheSiS_App_Flutter\assets\icon\ic_logo.png"
   inkscape:export-xdpi="688.367"
   inkscape:export-ydpi="688.367">
  <defs
     id="defs2" />
  <sodipodi:namedview
     fit-margin-bottom="0"
     fit-margin-right="0"
     fit-margin-left="0"
     fit-margin-top="0"
     inkscape:snap-global="false"
     inkscape:snap-nodes="true"
     inkscape:snap-others="true"
     inkscape:guide-bbox="true"
     showguides="false"
     inkscape:window-maximized="0"
     inkscape:window-y="0"
     inkscape:window-x="0"
     inkscape:window-height="900"
     inkscape:window-width="1600"
     showgrid="false"
     inkscape:document-rotation="0"
     inkscape:current-layer="layer1"
     inkscape:document-units="mm"
     inkscape:cy="123.5164"
     inkscape:cx="278.51418"
     inkscape:zoom="2"
     inkscape:pageshadow="2"
     inkscape:pageopacity="0.0"
     borderopacity="1.0"
     bordercolor="#666666"
     pagecolor="#ffffff"
     id="base">
    <sodipodi:guide
       id="guide873"
       orientation="0,-1"
       position="43.493455,30.852983" />
    <sodipodi:guide
       id="guide875"
       orientation="1,0"
       position="43.493455,30.852983" />
    <sodipodi:guide
       id="guide877"
       orientation="0,-1"
       position="43.493455,12.683793" />
    <sodipodi:guide
       id="guide879"
       orientation="1,0"
       position="52.255955,30.852993" />
    <sodipodi:guide
       id="guide881"
       orientation="1,0"
       position="34.748116,30.852993" />
    <sodipodi:guide
       id="guide885"
       orientation="0.70710678,-0.70710678"
       position="43.493454,30.852993" />
    <sodipodi:guide
       id="guide887"
       orientation="-0.70710678,-0.70710678"
       position="43.493454,30.852993" />
    <sodipodi:guide
       id="guide891"
       orientation="0.70710678,-0.70710678"
       position="52.255954,30.852993" />
    <sodipodi:guide
       id="guide893"
       orientation="-0.70710678,-0.70710678"
       position="34.748115,30.852993" />
    <sodipodi:guide
       id="guide895"
       orientation="0,-1"
       position="39.120784,26.480333" />
    <sodipodi:guide
       id="guide897"
       orientation="1,0"
       position="39.120794,26.480343" />
    <sodipodi:guide
       id="guide899"
       orientation="1,0"
       position="47.883294,26.480333" />
    <sodipodi:guide
       id="guide901"
       orientation="-0.70710678,-0.70710678"
       position="43.493453,39.656712" />
    <sodipodi:guide
       id="guide903"
       orientation="0.70710678,-0.70710678"
       position="43.493454,39.656712" />
    <sodipodi:guide
       id="guide905"
       orientation="0,-1"
       position="34.748115,39.598342" />
    <sodipodi:guide
       id="guide907"
       orientation="0,-1"
       position="43.493454,22.107653" />
    <sodipodi:guide
       id="guide909"
       orientation="-0.70710678,-0.70710678"
       position="47.883293,30.852993" />
    <sodipodi:guide
       id="guide911"
       orientation="0.70710678,-0.70710678"
       position="39.120793,30.852993" />
    <sodipodi:guide
       id="guide913"
       orientation="-0.70710678,-0.70710678"
       position="37.307041,24.666583" />
    <sodipodi:guide
       id="guide915"
       orientation="0.70710678,-0.70710678"
       position="51.467859,27.268423" />
    <sodipodi:guide
       id="guide919"
       orientation="0,-1"
       position="49.701138,24.645313" />
    <sodipodi:guide
       id="guide921"
       orientation="1,0"
       position="36.264648,57.109943" />
    <sodipodi:guide
       id="guide939"
       orientation="1,0"
       position="70.728725,-132.34991" />
    <sodipodi:guide
       id="guide941"
       orientation="0,-1"
       position="70.728723,-140.14723" />
    <sodipodi:guide
       id="guide943"
       orientation="1,0"
       position="109.1933,-140.14723" />
    <sodipodi:guide
       id="guide945"
       orientation="0,-1"
       position="97.54627,-126.02071" />
    <sodipodi:guide
       id="guide947"
       orientation="1,0"
       position="93.990172,-128.17395" />
    <sodipodi:guide
       id="guide949"
       orientation="0,-1"
       position="93.631302,-132.80666" />
    <sodipodi:guide
       id="guide951"
       orientation="0,-1"
       position="84.953115,-133.81803" />
    <sodipodi:guide
       id="guide953"
       orientation="0,-1"
       position="78.167168,-123.14973" />
  </sodipodi:namedview>
  <metadata
     id="metadata5">
    <rdf:RDF>
      <cc:Work
         rdf:about="">
        <dc:format>image/svg+xml</dc:format>
        <dc:type
           rdf:resource="http://purl.org/dc/dcmitype/StillImage" />
        <dc:title></dc:title>
      </cc:Work>
    </rdf:RDF>
  </metadata>
  <g
     transform="translate(1.8578739,-20.518185)"
     id="layer1"
     inkscape:groupmode="layer"
     inkscape:label="Layer 1">
    <g
       id="g1551"
       transform="matrix(1.031432,0,0,1.031432,0.05839732,-0.64492571)"
       inkscape:export-xdpi="688.367"
       inkscape:export-ydpi="688.367">
      <path
         d="M 87.073145,8.6041384 A 27.806376,27.806376 0 0 1 65.785945,35.635507 27.806376,27.806376 0 0 1 34.517222,21.279091 27.806376,27.806376 0 0 1 41.142582,-12.483971"
         transform="rotate(52.062739)"
         style="fill:none;fill-opacity:1;stroke:#0099ca;stroke-width:7.41507;stroke-miterlimit:4;stroke-dasharray:none;stroke-opacity:1"
         id="circle855" />
      <g
         transform="matrix(0.48012663,0,0,0.48012663,-15.291309,-24.429076)"
         id="g889">
        <path
           id="rect850"
           d="m 119.07409,122.88895 c -1.13655,0 -2.25496,0.13979 -3.35484,0.41858 -1.08766,0.27879 -2.05909,0.70258 -2.91455,1.27228 -0.85546,0.56969 -1.54569,1.29693 -2.07119,2.18177 -0.5255,0.87273 -0.78858,1.90341 -0.78858,3.09129 0,0.9697 0.16509,1.81831 0.49506,2.54558 0.34218,0.71515 0.80659,1.35732 1.39319,1.92701 0.58661,0.5697 1.27684,1.09101 2.0712,1.56373 0.79435,0.47273 1.6502,0.93931 2.56676,1.39992 0.86769,0.43636 1.67402,0.8547 2.41949,1.2547 0.7577,0.38788 1.4117,0.79974 1.96164,1.2361 0.54994,0.42424 0.9776,0.89731 1.28313,1.41852 0.31774,0.52121 0.47645,1.13303 0.47645,1.83606 0,1.30909 -0.47027,2.31539 -1.41128,3.01842 -0.92879,0.69091 -2.34013,1.03612 -4.23437,1.03612 -0.54994,0 -1.14908,-0.0542 -1.79678,-0.1633 -0.64771,-0.10909 -1.29533,-0.26081 -1.94304,-0.45475 -0.63549,-0.20606 -1.24636,-0.45479 -1.83296,-0.7457 -0.57438,-0.2909 -1.06967,-0.61821 -1.48518,-0.98185 v 3.6003 c 0.34218,0.2303 0.79434,0.4422 1.3565,0.63614 0.57439,0.18181 1.17939,0.33354 1.81488,0.45475 0.63549,0.13333 1.25861,0.23033 1.86965,0.29094 0.61105,0.0727 1.12445,0.10903 1.53996,0.10903 1.24653,0 2.43205,-0.12734 3.55637,-0.38188 1.12432,-0.24243 2.11439,-0.64235 2.96985,-1.19993 0.86768,-0.55758 1.55204,-1.27884 2.0531,-2.16369 0.51328,-0.89697 0.76998,-1.98782 0.76998,-3.27267 0,-0.9697 -0.18959,-1.83024 -0.56844,-2.58176 -0.36663,-0.75151 -0.86778,-1.43647 -1.50327,-2.05465 -0.63548,-0.61818 -1.37471,-1.18176 -2.21795,-1.69085 -0.84324,-0.50909 -1.73531,-0.99409 -2.67632,-1.4547 -0.91657,-0.44848 -1.72928,-0.86034 -2.4381,-1.2361 -0.69659,-0.37575 -1.28935,-0.76375 -1.77818,-1.16375 -0.48884,-0.4 -0.86164,-0.84272 -1.11828,-1.32757 -0.24442,-0.48484 -0.36638,-1.06036 -0.36638,-1.72702 0,-0.71515 0.16457,-1.32101 0.49454,-1.81798 0.32996,-0.49697 0.75762,-0.90338 1.28312,-1.21853 0.5255,-0.31515 1.12464,-0.53949 1.79679,-0.67283 0.67215,-0.14545 1.34427,-0.21807 2.01642,-0.21807 2.43195,0 4.42381,0.53323 5.97586,1.5999 v -3.43597 c -1.18543,-0.61818 -3.07342,-0.92759 -5.66425,-0.92759 z"
           style="fill:#44d5ad;fill-opacity:1;stroke:none;stroke-width:0.938072;stroke-miterlimit:4;stroke-dasharray:none;stroke-opacity:1"
           inkscape:connector-curvature="0" />
        <path
           id="rect852"
           d="m 108.58571,122.72211 c -0.53772,0 -0.99626,0.17699 -1.37511,0.53066 -0.37885,0.34227 -0.56844,0.77576 -0.56844,1.30054 0,0.52482 0.18959,0.95832 0.56844,1.30056 0.37885,0.34229 0.83739,0.51313 1.37511,0.51313 0.54994,0 1.01383,-0.17648 1.39268,-0.53015 0.39107,-0.35366 0.58704,-0.78156 0.58704,-1.28354 0,-0.52478 -0.19597,-0.95827 -0.58704,-1.30054 -0.37885,-0.35367 -0.84274,-0.53066 -1.39268,-0.53066 z m -1.53996,8.09431 v 17.52369 h 3.00602 v -17.52369 z"
           style="fill:#44d5ad;fill-opacity:1;stroke:none;stroke-width:0.910075;stroke-miterlimit:4;stroke-dasharray:none;stroke-opacity:1"
           inkscape:connector-curvature="0" />
        <path
           id="rect854"
           d="m 100.39444,121.83062 c -1.136539,0 -2.254951,0.13979 -3.354829,0.41858 -1.08766,0.27879 -2.059091,0.70258 -2.914552,1.27227 -0.855461,0.5697 -1.546209,1.29693 -2.071709,2.18178 -0.525497,0.87273 -0.788064,1.90341 -0.788064,3.09129 0,0.96969 0.165095,1.8183 0.495059,2.54558 0.342186,0.71515 0.806596,1.35731 1.393198,1.92701 0.586603,0.5697 1.276832,1.091 2.07119,1.56373 0.794359,0.47273 1.649685,0.93931 2.566252,1.39991 0.867683,0.43637 1.674532,0.85471 2.420005,1.25471 0.7577,0.38788 1.41118,0.79973 1.96112,1.2361 0.54994,0.42424 0.97812,0.8973 1.28365,1.41852 0.31774,0.52121 0.47645,1.13303 0.47645,1.83606 0,1.30909 -0.47079,2.31539 -1.4118,3.01842 -0.92879,0.69091 -2.34013,1.03611 -4.234365,1.03611 -0.54994,0 -1.148565,-0.0547 -1.796273,-0.16381 -0.647707,-0.10909 -1.295325,-0.2603 -1.943033,-0.45424 -0.635487,-0.20606 -1.246876,-0.45478 -1.833481,-0.74569 -0.574381,-0.29091 -1.069152,-0.61821 -1.484662,-0.98185 v 3.6003 c 0.342183,0.2303 0.794346,0.44219 1.356506,0.63613 0.574381,0.18182 1.179391,0.33354 1.814875,0.45476 0.635487,0.13333 1.25861,0.23033 1.869654,0.29093 0.611045,0.0727 1.124448,0.10904 1.539957,0.10904 1.246532,0 2.432052,-0.12734 3.556372,-0.38189 1.12432,-0.24242 2.11387,-0.64235 2.96933,-1.19992 0.86768,-0.55758 1.55205,-1.27885 2.0531,-2.1637 0.51328,-0.89697 0.76998,-1.98782 0.76998,-3.27266 0,-0.9697 -0.18907,-1.83024 -0.56792,-2.58176 -0.36663,-0.75151 -0.86778,-1.43647 -1.50327,-2.05465 -0.63549,-0.61819 -1.37523,-1.18177 -2.21847,-1.69086 -0.84324,-0.50909 -1.73531,-0.99408 -2.67632,-1.45469 -0.916568,-0.44848 -1.729284,-0.86034 -2.438094,-1.2361 -0.69659,-0.37576 -1.289352,-0.76375 -1.778186,-1.16375 -0.488836,-0.4 -0.861123,-0.84272 -1.117761,-1.32757 -0.244419,-0.48485 -0.366903,-1.06036 -0.366903,-1.72703 0,-0.71515 0.165095,-1.321 0.495059,-1.81797 0.329965,-0.49697 0.757629,-0.90338 1.283126,-1.21853 0.5255,-0.31515 1.124125,-0.5395 1.796272,-0.67283 0.67215,-0.14545 1.344782,-0.21807 2.016937,-0.21807 2.43195,0 4.4238,0.53323 5.97586,1.5999 v -3.43597 c -1.18543,-0.61818 -3.07343,-0.92759 -5.66426,-0.92759 z"
           style="fill:#44d5ad;fill-opacity:1;stroke:none;stroke-width:0.938072;stroke-miterlimit:4;stroke-dasharray:none;stroke-opacity:1"
           inkscape:connector-curvature="0" />
        <path
           inkscape:connector-curvature="0"
           id="rect856"
           d="m 84.86419,129.57692 c -2.456399,0 -4.515876,0.91526 -6.177917,2.74557 -1.64982,1.81818 -2.47427,4.17546 -2.47427,7.07243 0,3.06667 0.757341,5.44885 2.272731,7.14582 1.515391,1.68485 3.599365,2.52698 6.251297,2.52698 2.713038,0 4.894485,-0.59393 6.544305,-1.78181 v -2.79983 c -1.772031,1.38182 -3.715406,2.07275 -5.82962,2.07275 -1.882016,0 -3.360465,-0.56358 -4.435904,-1.69086 -1.075438,-1.12727 -1.637837,-2.72749 -1.686718,-4.80022 h 13.253455 v -1.56373 c -3e-6,-2.8 -0.672118,-4.98767 -2.016416,-6.56342 -1.344298,-1.57576 -3.244546,-2.36368 -5.700943,-2.36368 z m -0.05478,2.5094 c 1.466506,0 2.608897,0.47852 3.427695,1.43609 0.831022,0.95758 1.252818,2.29715 1.265039,4.01836 H 79.364783 c 0.232196,-1.62424 0.843071,-2.93943 1.832962,-3.94549 0.989894,-1.00606 2.194044,-1.50896 3.611669,-1.50896 z"
           style="fill:#ffffff;fill-opacity:1;stroke:none;stroke-width:0.938072;stroke-miterlimit:4;stroke-dasharray:none;stroke-opacity:1" />
        <path
           id="rect858"
           d="m 60.712112,122.55926 v 26.06404 h 3.006018 v -9.972 c 0,-1.66195 0.501155,-3.01969 1.503268,-4.07417 1.002113,-1.06594 2.236626,-1.59939 3.703133,-1.59939 2.90857,0 4.362524,1.83424 4.362524,5.50199 v 10.14357 h 3.006535 v -10.84843 c 0,-4.77955 -2.114339,-7.16959 -6.342766,-7.16959 -2.664153,0 -4.717248,1.11213 -6.159313,3.33571 h -0.07338 v -11.38173 z"
           style="fill:#ffffff;fill-opacity:1;stroke:none;stroke-width:0.938072;stroke-miterlimit:4;stroke-dasharray:none;stroke-opacity:1"
           inkscape:connector-curvature="0" />
        <path
           id="rect832"
           d="m 42.527176,122.55874 v 2.76366 h 7.571114 v 23.30917 h 3.079398 V 125.3224 h 7.589201 v -2.76366 z"
           style="fill:#ffffff;fill-opacity:1;stroke:none;stroke-width:0.938072;stroke-miterlimit:4;stroke-dasharray:none;stroke-opacity:1"
           inkscape:connector-curvature="0" />
      </g>
      <path
         id="path981"
         d="m 44.733746,53.688282 c -0.22235,-0.0016 -0.43596,0.03474 -0.63485,0.102842 l -0.4926,-0.821012 h 1.23294 c 0.19831,0 0.18799,-0.148709 0.25872,-0.333976 l 0.19233,-0.503837 c 0.0707,-0.185267 -0.25274,-0.359063 -0.45105,-0.359063 h -0.67789 c -0.10179,1e-6 -0.1988,0.04321 -0.26689,0.118865 l -0.56098,0.623318 -0.34072,-0.567858 c -0.0649,-0.108152 -0.18177,-0.174326 -0.30789,-0.174325 h -1.19688 c -0.13221,0 -0.23093,0.107435 -0.23938,0.239375 l -0.008,0.130663 c -0.008,0.13194 0.0989,0.05192 0.23101,0.0554 l 0.86814,-0.02509 0.59666,0.779799 -2.46685,0.01673 c -0.26521,-0.345194 -0.67211,-0.598438 -1.49466,-0.598438 h -0.82973 c -0.47293,0 -1.62126,1.350961 -1.50156,1.520043 0.004,0.195105 1.16404,-0.872242 1.35968,-0.860455 l 0.97161,0.05854 c 0.36594,0.02205 0.57878,0.163359 0.71494,0.370568 l -0.16893,0.307133 c -0.19458,-0.05782 -0.40201,-0.08582 -0.61715,-0.07795 -1.00819,0.03682 -1.82045,0.860509 -1.84335,1.869116 -0.0245,1.078011 0.84204,1.95957 1.91449,1.95957 0.8923,0 1.64187,-0.610317 1.85445,-1.436251 h 1.26026 c 0.20456,0 0.36787,-0.170869 0.3587,-0.375176 -0.0317,-0.70496 0.26214,-1.401317 0.84058,-1.870507 l 0.18679,0.311307 c -0.41361,0.353886 -0.6747,0.880901 -0.67072,1.468851 0.007,1.040624 0.85581,1.891842 1.89642,1.901687 1.07164,0.01014 1.94252,-0.860061 1.93347,-1.931444 -0.009,-1.041148 -0.85958,-1.890855 -1.90075,-1.898425 z m -5.7592,3.111832 c -0.65996,0 -1.19688,-0.536918 -1.19688,-1.196876 0,-0.659957 0.53692,-1.196875 1.19688,-1.196875 0.0635,0 0.12575,0.0051 0.18655,0.01469 l -0.62087,1.128834 c -0.1314,0.238971 0.0418,0.532101 0.31463,0.532101 h 1.21628 c -0.18506,0.422273 -0.60681,0.718125 -1.09659,0.718125 z m 5.8101,-0.0017 c -0.68939,0.0367 -1.26197,-0.513609 -1.26197,-1.19514 0,-0.31961 0.12618,-0.610122 0.33101,-0.825006 l 0.73925,1.232064 c 0.068,0.113359 0.21506,0.150118 0.32842,0.08211 l 0.20527,-0.123159 c 0.11336,-0.06801 0.15012,-0.215063 0.0821,-0.328422 l -0.72644,-1.210745 c 0.0781,-0.01578 0.15758,-0.02373 0.23727,-0.02371 0.68153,0 1.23185,0.5726 1.19514,1.261986 -0.0323,0.606786 -0.52325,1.097714 -1.13005,1.13003 z"
         style="fill:#0b7090;fill-opacity:1;stroke-width:0.0149609"
         sodipodi:nodetypes="sccsssscscccsssscccsscssccccscscccccsssssccscssscccccccsss" />
      <g
         id="g1282"
         transform="matrix(0.24640203,0.12859758,-0.12859758,0.24640203,-13.293979,5.906036)"
         style="fill:#44d5ad;fill-opacity:1">
        <path
           style="fill:#44d5ad;fill-opacity:1;stroke-width:0.264583"
           fill-rule="evenodd"
           clip-rule="evenodd"
           d="m 190.7179,68.279421 c -0.40561,2.080948 0.90064,2.450306 1.05833,3.968221 2.25161,-0.40005 2.70563,0.998008 3.70364,1.851818 -0.15214,1.346994 -2.03597,0.96229 -1.58724,2.910153 -0.70564,0 -1.41102,0 -2.1164,0 -0.50006,0.646112 -0.01,2.283354 -0.79375,2.645304 0.55774,1.20597 1.84944,1.677987 1.32265,3.96822 0.88186,0.882121 2.86835,0.659078 2.38099,2.910152 -1.0967,0.225955 -3.25358,-0.608277 -3.17474,0.79375 0.58182,1.27 2.93503,0.768615 2.38099,3.174471 -1.51077,0.09975 -1.18507,-1.636977 -2.64557,-1.587235 -0.87709,0.09287 -0.41513,1.524794 -0.52917,2.380985 -1.54093,-0.394493 -1.447,0.845609 -2.38098,1.058069 0.51514,3.336925 -1.32927,4.31456 -0.79375,7.671861 -1.67772,-1.350701 -2.74267,-0.299511 -4.76197,0 -0.26961,-3.724542 -5.0083,-2.870467 -7.14296,-1.587238 0.0349,-0.652198 0.0402,-1.274498 -0.26458,-1.587236 -1.23455,0 -2.46936,0 -3.7039,0 0.0638,-1.739106 -1.32636,-2.024591 -0.79375,-4.232804 -0.0296,-0.67601 -0.88583,-0.524933 -1.58724,-0.529166 -0.28919,-2.620963 -1.97855,-3.84175 -1.5875,-7.142692 0.96599,-0.180446 1.19407,-1.098814 1.85182,-1.5875 1.66687,-0.343958 1.33535,1.310217 3.17473,0.79375 1.05675,-1.765035 3.51314,-2.130689 4.49739,-3.968221 3.54066,-0.841639 3.28639,-5.430837 7.67186,-5.555456 0.30454,-0.312737 0.29951,-0.935302 0.26458,-1.5875 0.44106,0 0.88186,0 1.32292,0 -0.0616,-2.001573 2.06984,-1.810279 1.85182,-3.968221 1.54226,0.483659 1.1004,-1.016264 2.38178,-0.793485 z"
           id="path1099" />
        <path
           style="fill:#44d5ad;fill-opacity:1;stroke-width:0.264583"
           fill-rule="evenodd"
           clip-rule="evenodd"
           d="m 136.74951,73.834877 c 0.35269,0 0.70565,0 1.05834,0 0.66622,0.832908 2.07909,0.919427 3.70363,0.79375 1.669,1.505744 1.75102,4.598194 4.76198,4.761706 0.43762,3.177911 3.547,3.684059 6.08462,4.761971 0.57441,1.983052 2.86358,2.25134 3.43932,4.232804 0.36724,1.425311 -1.0078,1.108604 -0.79375,2.380986 2.68737,0.31115 2.03861,3.957902 4.49738,4.497387 0.28284,-0.988219 -0.65696,-0.754327 -0.52916,-1.5875 0.75009,-0.307975 1.00912,-1.107281 2.38098,-0.793485 -0.85275,2.908829 2.47068,2.658798 1.5875,4.76197 -0.81438,0.19685 -0.50853,-0.726281 -1.32291,-0.529166 -2.23467,2.410089 0.50905,5.13159 -1.05834,7.67186 -1.14617,-0.44106 -2.04417,-1.1303 -3.96822,-0.79375 -0.74692,-2.60403 -4.62465,-2.07725 -4.76197,-5.290875 -0.31274,-0.304535 -0.93504,-0.299508 -1.58723,-0.264583 -0.0852,-1.590146 -0.82921,-2.521479 -1.58724,-3.439054 0.1225,-1.974586 -0.78449,-2.919413 -1.5875,-3.968221 -0.13335,-5.68669 -5.30939,-6.33095 -6.34921,-11.111177 -2.03729,-1.313392 -3.85418,-2.847446 -3.96822,-6.084623 z"
           id="path1101" />
        <path
           style="fill:#44d5ad;fill-opacity:1;stroke-width:0.264583"
           fill-rule="evenodd"
           clip-rule="evenodd"
           fill="#ffffff"
           d="m 200.50616,87.327304 c 1.94019,0 3.88011,0 5.8203,0 -0.37068,1.392767 -0.80512,2.722033 -2.1164,3.174471 -0.68289,-1.60999 -2.42517,-2.160588 -3.7039,-3.174471 z"
           id="path1103" />
        <path
           style="fill:#44d5ad;fill-opacity:1;stroke-width:0.264583"
           fill-rule="evenodd"
           clip-rule="evenodd"
           fill="#ffffff"
           d="m 202.62256,89.972608 c -0.63844,0.927629 -3.7166,0.600869 -4.76197,0.264584 0,-0.35269 0,-0.70538 0,-1.058069 1.14459,-0.273844 4.75774,-0.934509 4.76197,0.793485 z"
           id="path1105" />
        <path
           style="fill:#44d5ad;fill-opacity:1;stroke-width:0.264583"
           fill-rule="evenodd"
           clip-rule="evenodd"
           d="m 224.84491,90.501775 c 0.26459,0 0.52891,0 0.79349,0 -0.59743,2.449512 1.33747,2.366433 1.5875,3.968221 -0.79375,0 -1.5875,0 -2.38099,0 0.23998,-1.6256 -0.63023,-2.732617 0,-3.968221 z"
           id="path1107" />
        <path
           style="fill:#44d5ad;fill-opacity:1;stroke-width:0.264583"
           fill-rule="evenodd"
           clip-rule="evenodd"
           d="m 233.57484,94.734579 c -0.58023,-0.02884 -2.13466,0.959115 -3.96822,0.529167 -0.37729,-1.171046 0.89535,-0.69215 0.79375,-1.5875 -0.65087,-1.64174 -4.58814,0.0026 -3.96822,-2.909888 2.15953,0.02646 5.76924,-0.437091 9.52394,-0.264583 1.01944,0.567796 0.322,2.852473 1.58724,3.174471 0.19711,0.814387 -0.72628,0.508529 -0.52917,1.322916 -0.0447,0.573617 0.93821,0.119857 1.32265,0.264584 0,0.617273 0,1.234545 0,1.851818 0.0373,0.756444 1.10358,0.483659 1.85209,0.529167 1.72958,-2.23864 4.54739,-3.389312 6.34894,-5.555721 2.24472,1.459177 3.91266,3.494881 7.93644,3.174736 2.17831,1.172633 4.22143,2.480468 7.67212,2.380985 1.26312,1.91135 3.60812,2.740819 5.55546,3.968219 0,0.70538 0,1.41076 0,2.1164 2.06692,0.66702 4.8178,0.64956 4.76197,3.43906 -0.70141,0.004 -1.55787,-0.14685 -1.58724,0.52916 -0.22331,1.28112 1.27688,0.83953 0.79349,2.38099 0.31274,0.30427 0.93504,0.29924 1.5875,0.26432 -0.4654,1.69995 1.21153,1.25756 0.79348,2.91015 2.31802,0.94483 4.24789,2.27753 4.76197,5.02655 -1.6801,0.26909 -2.08015,-0.74189 -2.64556,-1.5875 -1.49913,0 -2.99826,0 -4.49739,0 -0.9742,-1.84758 -2.68737,-2.95618 -3.17447,-5.29087 -2.09524,-0.69162 -4.2881,-2.23467 -6.34921,-0.79375 0.41778,1.65259 -1.25889,1.21021 -0.79375,2.91015 -1.81054,0.57018 -3.68379,1.07818 -6.3492,0.79349 -1.63407,-3.33507 -4.56195,-3.15569 -8.7302,-2.38072 -0.40878,-2.34924 0.68475,-3.19564 2.38125,-3.43932 -0.61251,-5.20753 -4.53257,-7.1075 -9.78852,-7.67186 -1.76451,-1.484046 -3.64411,-1.823507 -6.08462,-0.79375 0.26828,-2.120104 -0.52838,-3.175263 -2.38099,-3.174469 0.41381,-1.349904 2.96572,-0.56171 3.17447,-2.116402 z"
           id="path1109" />
        <path
           style="fill:#44d5ad;fill-opacity:1;stroke-width:0.264583"
           fill-rule="evenodd"
           clip-rule="evenodd"
           d="m 222.46393,93.676246 c 0.003,1.071033 -1.46077,2.052902 -2.38099,1.322916 0.5424,-0.692414 1.38245,-1.086908 2.38099,-1.322916 z"
           id="path1111" />
        <path
           style="fill:#44d5ad;fill-opacity:1;stroke-width:0.264583"
           fill-rule="evenodd"
           clip-rule="evenodd"
           d="m 227.2259,99.231966 c -1.72508,-1.412081 -3.33057,-0.699029 -5.02655,-1.322916 -1.31525,0.09551 -0.98108,1.840706 -2.90989,1.322916 -0.0333,-0.963877 1.10649,-1.262062 0,-1.851818 1.44886,-2.76569 8.97017,-1.150144 7.93644,1.851818 z"
           id="path1113" />
        <path
           style="fill:#44d5ad;fill-opacity:1;stroke-width:0.264583"
           fill-rule="evenodd"
           clip-rule="evenodd"
           d="m 217.70196,97.90905 c -0.18944,1.309687 -1.54834,1.449652 -3.17447,1.322916 -0.59002,-2.486818 2.50322,-3.060964 3.17447,-1.322916 z"
           id="path1115" />
        <path
           style="fill:#44d5ad;fill-opacity:1;stroke-width:0.264583"
           fill-rule="evenodd"
           clip-rule="evenodd"
           d="m 172.19945,107.69757 c 0.57361,0.0444 0.11985,-0.93847 0.26458,-1.32291 2.44396,-0.063 3.86953,0.89244 5.55546,1.5875 0.80036,-0.78714 2.22488,-0.94986 3.96822,-0.79375 0.14393,1.73143 -1.8587,1.31577 -2.91016,1.85182 0.25903,1.15199 2.58578,0.23627 3.70391,0.52916 0.38206,1.20518 1.39514,1.77933 3.17447,1.58724 0.0349,0.6522 0.0402,1.2745 -0.26459,1.58723 -1.64703,0.14791 -2.2225,-1.61634 -3.17473,0 -1.27926,-1.3663 -4.68948,-0.60139 -7.14296,-0.79348 -1.61978,-0.76121 -3.10568,-1.65656 -5.55572,-1.5875 -0.84984,0.23283 -0.36248,-0.87207 -1.05833,-0.79349 -2.9083,1.62798 -6.72148,-1.15861 -8.99478,-2.64557 1.21841,-2.88501 2.43735,-1.23428 5.82004,-1.32265 1.35626,1.55443 4.43468,1.38615 6.61459,2.1164 z"
           id="path1117" />
        <path
           style="fill:#44d5ad;fill-opacity:1;stroke-width:0.264583"
           fill-rule="evenodd"
           clip-rule="evenodd"
           d="m 216.11472,109.81398 c 0.20479,0.92816 -2.18175,0.61621 -2.38098,0.26458 -0.20505,-0.92816 2.18175,-0.61648 2.38098,-0.26458 z"
           id="path1119" />
        <path
           style="fill:#44d5ad;fill-opacity:1;stroke-width:0.264583"
           fill-rule="evenodd"
           clip-rule="evenodd"
           d="m 195.4796,112.72386 c -3.10806,1.00727 -5.95577,0.39635 -8.73019,0.79375 -0.041,-1.45176 0.43551,-2.38627 1.85182,-2.38098 1.45653,2.29129 6.18226,-2.25081 6.87837,1.58723 z"
           id="path1121" />
        <path
           style="fill:#44d5ad;fill-opacity:1;stroke-width:0.264583"
           fill-rule="evenodd"
           clip-rule="evenodd"
           d="m 202.62256,111.93038 c 0,0.5289 0,1.05807 0,1.58723 -2.69822,0.58182 -3.15463,-1.07817 -5.55546,-0.79375 0.56383,-3.07181 3.34593,-0.59293 5.55546,-0.79348 z"
           id="path1123" />
        <path
           style="fill:#44d5ad;fill-opacity:1;stroke-width:0.264583"
           fill-rule="evenodd"
           clip-rule="evenodd"
           d="m 211.35275,111.40121 c 0.20479,0.92816 -2.18175,0.61622 -2.38098,0.26459 -0.20479,-0.92816 2.18175,-0.61648 2.38098,-0.26459 z"
           id="path1125" />
        <path
           style="fill:#44d5ad;fill-opacity:1;stroke-width:0.264583"
           fill-rule="evenodd"
           clip-rule="evenodd"
           d="m 217.17279,112.1947 c -2.15873,1.5449 -5.49169,1.91585 -6.61352,4.49738 -1.77959,-0.45693 -1.97512,0.67046 -3.17474,0.79375 -0.77417,-4.30159 4.03781,-3.01677 5.02656,-5.55545 2.36008,0.96493 4.3434,-2.02327 4.7617,0.26432 z"
           id="path1127" />
        <path
           style="fill:#44d5ad;fill-opacity:1;stroke-width:0.264583"
           fill-rule="evenodd"
           clip-rule="evenodd"
           d="m 278.01928,113.51761 c 1.50892,0.2548 2.05344,1.474 2.64557,2.64557 -0.28733,0.0654 -0.17938,0.52599 -0.52916,0.5289 -0.94086,-0.55827 -1.09564,-1.90235 -2.38099,-2.1164 -0.0336,-0.4744 0.32412,-0.55774 0.26458,-1.05807 z"
           id="path1129" />
        <path
           style="fill:#44d5ad;fill-opacity:1;stroke-width:0.264583"
           fill-rule="evenodd"
           clip-rule="evenodd"
           d="m 195.4796,114.3111 c 1.05834,0 2.11641,0 3.17474,0 0.0455,1.27741 1.76133,0.88424 1.5875,2.38098 -2.3794,0.52732 -2.44449,-1.25941 -4.76197,-0.79348 -2.7e-4,-0.52917 -2.7e-4,-1.05833 -2.7e-4,-1.5875 z"
           id="path1131" />
        <path
           style="fill:#44d5ad;fill-opacity:1;stroke-width:0.264583"
           fill-rule="evenodd"
           clip-rule="evenodd"
           d="m 210.559,84.946319 c 0,0.793485 0,1.587235 0,2.380985 -2.21324,-0.449527 -1.55072,1.976438 -3.7039,1.587235 -0.23204,1.178984 -0.20823,2.613555 -1.58724,2.645305 -0.40798,1.113631 1.36896,0.04207 1.32292,0.79375 -0.0984,1.231106 -1.82113,0.255852 -1.85208,-0.264584 -0.61357,0.885825 -0.99907,1.999192 -1.85182,2.645569 1.08929,2.261658 1.57321,5.128683 3.7039,6.349211 -0.38841,0.84613 -1.13903,1.33006 -0.79375,2.90988 -0.52917,0 -1.05833,0 -1.58723,0 0,-0.44079 0,-0.88159 0,-1.32265 -0.98822,-0.28284 -0.75407,0.65696 -1.5875,0.52917 -0.23522,-0.91123 -1.16893,-1.12369 -1.58724,-1.85182 -0.14552,-0.58658 0.50509,-0.37677 0.52917,-0.79375 -1.4941,-0.710408 -0.79137,-3.617649 -2.1164,-4.497389 -1.73408,1.175808 -0.34925,5.471059 -0.79375,7.936439 -1.05834,0 -2.11641,0 -3.17474,0 0.11933,-1.90897 1.27873,-2.77733 0.79375,-5.29087 -0.43894,-0.442913 -1.55337,-0.210609 -2.38099,-0.264584 0.56489,-3.593306 1.68275,-5.677693 0.79375,-8.730191 0.94748,0.153987 0.80434,-0.782902 0.79375,-1.587236 0.44107,0 0.88186,0 1.32292,0 1.04987,-6.057106 9.34508,-0.234156 13.75648,-3.17447 z m -6.3492,5.555456 c 1.31127,-0.452438 1.74572,-1.781704 2.1164,-3.174471 -1.94019,0 -3.88012,0 -5.82031,0 1.279,1.013883 3.02128,1.564481 3.70391,3.174471 z m -6.34921,-1.322652 c 0,0.352689 0,0.705379 0,1.058069 1.0451,0.336285 4.12327,0.663045 4.76197,-0.264584 -0.004,-1.727994 -3.61738,-1.067329 -4.76197,-0.793485 z"
           id="path1147" />
        <path
           style="fill:#44d5ad;fill-opacity:1;stroke-width:0.264583"
           fill-rule="evenodd"
           clip-rule="evenodd"
           d="m 218.49571,82.565333 c 0.26458,0 0.52917,0 0.79375,0 0.42995,0.866775 -0.0601,1.011238 0,2.116402 1.05516,0.261409 0.79666,-0.790575 1.85155,-0.529166 0.0937,0.347398 0.46593,0.416189 0.52917,0.79375 0.36142,1.154906 -1.0242,0.562768 -0.79349,1.587235 0.0688,1.25386 1.82563,0.819944 1.58724,2.380985 -2.64213,-0.614097 -2.23044,1.825625 -3.96822,2.116403 0.0333,1.201208 1.16417,1.30466 1.58723,2.116402 -0.23865,0.995891 -0.98636,1.482725 -2.38098,1.322652 -0.63738,-4.621477 -0.45482,-7.627938 0.79375,-11.904663 z"
           id="path1149" />
      </g>
      <path
         id="path889"
         style="fill:#0b7090;fill-opacity:1;stroke:none;stroke-width:0.999999px;stroke-linecap:butt;stroke-linejoin:miter;stroke-opacity:1"
         d="m 157.35352,173.33398 c -19.82942,2.06823 -31.36407,12.63319 -33.05469,33.2754 8.69325,25.31078 21.76575,46.06198 33.05469,68.66992 10.94175,-23.05774 22.90093,-39.53262 33.11718,-68.66992 -1.55749,-20.61564 -12.81075,-31.49266 -33.11718,-33.2754 z m -0.23829,8.63477 a 24.566929,24.566929 0 0 1 0.24415,0 24.566929,24.566929 0 0 1 24.56835,24.56641 24.566929,24.566929 0 0 1 -24.56835,24.5664 24.566929,24.566929 0 0 1 -24.56641,-24.5664 24.566929,24.566929 0 0 1 24.32226,-24.56641 z"
         transform="scale(0.26458333)" />
      <path
         id="circle865"
         style="fill:#0099ca;fill-opacity:1;stroke:none;stroke-width:0.615262;stroke-miterlimit:4;stroke-dasharray:none"
         d="m 157.15625,173.46484 a 33.070866,33.070866 0 0 0 -32.86719,33.07032 33.070866,33.070866 0 0 0 33.07032,33.07031 33.070866,33.070866 0 0 0 33.07226,-33.07031 33.070866,33.070866 0 0 0 -33.07226,-33.07032 33.070866,33.070866 0 0 0 -0.20313,0 z m -0.041,8.50391 a 24.566929,24.566929 0 0 1 0.24415,0 24.566929,24.566929 0 0 1 24.56835,24.56641 24.566929,24.566929 0 0 1 -24.56835,24.5664 24.566929,24.566929 0 0 1 -24.56641,-24.5664 24.566929,24.566929 0 0 1 24.32226,-24.56641 z"
         transform="scale(0.26458333)" />
    </g>
  </g>
</svg>
