<svg xmlns="http://www.w3.org/2000/svg" xmlns:svg="http://www.w3.org/2000/svg" id="svg8" width="12.268" height="5mm" version="1.1" viewBox="0 0 3.246 5"><metadata id="metadata5"/><g id="layer1" transform="translate(-15.456013,-35.677658)"><g id="g111" transform="matrix(0.17972134,0,0,0.17972134,9.3496488,27.292244)"><path id="path981" d="m 46.198214,54.730886 c -0.229338,-0.0016 -0.449663,0.03583 -0.654804,0.106075 l -0.508084,-0.846818 h 1.271694 c 0.204543,0 0.193899,-0.153383 0.266852,-0.344474 l 0.198376,-0.519673 c 0.07292,-0.191091 -0.260685,-0.370349 -0.465228,-0.370349 h -0.699197 c -0.10499,10e-7 -0.205049,0.04457 -0.275279,0.122601 l -0.578613,0.64291 -0.351429,-0.585707 C 44.335562,52.8239 44.215018,52.755646 44.084934,52.755647 h -1.2345 c -0.136366,0 -0.238189,0.110812 -0.246904,0.246899 l -0.0083,0.13477 c -0.0083,0.136087 0.102009,0.05355 0.238271,0.05714 l 0.895428,-0.02588 0.615414,0.80431 -2.544388,0.01726 c -0.273498,-0.356046 -0.693188,-0.61725 -1.541592,-0.61725 h -0.855811 c -0.487795,0 -1.672219,1.393424 -1.548757,1.567821 0.0041,0.201237 1.200629,-0.899659 1.402418,-0.887501 l 1.00215,0.06038 c 0.377442,0.02274 0.596972,0.168494 0.737412,0.382216 l -0.17424,0.316786 c -0.200696,-0.05964 -0.414646,-0.08852 -0.636549,-0.0804 -1.039879,0.03798 -1.87767,0.887557 -1.90129,1.927866 -0.02527,1.111895 0.868507,2.021164 1.974667,2.021164 0.920346,0 1.693477,-0.629501 1.912739,-1.481396 h 1.299872 c 0.21099,0 0.379433,-0.176239 0.369975,-0.386968 -0.0327,-0.727118 0.270379,-1.445363 0.867001,-1.929301 l 0.192661,0.321092 c -0.426611,0.365009 -0.695907,0.90859 -0.691802,1.51502 0.0072,1.073333 0.88271,1.951306 1.956028,1.961461 1.105324,0.01046 2.003578,-0.887095 1.994243,-1.992153 -0.0093,-1.073874 -0.886598,-1.950289 -1.960494,-1.958097 z m -5.940223,3.209643 c -0.680704,0 -1.2345,-0.553794 -1.2345,-1.234496 0,-0.680701 0.553796,-1.234495 1.2345,-1.234495 0.0655,0 0.129703,0.0053 0.192414,0.01515 l -0.640385,1.164315 c -0.13553,0.246483 0.04311,0.548826 0.324519,0.548826 h 1.25451 c -0.190877,0.435546 -0.625883,0.740697 -1.131058,0.740697 z m 5.992723,-0.0018 c -0.711059,0.03785 -1.301636,-0.529753 -1.301636,-1.232706 0,-0.329656 0.130146,-0.629299 0.341414,-0.850937 l 0.762486,1.27079 c 0.07014,0.116922 0.22182,0.154837 0.338743,0.08469 l 0.211722,-0.12703 c 0.116924,-0.07015 0.154839,-0.221823 0.08468,-0.338745 L 45.93885,55.49599 c 0.08055,-0.01628 0.162533,-0.02448 0.244727,-0.02446 0.702952,0 1.27057,0.590598 1.232706,1.301653 -0.03331,0.625859 -0.539697,1.132218 -1.16557,1.165549 z" style="fill:#0b7090;fill-opacity:1;stroke-width:.0154312"/><path id="path889" d="m 43.000127,46.657867 c -5.411443,0.56442 -8.559245,3.447594 -9.020615,9.080847 2.372385,6.907305 5.939867,12.570301 9.020615,18.740001 2.986001,-6.29245 6.249657,-10.78844 9.037669,-18.740001 -0.425038,-5.626002 -3.49605,-8.594338 -9.037669,-9.080847 z m -0.06503,2.356426 a 6.7043078,6.7043078 0 0 1 0.06663,0 6.7043078,6.7043078 0 0 1 6.704696,6.704167 6.7043078,6.7043078 0 0 1 -6.704696,6.704163 6.7043078,6.7043078 0 0 1 -6.704166,-6.704163 6.7043078,6.7043078 0 0 1 6.637538,-6.704167 z" style="fill:#0b7090;fill-opacity:1;stroke:none;stroke-width:.272899px;stroke-linecap:butt;stroke-linejoin:miter;stroke-opacity:1"/><path id="circle865" d="m 42.946292,46.693579 a 9.0250297,9.0250297 0 0 0 -8.969446,9.024881 9.0250297,9.0250297 0 0 0 9.02488,9.024878 9.0250297,9.0250297 0 0 0 9.025411,-9.024878 9.0250297,9.0250297 0 0 0 -9.025411,-9.024881 9.0250297,9.0250297 0 0 0 -0.05543,0 z m -0.01119,2.320714 a 6.7043078,6.7043078 0 0 1 0.06663,0 6.7043078,6.7043078 0 0 1 6.704696,6.704167 6.7043078,6.7043078 0 0 1 -6.704696,6.704163 6.7043078,6.7043078 0 0 1 -6.704166,-6.704163 6.7043078,6.7043078 0 0 1 6.637537,-6.704167 z" style="fill:#0099ca;fill-opacity:1;stroke:none;stroke-width:.167905;stroke-miterlimit:4;stroke-dasharray:none"/></g></g></svg>