<?xml version="1.0" encoding="UTF-8" standalone="no"?>
<svg
   xmlns:dc="http://purl.org/dc/elements/1.1/"
   xmlns:cc="http://creativecommons.org/ns#"
   xmlns:rdf="http://www.w3.org/1999/02/22-rdf-syntax-ns#"
   xmlns:svg="http://www.w3.org/2000/svg"
   xmlns="http://www.w3.org/2000/svg"
   xmlns:sodipodi="http://sodipodi.sourceforge.net/DTD/sodipodi-0.dtd"
   xmlns:inkscape="http://www.inkscape.org/namespaces/inkscape"
   width="85.311356mm"
   height="30.003969mm"
   viewBox="0 0 85.311356 30.003969"
   version="1.1"
   id="svg8"
   inkscape:version="1.0.1 (c497b03c, 2020-09-10)"
   sodipodi:docname="title.svg"
   inkscape:export-filename="/Volumes/DATA/TheSiS_App_Flutter/assets/images/title.png"
   inkscape:export-xdpi="96"
   inkscape:export-ydpi="96">
  <defs
     id="defs2" />
  <sodipodi:namedview
     id="base"
     pagecolor="#ffffff"
     bordercolor="#666666"
     borderopacity="1.0"
     inkscape:pageopacity="0.0"
     inkscape:pageshadow="2"
     inkscape:zoom="2.5882586"
     inkscape:cx="90.94718"
     inkscape:cy="44.866295"
     inkscape:document-units="mm"
     inkscape:current-layer="layer1"
     showgrid="false"
     inkscape:window-width="1600"
     inkscape:window-height="878"
     inkscape:window-x="0"
     inkscape:window-y="0"
     inkscape:window-maximized="1"
     showguides="true"
     inkscape:guide-bbox="true"
     fit-margin-top="1"
     fit-margin-left="1"
     fit-margin-right="1"
     fit-margin-bottom="1"
     inkscape:document-rotation="0" />
  <metadata
     id="metadata5">
    <rdf:RDF>
      <cc:Work
         rdf:about="">
        <dc:format>image/svg+xml</dc:format>
        <dc:type
           rdf:resource="http://purl.org/dc/dcmitype/StillImage" />
        <dc:title />
      </cc:Work>
    </rdf:RDF>
  </metadata>
  <g
     inkscape:label="Layer 1"
     inkscape:groupmode="layer"
     id="layer1"
     transform="translate(-41.527176,-120.83062)">
    <path
       id="rect850"
       d="m 134.40771,123.10095 c -1.36422,0 -2.70667,0.16779 -4.02687,0.50243 -1.30554,0.33464 -2.47156,0.84332 -3.49839,1.52714 -1.02682,0.68381 -1.85531,1.55672 -2.48608,2.61881 -0.63077,1.04756 -0.94655,2.2847 -0.94655,3.71053 0,1.16395 0.19816,2.18255 0.59423,3.0555 0.41073,0.85841 0.96817,1.62922 1.67227,2.31302 0.70412,0.68382 1.53261,1.30956 2.4861,1.87697 0.95347,0.56743 1.98076,1.12747 3.08092,1.68035 1.04151,0.52377 2.00936,1.02591 2.90416,1.50604 0.90948,0.46558 1.69448,0.95994 2.35459,1.48371 0.6601,0.50922 1.17342,1.07706 1.54016,1.70267 0.38139,0.62562 0.57189,1.36 0.57189,2.20386 0,1.57132 -0.56447,2.7792 -1.69398,3.62306 -1.11485,0.82931 -2.8089,1.24367 -5.08259,1.24367 -0.6601,0 -1.37926,-0.0651 -2.1567,-0.19601 -0.77746,-0.13095 -1.55481,-0.31306 -2.33227,-0.54585 -0.76279,-0.24733 -1.49602,-0.54589 -2.20013,-0.89507 -0.68944,-0.34918 -1.28394,-0.74205 -1.78269,-1.17853 v 4.3215 c 0.41073,0.27643 0.95346,0.53078 1.62823,0.76357 0.68945,0.21822 1.41565,0.40035 2.17843,0.54584 0.76279,0.16004 1.51074,0.27647 2.24418,0.34922 0.73345,0.0873 1.34969,0.13087 1.84844,0.13087 1.49623,0 2.91923,-0.15285 4.26877,-0.45838 1.34954,-0.29099 2.53793,-0.77102 3.56476,-1.44029 1.04149,-0.66928 1.86294,-1.53502 2.46437,-2.59712 0.61609,-1.07664 0.92422,-2.38601 0.92422,-3.92824 0,-1.16394 -0.22757,-2.19686 -0.68231,-3.09893 -0.44007,-0.90205 -1.04161,-1.72421 -1.8044,-2.46623 -0.76278,-0.74201 -1.65009,-1.41848 -2.66224,-2.02955 -1.01216,-0.61107 -2.08293,-1.19322 -3.21244,-1.7461 -1.10017,-0.53832 -2.07568,-1.03268 -2.92649,-1.48371 -0.83613,-0.45102 -1.54763,-0.91674 -2.13438,-1.39687 -0.58676,-0.48013 -1.03424,-1.01153 -1.34229,-1.59351 -0.29338,-0.58196 -0.43977,-1.27276 -0.43977,-2.07297 0,-0.8584 0.19754,-1.58563 0.59361,-2.18215 0.39605,-0.59652 0.90938,-1.08434 1.54015,-1.46262 0.63076,-0.37828 1.34992,-0.64756 2.15671,-0.80761 0.8068,-0.17459 1.61355,-0.26175 2.42035,-0.26175 2.91911,0 5.30997,0.64004 7.17292,1.92038 v -4.12425 c -1.42289,-0.74201 -3.68908,-1.1134 -6.79889,-1.1134 z"
       style="fill:#44d5ad;fill-opacity:1;stroke:none;stroke-width:1.12598;stroke-miterlimit:4;stroke-dasharray:none;stroke-opacity:1"
       inkscape:connector-curvature="0" />
    <path
       id="rect852"
       d="m 121.81833,122.90069 c -0.64543,0 -1.19583,0.21244 -1.65057,0.63696 -0.45474,0.41083 -0.68231,0.93116 -0.68231,1.56106 0,0.62995 0.22757,1.15029 0.68231,1.56108 0.45474,0.41086 1.00514,0.61592 1.65057,0.61592 0.6601,0 1.21692,-0.21183 1.67166,-0.63635 0.4694,-0.4245 0.70463,-0.93812 0.70463,-1.54065 0,-0.6299 -0.23523,-1.15023 -0.70463,-1.56106 -0.45474,-0.42452 -1.01156,-0.63696 -1.67166,-0.63696 z m -1.84844,9.71573 v 21.03398 h 3.60818 v -21.03398 z"
       style="fill:#44d5ad;fill-opacity:1;stroke:none;stroke-width:1.09238;stroke-miterlimit:4;stroke-dasharray:none;stroke-opacity:1"
       inkscape:connector-curvature="0" />
    <path
       id="rect854"
       d="m 111.98621,121.83062 c -1.3642,0 -2.70665,0.16779 -4.02685,0.50243 -1.30554,0.33463 -2.47157,0.84332 -3.49839,1.52713 -1.02682,0.68382 -1.85594,1.55672 -2.48671,2.61882 -0.63076,1.04755 -0.94592,2.2847 -0.94592,3.71053 0,1.16393 0.19816,2.18253 0.59423,3.0555 0.41073,0.85841 0.96817,1.6292 1.67227,2.31302 0.70411,0.68382 1.53261,1.30955 2.48609,1.87697 0.95348,0.56743 1.98014,1.12747 3.08031,1.68034 1.0415,0.52378 2.00997,1.02592 2.90477,1.50605 0.90948,0.46558 1.69387,0.95993 2.35397,1.48371 0.6601,0.50922 1.17405,1.07704 1.54079,1.70267 0.38138,0.62562 0.57189,1.36 0.57189,2.20386 0,1.57132 -0.5651,2.7792 -1.69461,3.62306 -1.11484,0.82931 -2.8089,1.24366 -5.08258,1.24366 -0.6601,0 -1.37864,-0.0657 -2.1561,-0.19663 -0.77745,-0.13094 -1.5548,-0.31244 -2.33225,-0.54523 -0.76279,-0.24734 -1.49665,-0.54588 -2.20076,-0.89506 -0.68944,-0.34919 -1.28332,-0.74205 -1.78206,-1.17854 v 4.3215 c 0.41073,0.27644 0.95346,0.53077 1.62823,0.76356 0.68944,0.21824 1.41565,0.40036 2.17843,0.54586 0.76278,0.16004 1.51073,0.27647 2.24418,0.34921 0.73344,0.0873 1.34969,0.13088 1.84843,0.13088 1.49624,0 2.91923,-0.15285 4.26877,-0.45839 1.34954,-0.29098 2.53732,-0.77102 3.56414,-1.44028 1.04149,-0.66928 1.86295,-1.53503 2.46437,-2.59713 0.6161,-1.07665 0.92422,-2.38601 0.92422,-3.92823 0,-1.16394 -0.22694,-2.19686 -0.68168,-3.09893 -0.44008,-0.90205 -1.04161,-1.72422 -1.8044,-2.46623 -0.76279,-0.74202 -1.65071,-1.4185 -2.66287,-2.02956 -1.01215,-0.61107 -2.08292,-1.19322 -3.21243,-1.74609 -1.10017,-0.53832 -2.07569,-1.03268 -2.92649,-1.48371 -0.83612,-0.45104 -1.54763,-0.91675 -2.13438,-1.39687 -0.58676,-0.48013 -1.03362,-1.01153 -1.34167,-1.59351 -0.29338,-0.58197 -0.4404,-1.27276 -0.4404,-2.07298 0,-0.85841 0.19817,-1.58562 0.59423,-2.18214 0.39606,-0.59652 0.90939,-1.08434 1.54016,-1.46262 0.63076,-0.37828 1.3493,-0.64757 2.15609,-0.80761 0.80679,-0.17459 1.61417,-0.26175 2.42096,-0.26175 2.91911,0 5.30996,0.64004 7.17293,1.92038 v -4.12425 c -1.42289,-0.74201 -3.68909,-1.1134 -6.79891,-1.1134 z"
       style="fill:#44d5ad;fill-opacity:1;stroke:none;stroke-width:1.12598;stroke-miterlimit:4;stroke-dasharray:none;stroke-opacity:1"
       inkscape:connector-curvature="0" />
    <path
       inkscape:connector-curvature="0"
       id="rect856"
       d="m 93.344996,131.12863 c -2.948456,0 -5.420481,1.0986 -7.415456,3.29556 -1.980306,2.18239 -2.969907,5.01187 -2.969907,8.48915 0,3.68098 0.909049,6.54035 2.727996,8.57725 1.818949,2.02235 4.320378,3.03317 7.503536,3.03317 3.256504,0 5.874931,-0.7129 7.855235,-2.13873 v -3.36069 c -2.126996,1.65863 -4.459661,2.48796 -6.997387,2.48796 -2.259015,0 -4.033622,-0.67647 -5.324489,-2.02957 -1.290866,-1.35308 -1.965923,-3.27385 -2.024596,-5.76178 h 15.908342 v -1.87697 c 0,-3.36089 -0.80675,-5.98678 -2.42034,-7.87818 -1.613581,-1.89141 -3.89448,-2.83717 -6.842934,-2.83717 z m -0.06575,3.01208 c 1.760271,0 3.131502,0.57437 4.114319,1.72376 0.997489,1.1494 1.503778,2.75731 1.518447,4.8233 H 86.743967 c 0.278708,-1.9496 1.011952,-3.52824 2.200134,-4.73583 1.188187,-1.20759 2.633548,-1.81123 4.335147,-1.81123 z"
       style="fill:#ffffff;fill-opacity:1;stroke:none;stroke-width:1.12598;stroke-miterlimit:4;stroke-dasharray:none;stroke-opacity:1" />
    <path
       id="rect858"
       d="m 64.354856,122.70522 v 31.2851 h 3.608174 v -11.96956 c 0,-1.99486 0.601544,-3.62458 1.804397,-4.89029 1.202853,-1.27947 2.684659,-1.91978 4.444932,-1.91978 3.491205,0 5.23641,2.20167 5.23641,6.60413 v 12.1755 h 3.608794 v -13.02155 c 0,-5.73698 -2.537876,-8.60578 -7.613327,-8.60578 -3.197827,0 -5.662191,1.33491 -7.393126,4.00391 h -0.08808 v -13.66168 z"
       style="fill:#ffffff;fill-opacity:1;stroke:none;stroke-width:1.12598;stroke-miterlimit:4;stroke-dasharray:none;stroke-opacity:1"
       inkscape:connector-curvature="0" />
    <path
       id="rect832"
       d="m 42.527176,122.70459 v 3.31727 h 9.087734 v 27.97838 h 3.696252 v -27.97838 h 9.109444 v -3.31727 z"
       style="fill:#ffffff;fill-opacity:1;stroke:none;stroke-width:1.12598;stroke-miterlimit:4;stroke-dasharray:none;stroke-opacity:1"
       inkscape:connector-curvature="0" />
  </g>
</svg>
