<?xml version="1.0" encoding="UTF-8" standalone="no"?>
<svg
   xmlns:dc="http://purl.org/dc/elements/1.1/"
   xmlns:cc="http://creativecommons.org/ns#"
   xmlns:rdf="http://www.w3.org/1999/02/22-rdf-syntax-ns#"
   xmlns:svg="http://www.w3.org/2000/svg"
   xmlns="http://www.w3.org/2000/svg"
   xmlns:sodipodi="http://sodipodi.sourceforge.net/DTD/sodipodi-0.dtd"
   xmlns:inkscape="http://www.inkscape.org/namespaces/inkscape"
   sodipodi:docname="ESP32_Figure.svg"
   inkscape:version="1.0 (4035a4fb49, 2020-05-01)"
   id="svg8"
   version="1.1"
   viewBox="0 0 96.660629 87.265915"
   height="87.265915mm"
   width="96.660629mm">
  <defs
     id="defs2" />
  <sodipodi:namedview
     fit-margin-bottom="1"
     fit-margin-right="1"
     fit-margin-left="1"
     fit-margin-top="1"
     inkscape:document-rotation="0"
     inkscape:window-maximized="1"
     inkscape:window-y="-8"
     inkscape:window-x="-8"
     inkscape:window-height="877"
     inkscape:window-width="1600"
     showgrid="false"
     inkscape:current-layer="layer1"
     inkscape:document-units="mm"
     inkscape:cy="196.10659"
     inkscape:cx="277.78675"
     inkscape:zoom="0.5"
     inkscape:pageshadow="2"
     inkscape:pageopacity="0.0"
     borderopacity="1.0"
     bordercolor="#666666"
     pagecolor="#ffffff"
     id="base">
    <inkscape:grid
       id="grid1247"
       type="xygrid" />
  </sodipodi:namedview>
  <metadata
     id="metadata5">
    <rdf:RDF>
      <cc:Work
         rdf:about="">
        <dc:format>image/svg+xml</dc:format>
        <dc:type
           rdf:resource="http://purl.org/dc/dcmitype/StillImage" />
        <dc:title></dc:title>
      </cc:Work>
    </rdf:RDF>
  </metadata>
  <g
     transform="translate(-2.4802292,-208.54238)"
     id="layer1"
     inkscape:groupmode="layer"
     inkscape:label="Layer 1">
    <g
       inkscape:export-ydpi="300"
       inkscape:export-xdpi="300"
       id="g4904">
      <path
         d="m 241.44803,-35.561226 h 5 v 0.5 h -5 z"
         transform="rotate(90)"
         style="fill:#000000;fill-opacity:1;stroke:none;stroke-width:0.0859115;stroke-miterlimit:4;stroke-dasharray:none;stroke-dashoffset:0;stroke-opacity:1"
         id="rect4773" />
      <path
         d="m 212.63512,-87.419609 h 22.5 v 0.5 h -22.5 z"
         transform="rotate(90)"
         style="fill:#000000;fill-opacity:1;stroke:none;stroke-width:0.182246;stroke-miterlimit:4;stroke-dasharray:none;stroke-dashoffset:0;stroke-opacity:1"
         id="rect4767" />
      <path
         d="m 237.36035,-84.773773 h 21.587 v 0.5 h -21.587 z"
         transform="rotate(90)"
         style="fill:#000000;fill-opacity:1;stroke:none;stroke-width:0.17851;stroke-miterlimit:4;stroke-dasharray:none;stroke-dashoffset:0;stroke-opacity:1"
         id="rect4765" />
      <path
         d="m 20.881554,217.54898 h 77.018623 v 77.01863 H 20.881554 Z"
         style="fill:none;fill-opacity:1;stroke:#000000;stroke-width:0.481366;stroke-miterlimit:4;stroke-dasharray:0.962733, 0.481366;stroke-dashoffset:0;stroke-opacity:1"
         id="rect4529" />
      <path
         d="m 225.948,-31.857056 h 20.5 v 0.5 h -20.5 z"
         transform="rotate(90)"
         style="fill:#000000;fill-opacity:1;stroke:none;stroke-width:0.173958;stroke-miterlimit:4;stroke-dasharray:none;stroke-dashoffset:0;stroke-opacity:1"
         id="rect4702" />
      <path
         d="m 225.95207,-82.657104 h 12.88723 v 0.5 h -12.88723 z"
         transform="rotate(90)"
         style="fill:#000000;fill-opacity:1;stroke:none;stroke-width:0.137926;stroke-miterlimit:4;stroke-dasharray:none;stroke-dashoffset:0;stroke-opacity:1"
         id="rect4742" />
      <g
         id="g4658">
        <g
           id="g4643">
          <path
             d="m -82.500023,-226.45651 h 51 v 0.5 h -51 z"
             transform="scale(-1)"
             style="fill:#000000;fill-opacity:1;stroke:none;stroke-width:1.11346;stroke-miterlimit:4;stroke-dasharray:none;stroke-dashoffset:0;stroke-opacity:1"
             id="rect4601" />
          <path
             d="m -259.14349,59.281261 h 46.5 v 0.5 h -46.5 z"
             transform="rotate(-90)"
             style="fill:#000000;fill-opacity:1;stroke:none;stroke-width:1.0632;stroke-miterlimit:4;stroke-dasharray:none;stroke-dashoffset:0;stroke-opacity:1"
             id="rect4609" />
          <path
             d="m 60.299999,226.14999 a 0.75,0.75 0 0 1 -0.75,0.75 0.75,0.75 0 0 1 -0.75,-0.75 0.75,0.75 0 0 1 0.75,-0.75 0.75,0.75 0 0 1 0.75,0.75"
             style="fill:#121212;fill-opacity:1;stroke:none;stroke-width:0.790831;stroke-miterlimit:4;stroke-dasharray:none;stroke-dashoffset:0;stroke-opacity:1"
             id="circle4549" />
        </g>
        <g
           id="g4648">
          <path
             d="m 55.150002,233.94991 h 8.700099 V 239.15 h -8.700099 z"
             style="fill:#ffffff;fill-opacity:1;stroke:#000000;stroke-width:0.3;stroke-miterlimit:4;stroke-dasharray:none;stroke-dashoffset:0;stroke-opacity:1"
             id="rect4541" />
          <path
             d="m 79.932991,233.91087 h 8.700099 v 5.2001 h -8.700099 z"
             style="fill:#ffffff;fill-opacity:1;stroke:#000000;stroke-width:0.3;stroke-miterlimit:4;stroke-dasharray:none;stroke-dashoffset:0;stroke-opacity:1"
             id="rect4543" />
          <path
             d="m 27.545441,233.91087 h 8.700099 v 5.2001 h -8.700099 z"
             style="fill:#ffffff;fill-opacity:1;stroke:#000000;stroke-width:0.3;stroke-miterlimit:4;stroke-dasharray:none;stroke-dashoffset:0;stroke-opacity:1"
             id="rect4545" />
        </g>
      </g>
      <path
         d="m 78.456161,258.76111 h 12.505534 v 27.50553 H 78.456161 Z"
         style="fill:#ffffff;fill-opacity:1;stroke:#000000;stroke-width:0.3;stroke-miterlimit:4;stroke-dasharray:none;stroke-dashoffset:0;stroke-opacity:1"
         id="rect4531" />
      <path
         d="M 53.056137,258.76111 H 65.56167 v 27.50553 H 53.056137 Z"
         style="fill:#ffffff;fill-opacity:1;stroke:#000000;stroke-width:0.3;stroke-miterlimit:4;stroke-dasharray:none;stroke-dashoffset:0;stroke-opacity:1"
         id="rect4533" />
      <path
         style="fill:#ffffff;fill-opacity:1;stroke:#000000;stroke-width:0.399914;stroke-linecap:butt;stroke-linejoin:miter;stroke-miterlimit:4;stroke-dasharray:none;stroke-opacity:1"
         d="m 29.714443,245.54605 8.370023,0.0596 -1.547879,3.5179 -5.025836,0.0198 z"
         id="path4539"
         inkscape:connector-curvature="0" />
      <path
         d="M 28.081223,259.11664 H 40.181278 V 286.2167 H 28.081223 Z"
         style="fill:#ffffff;fill-opacity:1;stroke:#000000;stroke-width:0.399943;stroke-miterlimit:4;stroke-dasharray:none;stroke-dashoffset:0;stroke-opacity:1"
         id="rect4535" />
      <path
         d="M 14.541659,253.89581 H 34.14166 v 0.5 H 14.541659 Z"
         style="fill:#000000;fill-opacity:1;stroke:none;stroke-width:0.690267;stroke-miterlimit:4;stroke-dasharray:none;stroke-dashoffset:0;stroke-opacity:1"
         id="rect4551" />
      <path
         d="m 249.17956,-34.420826 h 9.93251 c 0.0187,0 0.0337,0.01505 0.0337,0.03374 v 0.432512 c 0,0.01869 -0.015,0.03374 -0.0337,0.03374 h -9.93251 c -0.0187,0 -0.0337,-0.01505 -0.0337,-0.03374 v -0.432512 c 0,-0.01869 0.0151,-0.03374 0.0337,-0.03374 z"
         transform="rotate(90)"
         style="fill:#000000;fill-opacity:1;stroke:none;stroke-width:0.493048;stroke-miterlimit:4;stroke-dasharray:none;stroke-dashoffset:0;stroke-opacity:1"
         id="rect4553" />
      <path
         d="m 34.908077,254.15483 a 0.75,0.75 0 0 1 -0.75,0.75 0.75,0.75 0 0 1 -0.75,-0.75 0.75,0.75 0 0 1 0.75,-0.75 0.75,0.75 0 0 1 0.75,0.75"
         style="fill:#000000;fill-opacity:1;stroke:none;stroke-width:0.790831;stroke-miterlimit:4;stroke-dasharray:none;stroke-dashoffset:0;stroke-opacity:1"
         id="path4547" />
      <path
         d="m -39.783875,-229.88327 h 8.387001 v 0.5 h -8.387001 z"
         transform="scale(-1)"
         style="fill:#000000;fill-opacity:1;stroke:none;stroke-width:0.111268;stroke-miterlimit:4;stroke-dasharray:none;stroke-dashoffset:0;stroke-opacity:1"
         id="rect4769" />
      <path
         d="m -39.801033,-241.93719 h 4.7 v 0.5 h -4.7 z"
         transform="scale(-1)"
         style="fill:#000000;fill-opacity:1;stroke:none;stroke-width:0.0832943;stroke-miterlimit:4;stroke-dasharray:none;stroke-dashoffset:0;stroke-opacity:1"
         id="rect4771" />
      <path
         d="m 229.38562,-39.794563 h 12.3 v 0.5 h -12.3 z"
         transform="rotate(90)"
         style="fill:#000000;fill-opacity:1;stroke:none;stroke-width:0.134747;stroke-miterlimit:4;stroke-dasharray:none;stroke-dashoffset:0;stroke-opacity:1"
         id="rect4775" />
      <path
         d="m 32.33429,229.60965 a 0.75,0.75 0 0 1 -0.75,0.75 0.75,0.75 0 0 1 -0.75,-0.75 0.75,0.75 0 0 1 0.75,-0.75 0.75,0.75 0 0 1 0.75,0.75"
         style="fill:#000000;fill-opacity:1;stroke:none;stroke-width:0.790831;stroke-miterlimit:4;stroke-dasharray:none;stroke-dashoffset:0;stroke-opacity:1"
         id="circle4780" />
      <g
         style="font-style:normal;font-variant:normal;font-weight:normal;font-stretch:normal;font-size:4.23333px;line-height:1.25;font-family:'Times New Roman';-inkscape-font-specification:'Times New Roman, ';letter-spacing:0px;word-spacing:0px;fill:#000000;fill-opacity:1;stroke:none;stroke-width:0.264583"
         id="text4784"
         aria-label="LDO">
        <path
           id="path919"
           style="font-size:2.82222px;stroke-width:0.264583"
           d="m 30.588719,236.89356 0.04547,0.01 -0.159852,0.50711 h -1.446939 v -0.051 h 0.07028 q 0.118511,0 0.169498,-0.0772 0.02894,-0.0441 0.02894,-0.20395 v -1.20579 q 0,-0.17501 -0.03858,-0.2191 -0.05374,-0.0606 -0.159852,-0.0606 h -0.07028 v -0.051 h 0.846115 v 0.051 q -0.148828,-0.001 -0.209462,0.0276 -0.05926,0.0289 -0.0813,0.073 -0.02205,0.0441 -0.02205,0.21084 v 1.17409 q 0,0.11437 0.02205,0.15709 0.01654,0.0289 0.05099,0.0427 0.03445,0.0138 0.214974,0.0138 h 0.136426 q 0.214974,0 0.30179,-0.0317 0.08682,-0.0317 0.158474,-0.11162 0.07166,-0.0813 0.143316,-0.25494 z" />
        <path
           id="path921"
           style="font-size:2.82222px;stroke-width:0.264583"
           d="m 30.744437,237.41032 v -0.051 h 0.07028 q 0.118511,0 0.168121,-0.0758 0.03032,-0.0455 0.03032,-0.20394 v -1.20717 q 0,-0.17501 -0.03859,-0.2191 -0.05374,-0.0606 -0.159852,-0.0606 h -0.07028 v -0.051 h 0.760677 q 0.418923,0 0.636653,0.0951 0.219108,0.0951 0.351399,0.31695 0.13367,0.22186 0.13367,0.51263 0,0.38998 -0.237022,0.65181 -0.265962,0.29214 -0.810286,0.29214 z m 0.533301,-0.13504 q 0.17501,0.0386 0.293521,0.0386 0.319705,0 0.530545,-0.22462 0.210839,-0.22462 0.210839,-0.60909 0,-0.38723 -0.210839,-0.61047 -0.21084,-0.22324 -0.541569,-0.22324 -0.124023,0 -0.282497,0.04 z" />
        <path
           id="path923"
           style="font-size:2.82222px;stroke-width:0.264583"
           d="m 33.767851,235.49899 q 0.363801,0 0.629763,0.27698 0.267339,0.27561 0.267339,0.68902 0,0.42581 -0.268717,0.70693 -0.268718,0.28112 -0.650434,0.28112 -0.38585,0 -0.649055,-0.27423 -0.261827,-0.27423 -0.261827,-0.70969 0,-0.4451 0.303168,-0.72622 0.263205,-0.24391 0.629763,-0.24391 z m -0.02618,0.10059 q -0.250803,0 -0.402387,0.18604 -0.188791,0.23151 -0.188791,0.67799 0,0.45751 0.195681,0.70418 0.150206,0.18741 0.396875,0.18741 0.263205,0 0.434082,-0.20532 0.172254,-0.20533 0.172254,-0.64768 0,-0.47956 -0.188791,-0.7152 -0.151584,-0.18742 -0.418923,-0.18742 z" />
      </g>
      <g
         style="font-style:normal;font-variant:normal;font-weight:normal;font-stretch:normal;font-size:4.23333px;line-height:1.25;font-family:'Times New Roman';-inkscape-font-specification:'Times New Roman, ';letter-spacing:0px;word-spacing:0px;fill:#000000;fill-opacity:1;stroke:none;stroke-width:0.264583"
         id="text4788"
         aria-label="LDO">
        <path
           id="path926"
           style="font-size:2.82222px;stroke-width:0.264583"
           d="m 58.10541,236.89356 0.04548,0.01 -0.159852,0.50711 h -1.446939 v -0.051 h 0.07028 q 0.118511,0 0.169499,-0.0772 0.02894,-0.0441 0.02894,-0.20395 v -1.20579 q 0,-0.17501 -0.03859,-0.2191 -0.05374,-0.0606 -0.159852,-0.0606 h -0.07028 v -0.051 h 0.846115 v 0.051 q -0.148828,-0.001 -0.209462,0.0276 -0.05925,0.0289 -0.0813,0.073 -0.02205,0.0441 -0.02205,0.21084 v 1.17409 q 0,0.11437 0.02205,0.15709 0.01654,0.0289 0.05099,0.0427 0.03445,0.0138 0.214974,0.0138 h 0.136426 q 0.214974,0 0.30179,-0.0317 0.08682,-0.0317 0.158474,-0.11162 0.07166,-0.0813 0.143316,-0.25494 z" />
        <path
           id="path928"
           style="font-size:2.82222px;stroke-width:0.264583"
           d="m 58.261128,237.41032 v -0.051 h 0.07028 q 0.118511,0 0.168121,-0.0758 0.03032,-0.0455 0.03032,-0.20394 v -1.20717 q 0,-0.17501 -0.03858,-0.2191 -0.05374,-0.0606 -0.159853,-0.0606 h -0.07028 v -0.051 h 0.760677 q 0.418923,0 0.636653,0.0951 0.219108,0.0951 0.3514,0.31695 0.133669,0.22186 0.133669,0.51263 0,0.38998 -0.237022,0.65181 -0.265961,0.29214 -0.810286,0.29214 z m 0.533301,-0.13504 q 0.17501,0.0386 0.293522,0.0386 0.319704,0 0.530544,-0.22462 0.21084,-0.22462 0.21084,-0.60909 0,-0.38723 -0.21084,-0.61047 -0.21084,-0.22324 -0.541569,-0.22324 -0.124023,0 -0.282497,0.04 z" />
        <path
           id="path930"
           style="font-size:2.82222px;stroke-width:0.264583"
           d="m 61.284542,235.49899 q 0.363802,0 0.629763,0.27698 0.267339,0.27561 0.267339,0.68902 0,0.42581 -0.268717,0.70693 -0.268717,0.28112 -0.650434,0.28112 -0.38585,0 -0.649055,-0.27423 -0.261827,-0.27423 -0.261827,-0.70969 0,-0.4451 0.303168,-0.72622 0.263205,-0.24391 0.629763,-0.24391 z m -0.02618,0.10059 q -0.250803,0 -0.402387,0.18604 -0.188791,0.23151 -0.188791,0.67799 0,0.45751 0.195682,0.70418 0.150206,0.18741 0.396874,0.18741 0.263205,0 0.434082,-0.20532 0.172255,-0.20533 0.172255,-0.64768 0,-0.47956 -0.188792,-0.7152 -0.151584,-0.18742 -0.418923,-0.18742 z" />
      </g>
      <g
         style="font-style:normal;font-variant:normal;font-weight:normal;font-stretch:normal;font-size:4.23333px;line-height:1.25;font-family:'Times New Roman';-inkscape-font-specification:'Times New Roman, ';letter-spacing:0px;word-spacing:0px;fill:#000000;fill-opacity:1;stroke:none;stroke-width:0.264583"
         id="text4792"
         aria-label="LDO">
        <path
           id="path933"
           style="font-size:2.82222px;stroke-width:0.264583"
           d="m 82.976267,236.89356 0.04548,0.01 -0.159853,0.50711 h -1.446939 v -0.051 h 0.07028 q 0.118511,0 0.169499,-0.0772 0.02894,-0.0441 0.02894,-0.20395 v -1.20579 q 0,-0.17501 -0.03858,-0.2191 -0.05374,-0.0606 -0.159853,-0.0606 h -0.07028 v -0.051 h 0.846115 v 0.051 q -0.148828,-0.001 -0.209461,0.0276 -0.05926,0.0289 -0.08131,0.073 -0.02205,0.0441 -0.02205,0.21084 v 1.17409 q 0,0.11437 0.02205,0.15709 0.01654,0.0289 0.05099,0.0427 0.03445,0.0138 0.214974,0.0138 h 0.136425 q 0.214974,0 0.30179,-0.0317 0.08682,-0.0317 0.158475,-0.11162 0.07166,-0.0813 0.143315,-0.25494 z" />
        <path
           id="path935"
           style="font-size:2.82222px;stroke-width:0.264583"
           d="m 83.131986,237.41032 v -0.051 h 0.07028 q 0.118512,0 0.168121,-0.0758 0.03032,-0.0455 0.03032,-0.20394 v -1.20717 q 0,-0.17501 -0.03858,-0.2191 -0.05374,-0.0606 -0.159853,-0.0606 h -0.07028 v -0.051 h 0.760676 q 0.418923,0 0.636653,0.0951 0.219108,0.0951 0.3514,0.31695 0.133669,0.22186 0.133669,0.51263 0,0.38998 -0.237022,0.65181 -0.265961,0.29214 -0.810286,0.29214 z m 0.5333,-0.13504 q 0.175011,0.0386 0.293522,0.0386 0.319705,0 0.530544,-0.22462 0.21084,-0.22462 0.21084,-0.60909 0,-0.38723 -0.21084,-0.61047 -0.210839,-0.22324 -0.541568,-0.22324 -0.124024,0 -0.282498,0.04 z" />
        <path
           id="path937"
           style="font-size:2.82222px;stroke-width:0.264583"
           d="m 86.155399,235.49899 q 0.363802,0 0.629763,0.27698 0.267339,0.27561 0.267339,0.68902 0,0.42581 -0.268717,0.70693 -0.268717,0.28112 -0.650433,0.28112 -0.385851,0 -0.649056,-0.27423 -0.261827,-0.27423 -0.261827,-0.70969 0,-0.4451 0.303168,-0.72622 0.263205,-0.24391 0.629763,-0.24391 z m -0.02618,0.10059 q -0.250802,0 -0.402386,0.18604 -0.188792,0.23151 -0.188792,0.67799 0,0.45751 0.195682,0.70418 0.150206,0.18741 0.396874,0.18741 0.263206,0 0.434082,-0.20532 0.172255,-0.20533 0.172255,-0.64768 0,-0.47956 -0.188791,-0.7152 -0.151584,-0.18742 -0.418924,-0.18742 z" />
      </g>
      <g
         style="font-style:normal;font-variant:normal;font-weight:normal;font-stretch:normal;font-size:4.23333px;line-height:1.25;font-family:'Times New Roman';-inkscape-font-specification:'Times New Roman, ';letter-spacing:0px;word-spacing:0px;fill:#000000;fill-opacity:1;stroke:none;stroke-width:0.264583"
         id="text4796"
         aria-label="Domain">
        <path
           id="path940"
           style="font-size:2.82222px;stroke-width:0.264583"
           d="m 80.154112,276.03955 v -0.051 h 0.07028 q 0.118511,0 0.16812,-0.0758 0.03032,-0.0455 0.03032,-0.20395 v -1.20716 q 0,-0.17501 -0.03858,-0.21911 -0.05374,-0.0606 -0.159852,-0.0606 h -0.07028 v -0.051 h 0.760677 q 0.418923,0 0.636653,0.0951 0.219108,0.0951 0.351399,0.31695 0.13367,0.22186 0.13367,0.51263 0,0.38998 -0.237023,0.65181 -0.265961,0.29214 -0.810285,0.29214 z m 0.5333,-0.13505 q 0.175011,0.0386 0.293522,0.0386 0.319705,0 0.530545,-0.22462 0.210839,-0.22462 0.210839,-0.60909 0,-0.38723 -0.210839,-0.61047 -0.21084,-0.22325 -0.541569,-0.22325 -0.124023,0 -0.282498,0.04 z" />
        <path
           id="path942"
           style="font-size:2.82222px;stroke-width:0.264583"
           d="m 82.850931,274.74006 q 0.286631,0 0.460264,0.21773 0.14745,0.18604 0.14745,0.42719 0,0.1695 -0.0813,0.34313 -0.0813,0.17364 -0.22462,0.26183 -0.141938,0.0882 -0.316949,0.0882 -0.285253,0 -0.453374,-0.22738 -0.141938,-0.19155 -0.141938,-0.42995 0,-0.17363 0.08544,-0.34451 0.08682,-0.17225 0.227376,-0.25356 0.14056,-0.0827 0.297656,-0.0827 z m -0.04272,0.0896 q -0.07304,0 -0.14745,0.0441 -0.07304,0.0427 -0.118512,0.15159 -0.04547,0.10886 -0.04547,0.27974 0,0.2756 0.108865,0.47542 0.110243,0.19982 0.289388,0.19982 0.13367,0 0.220486,-0.11025 0.08682,-0.11024 0.08682,-0.37896 0,-0.33624 -0.144694,-0.52916 -0.09784,-0.1323 -0.249424,-0.1323 z" />
        <path
           id="path944"
           style="font-size:2.82222px;stroke-width:0.264583"
           d="m 84.019506,275.00878 q 0.137804,-0.1378 0.162609,-0.15848 0.06201,-0.0524 0.133669,-0.0813 0.07166,-0.0289 0.141938,-0.0289 0.118511,0 0.203949,0.0689 0.08544,0.0689 0.114378,0.19982 0.141937,-0.16537 0.239778,-0.21635 0.09784,-0.0524 0.201193,-0.0524 0.100597,0 0.177767,0.0524 0.07855,0.051 0.124024,0.16812 0.03032,0.0799 0.03032,0.2508 v 0.54295 q 0,0.11851 0.01792,0.16261 0.01378,0.0303 0.05099,0.0524 0.03721,0.0207 0.121268,0.0207 v 0.0496 h -0.622873 v -0.0496 h 0.02618 q 0.08131,0 0.12678,-0.0317 0.03169,-0.0221 0.04547,-0.0703 0.0055,-0.0234 0.0055,-0.13367 v -0.54295 q 0,-0.15434 -0.03721,-0.21773 -0.05374,-0.0882 -0.172254,-0.0882 -0.07304,0 -0.14745,0.0372 -0.07304,0.0358 -0.177767,0.13505 l -0.0028,0.0152 0.0028,0.0592 v 0.60221 q 0,0.12953 0.01378,0.16123 0.01516,0.0317 0.05512,0.0537 0.03996,0.0207 0.136425,0.0207 v 0.0496 h -0.638031 v -0.0496 q 0.104731,0 0.143316,-0.0248 0.03996,-0.0248 0.05512,-0.0744 0.0069,-0.0234 0.0069,-0.13642 v -0.54295 q 0,-0.15434 -0.04548,-0.22186 -0.06063,-0.0882 -0.169498,-0.0882 -0.07441,0 -0.14745,0.04 -0.114377,0.0606 -0.176389,0.13642 v 0.67662 q 0,0.12402 0.01654,0.16123 0.01791,0.0372 0.05099,0.0565 0.03445,0.0179 0.137804,0.0179 v 0.0496 h -0.624251 v -0.0496 q 0.08682,0 0.121267,-0.0179 0.03445,-0.0193 0.05237,-0.0593 0.01791,-0.0413 0.01791,-0.15847 v -0.48232 q 0,-0.20808 -0.0124,-0.26871 -0.0096,-0.0455 -0.03032,-0.062 -0.02067,-0.0179 -0.0565,-0.0179 -0.03858,0 -0.09233,0.0207 l -0.02067,-0.0496 0.380339,-0.15434 h 0.05926 z" />
        <path
           id="path946"
           style="font-size:2.82222px;stroke-width:0.264583"
           d="m 86.553717,275.85765 q -0.194304,0.15021 -0.243913,0.17363 -0.07441,0.0344 -0.158474,0.0344 -0.130914,0 -0.216352,-0.0896 -0.08406,-0.0896 -0.08406,-0.23564 0,-0.0923 0.04134,-0.15986 0.0565,-0.0937 0.195681,-0.17638 0.14056,-0.0827 0.465777,-0.2012 v -0.0496 q 0,-0.18879 -0.06063,-0.25907 -0.05926,-0.0703 -0.173633,-0.0703 -0.08682,0 -0.137803,0.0469 -0.05237,0.0469 -0.05237,0.10748 l 0.0028,0.0799 q 0,0.0634 -0.03307,0.0978 -0.03169,0.0344 -0.08406,0.0344 -0.05099,0 -0.08406,-0.0358 -0.03169,-0.0358 -0.03169,-0.0978 0,-0.11851 0.121267,-0.21773 0.121267,-0.0992 0.340375,-0.0992 0.168121,0 0.275608,0.0565 0.0813,0.0427 0.119889,0.13367 0.02481,0.0593 0.02481,0.24254 v 0.42856 q 0,0.18053 0.0069,0.22187 0.0069,0.04 0.02205,0.0537 0.01654,0.0138 0.03721,0.0138 0.02205,0 0.03859,-0.01 0.02894,-0.0179 0.111621,-0.1006 v 0.0772 q -0.154341,0.20671 -0.2949,0.20671 -0.06752,0 -0.107487,-0.0469 -0.03996,-0.0469 -0.04134,-0.15985 z m 0,-0.0896 v -0.48094 q -0.208084,0.0827 -0.268718,0.11714 -0.108865,0.0606 -0.155718,0.12678 -0.04685,0.0661 -0.04685,0.14469 0,0.0992 0.05926,0.16536 0.05926,0.0648 0.136426,0.0648 0.104731,0 0.275608,-0.1378 z" />
        <path
           id="path948"
           style="font-size:2.82222px;stroke-width:0.264583"
           d="m 87.410856,274.07998 q 0.05788,0 0.09784,0.0413 0.04134,0.04 0.04134,0.0978 0,0.0579 -0.04134,0.0992 -0.03996,0.0413 -0.09784,0.0413 -0.05788,0 -0.09922,-0.0413 -0.04134,-0.0413 -0.04134,-0.0992 0,-0.0579 0.03996,-0.0978 0.04134,-0.0413 0.100597,-0.0413 z m 0.114377,0.66008 v 1.01424 q 0,0.11851 0.01654,0.15847 0.01792,0.0386 0.05099,0.0579 0.03445,0.0193 0.124023,0.0193 v 0.0496 h -0.613226 v -0.0496 q 0.09233,0 0.124023,-0.0179 0.03169,-0.0179 0.04961,-0.0593 0.01929,-0.0413 0.01929,-0.15847 v -0.48645 q 0,-0.20533 -0.0124,-0.26596 -0.0096,-0.0441 -0.03032,-0.0606 -0.02067,-0.0179 -0.0565,-0.0179 -0.03858,0 -0.09371,0.0207 l -0.01929,-0.0496 0.380338,-0.15434 z" />
        <path
           id="path950"
           style="font-size:2.82222px;stroke-width:0.264583"
           d="m 88.240434,275.0074 q 0.221864,-0.26734 0.423057,-0.26734 0.103353,0 0.177767,0.0524 0.07441,0.051 0.118511,0.1695 0.03032,0.0827 0.03032,0.25355 v 0.53882 q 0,0.11989 0.01929,0.16261 0.01516,0.0345 0.04823,0.0537 0.03445,0.0193 0.125401,0.0193 v 0.0496 h -0.62425 v -0.0496 h 0.02618 q 0.08819,0 0.122646,-0.0262 0.03583,-0.0276 0.04961,-0.0799 0.0055,-0.0207 0.0055,-0.12953 v -0.51677 q 0,-0.17225 -0.04547,-0.24942 -0.0441,-0.0786 -0.150206,-0.0786 -0.163987,0 -0.326595,0.17915 v 0.66559 q 0,0.12815 0.01516,0.15847 0.01929,0.04 0.05237,0.0593 0.03445,0.0179 0.137803,0.0179 v 0.0496 h -0.62425 v -0.0496 h 0.02756 q 0.09646,0 0.129536,-0.0482 0.03445,-0.0496 0.03445,-0.18741 v -0.46854 q 0,-0.22737 -0.01102,-0.27698 -0.0096,-0.0496 -0.03169,-0.0675 -0.02067,-0.0179 -0.0565,-0.0179 -0.03858,0 -0.09233,0.0207 l -0.02067,-0.0496 0.380338,-0.15434 h 0.05926 z" />
      </g>
      <g
         style="font-style:normal;font-variant:normal;font-weight:normal;font-stretch:normal;font-size:4.23333px;line-height:1.25;font-family:'Times New Roman';-inkscape-font-specification:'Times New Roman, ';letter-spacing:0px;word-spacing:0px;fill:#000000;fill-opacity:1;stroke:none;stroke-width:0.264583"
         id="text4800"
         aria-label="Domain">
        <path
           id="path953"
           style="font-size:2.82222px;stroke-width:0.264583"
           d="m 54.754088,276.03955 v -0.051 h 0.07028 q 0.118511,0 0.16812,-0.0758 0.03032,-0.0455 0.03032,-0.20395 v -1.20716 q 0,-0.17501 -0.03858,-0.21911 -0.05374,-0.0606 -0.159852,-0.0606 h -0.07028 v -0.051 h 0.760676 q 0.418923,0 0.636653,0.0951 0.219108,0.0951 0.3514,0.31695 0.133669,0.22186 0.133669,0.51263 0,0.38998 -0.237022,0.65181 -0.265961,0.29214 -0.810286,0.29214 z m 0.5333,-0.13505 q 0.175011,0.0386 0.293522,0.0386 0.319705,0 0.530544,-0.22462 0.21084,-0.22462 0.21084,-0.60909 0,-0.38723 -0.21084,-0.61047 -0.210839,-0.22325 -0.541568,-0.22325 -0.124024,0 -0.282498,0.04 z" />
        <path
           id="path955"
           style="font-size:2.82222px;stroke-width:0.264583"
           d="m 57.450906,274.74006 q 0.286632,0 0.460265,0.21773 0.14745,0.18604 0.14745,0.42719 0,0.1695 -0.0813,0.34313 -0.08131,0.17364 -0.224621,0.26183 -0.141937,0.0882 -0.316948,0.0882 -0.285254,0 -0.453374,-0.22738 -0.141938,-0.19155 -0.141938,-0.42995 0,-0.17363 0.08544,-0.34451 0.08682,-0.17225 0.227376,-0.25356 0.14056,-0.0827 0.297656,-0.0827 z m -0.04272,0.0896 q -0.07304,0 -0.14745,0.0441 -0.07304,0.0427 -0.118511,0.15159 -0.04548,0.10886 -0.04548,0.27974 0,0.2756 0.108865,0.47542 0.110243,0.19982 0.289388,0.19982 0.133669,0 0.220485,-0.11025 0.08682,-0.11024 0.08682,-0.37896 0,-0.33624 -0.144694,-0.52916 -0.09784,-0.1323 -0.249425,-0.1323 z" />
        <path
           id="path957"
           style="font-size:2.82222px;stroke-width:0.264583"
           d="m 58.619482,275.00878 q 0.137803,-0.1378 0.162608,-0.15848 0.06201,-0.0524 0.13367,-0.0813 0.07166,-0.0289 0.141938,-0.0289 0.118511,0 0.203949,0.0689 0.08544,0.0689 0.114377,0.19982 0.141938,-0.16537 0.239779,-0.21635 0.09784,-0.0524 0.201193,-0.0524 0.100597,0 0.177767,0.0524 0.07855,0.051 0.124023,0.16812 0.03032,0.0799 0.03032,0.2508 v 0.54295 q 0,0.11851 0.01791,0.16261 0.01378,0.0303 0.05099,0.0524 0.03721,0.0207 0.121267,0.0207 v 0.0496 h -0.622873 v -0.0496 h 0.02618 q 0.0813,0 0.126779,-0.0317 0.03169,-0.0221 0.04548,-0.0703 0.0055,-0.0234 0.0055,-0.13367 v -0.54295 q 0,-0.15434 -0.03721,-0.21773 -0.05374,-0.0882 -0.172255,-0.0882 -0.07304,0 -0.14745,0.0372 -0.07304,0.0358 -0.177767,0.13505 l -0.0028,0.0152 0.0028,0.0592 v 0.60221 q 0,0.12953 0.01378,0.16123 0.01516,0.0317 0.05512,0.0537 0.03996,0.0207 0.136426,0.0207 v 0.0496 h -0.638031 v -0.0496 q 0.104731,0 0.143316,-0.0248 0.03996,-0.0248 0.05512,-0.0744 0.0069,-0.0234 0.0069,-0.13642 v -0.54295 q 0,-0.15434 -0.04547,-0.22186 -0.06063,-0.0882 -0.169499,-0.0882 -0.07441,0 -0.14745,0.04 -0.114377,0.0606 -0.176388,0.13642 v 0.67662 q 0,0.12402 0.01654,0.16123 0.01792,0.0372 0.05099,0.0565 0.03445,0.0179 0.137803,0.0179 v 0.0496 h -0.624251 v -0.0496 q 0.08682,0 0.121268,-0.0179 0.03445,-0.0193 0.05237,-0.0593 0.01791,-0.0413 0.01791,-0.15847 v -0.48232 q 0,-0.20808 -0.0124,-0.26871 -0.0096,-0.0455 -0.03032,-0.062 -0.02067,-0.0179 -0.0565,-0.0179 -0.03858,0 -0.09233,0.0207 l -0.02067,-0.0496 0.380338,-0.15434 h 0.05926 z" />
        <path
           id="path959"
           style="font-size:2.82222px;stroke-width:0.264583"
           d="m 61.153692,275.85765 q -0.194303,0.15021 -0.243912,0.17363 -0.07441,0.0344 -0.158475,0.0344 -0.130913,0 -0.216352,-0.0896 -0.08406,-0.0896 -0.08406,-0.23564 0,-0.0923 0.04134,-0.15986 0.0565,-0.0937 0.195682,-0.17638 0.140559,-0.0827 0.465776,-0.2012 v -0.0496 q 0,-0.18879 -0.06063,-0.25907 -0.05926,-0.0703 -0.173633,-0.0703 -0.08682,0 -0.137804,0.0469 -0.05237,0.0469 -0.05237,0.10748 l 0.0028,0.0799 q 0,0.0634 -0.03307,0.0978 -0.03169,0.0344 -0.08406,0.0344 -0.05099,0 -0.08406,-0.0358 -0.03169,-0.0358 -0.03169,-0.0978 0,-0.11851 0.121267,-0.21773 0.121267,-0.0992 0.340375,-0.0992 0.16812,0 0.275607,0.0565 0.08131,0.0427 0.11989,0.13367 0.0248,0.0593 0.0248,0.24254 v 0.42856 q 0,0.18053 0.0069,0.22187 0.0069,0.04 0.02205,0.0537 0.01654,0.0138 0.03721,0.0138 0.02205,0 0.03858,-0.01 0.02894,-0.0179 0.111621,-0.1006 v 0.0772 q -0.15434,0.20671 -0.2949,0.20671 -0.06752,0 -0.107487,-0.0469 -0.03996,-0.0469 -0.04134,-0.15985 z m 0,-0.0896 v -0.48094 q -0.208083,0.0827 -0.268717,0.11714 -0.108865,0.0606 -0.155718,0.12678 -0.04685,0.0661 -0.04685,0.14469 0,0.0992 0.05926,0.16536 0.05926,0.0648 0.136426,0.0648 0.104731,0 0.275607,-0.1378 z" />
        <path
           id="path961"
           style="font-size:2.82222px;stroke-width:0.264583"
           d="m 62.010831,274.07998 q 0.05788,0 0.09784,0.0413 0.04134,0.04 0.04134,0.0978 0,0.0579 -0.04134,0.0992 -0.03996,0.0413 -0.09784,0.0413 -0.05788,0 -0.09922,-0.0413 -0.04134,-0.0413 -0.04134,-0.0992 0,-0.0579 0.03996,-0.0978 0.04134,-0.0413 0.100596,-0.0413 z m 0.114378,0.66008 v 1.01424 q 0,0.11851 0.01654,0.15847 0.01791,0.0386 0.05099,0.0579 0.03445,0.0193 0.124024,0.0193 v 0.0496 h -0.613227 v -0.0496 q 0.09233,0 0.124023,-0.0179 0.0317,-0.0179 0.04961,-0.0593 0.01929,-0.0413 0.01929,-0.15847 v -0.48645 q 0,-0.20533 -0.0124,-0.26596 -0.0096,-0.0441 -0.03032,-0.0606 -0.02067,-0.0179 -0.0565,-0.0179 -0.03858,0 -0.09371,0.0207 l -0.01929,-0.0496 0.380338,-0.15434 z" />
        <path
           id="path963"
           style="font-size:2.82222px;stroke-width:0.264583"
           d="m 62.84041,275.0074 q 0.221864,-0.26734 0.423057,-0.26734 0.103353,0 0.177767,0.0524 0.07441,0.051 0.118511,0.1695 0.03032,0.0827 0.03032,0.25355 v 0.53882 q 0,0.11989 0.01929,0.16261 0.01516,0.0345 0.04823,0.0537 0.03445,0.0193 0.125401,0.0193 v 0.0496 h -0.624251 v -0.0496 h 0.02618 q 0.08819,0 0.122645,-0.0262 0.03583,-0.0276 0.04961,-0.0799 0.0055,-0.0207 0.0055,-0.12953 v -0.51677 q 0,-0.17225 -0.04548,-0.24942 -0.0441,-0.0786 -0.150206,-0.0786 -0.163986,0 -0.326594,0.17915 v 0.66559 q 0,0.12815 0.01516,0.15847 0.01929,0.04 0.05237,0.0593 0.03445,0.0179 0.137804,0.0179 v 0.0496 h -0.624251 v -0.0496 h 0.02756 q 0.09646,0 0.129535,-0.0482 0.03445,-0.0496 0.03445,-0.18741 v -0.46854 q 0,-0.22737 -0.01102,-0.27698 -0.0096,-0.0496 -0.03169,-0.0675 -0.02067,-0.0179 -0.0565,-0.0179 -0.03858,0 -0.09233,0.0207 l -0.02067,-0.0496 0.380338,-0.15434 h 0.05926 z" />
      </g>
      <g
         style="font-style:normal;font-variant:normal;font-weight:normal;font-stretch:normal;font-size:4.23333px;line-height:1.25;font-family:'Times New Roman';-inkscape-font-specification:'Times New Roman, ';letter-spacing:0px;word-spacing:0px;fill:#000000;fill-opacity:1;stroke:none;stroke-width:0.264583"
         id="text4804"
         aria-label="Domain">
        <path
           id="path966"
           style="font-size:2.82222px;stroke-width:0.264583"
           d="m 29.521525,276.03955 v -0.051 h 0.07028 q 0.118512,0 0.168121,-0.0758 0.03032,-0.0455 0.03032,-0.20395 v -1.20716 q 0,-0.17501 -0.03858,-0.21911 -0.05374,-0.0606 -0.159853,-0.0606 h -0.07028 v -0.051 h 0.760676 q 0.418923,0 0.636653,0.0951 0.219108,0.0951 0.3514,0.31695 0.133669,0.22186 0.133669,0.51263 0,0.38998 -0.237022,0.65181 -0.265961,0.29214 -0.810286,0.29214 z m 0.5333,-0.13505 q 0.175011,0.0386 0.293522,0.0386 0.319705,0 0.530544,-0.22462 0.21084,-0.22462 0.21084,-0.60909 0,-0.38723 -0.21084,-0.61047 -0.210839,-0.22325 -0.541568,-0.22325 -0.124024,0 -0.282498,0.04 z" />
        <path
           id="path968"
           style="font-size:2.82222px;stroke-width:0.264583"
           d="m 32.218343,274.74006 q 0.286632,0 0.460265,0.21773 0.14745,0.18604 0.14745,0.42719 0,0.1695 -0.0813,0.34313 -0.08131,0.17364 -0.224621,0.26183 -0.141937,0.0882 -0.316948,0.0882 -0.285254,0 -0.453374,-0.22738 -0.141938,-0.19155 -0.141938,-0.42995 0,-0.17363 0.08544,-0.34451 0.08682,-0.17225 0.227376,-0.25356 0.14056,-0.0827 0.297656,-0.0827 z m -0.04272,0.0896 q -0.07304,0 -0.14745,0.0441 -0.07304,0.0427 -0.118511,0.15159 -0.04547,0.10886 -0.04547,0.27974 0,0.2756 0.108865,0.47542 0.110243,0.19982 0.289388,0.19982 0.133669,0 0.220485,-0.11025 0.08682,-0.11024 0.08682,-0.37896 0,-0.33624 -0.144694,-0.52916 -0.09784,-0.1323 -0.249425,-0.1323 z" />
        <path
           id="path970"
           style="font-size:2.82222px;stroke-width:0.264583"
           d="m 33.386919,275.00878 q 0.137803,-0.1378 0.162608,-0.15848 0.06201,-0.0524 0.13367,-0.0813 0.07166,-0.0289 0.141938,-0.0289 0.118511,0 0.203949,0.0689 0.08544,0.0689 0.114377,0.19982 0.141938,-0.16537 0.239779,-0.21635 0.09784,-0.0524 0.201193,-0.0524 0.100597,0 0.177767,0.0524 0.07855,0.051 0.124023,0.16812 0.03032,0.0799 0.03032,0.2508 v 0.54295 q 0,0.11851 0.01791,0.16261 0.01378,0.0303 0.05099,0.0524 0.03721,0.0207 0.121267,0.0207 v 0.0496 h -0.622873 v -0.0496 h 0.02618 q 0.0813,0 0.126779,-0.0317 0.03169,-0.0221 0.04548,-0.0703 0.0055,-0.0234 0.0055,-0.13367 v -0.54295 q 0,-0.15434 -0.03721,-0.21773 -0.05374,-0.0882 -0.172255,-0.0882 -0.07304,0 -0.14745,0.0372 -0.07304,0.0358 -0.177767,0.13505 l -0.0028,0.0152 0.0028,0.0592 v 0.60221 q 0,0.12953 0.01378,0.16123 0.01516,0.0317 0.05512,0.0537 0.03996,0.0207 0.136426,0.0207 v 0.0496 h -0.638031 v -0.0496 q 0.104731,0 0.143316,-0.0248 0.03996,-0.0248 0.05512,-0.0744 0.0069,-0.0234 0.0069,-0.13642 v -0.54295 q 0,-0.15434 -0.04547,-0.22186 -0.06063,-0.0882 -0.169499,-0.0882 -0.07441,0 -0.14745,0.04 -0.114377,0.0606 -0.176388,0.13642 v 0.67662 q 0,0.12402 0.01654,0.16123 0.01792,0.0372 0.05099,0.0565 0.03445,0.0179 0.137803,0.0179 v 0.0496 h -0.624251 v -0.0496 q 0.08682,0 0.121268,-0.0179 0.03445,-0.0193 0.05236,-0.0593 0.01792,-0.0413 0.01792,-0.15847 v -0.48232 q 0,-0.20808 -0.0124,-0.26871 -0.0096,-0.0455 -0.03032,-0.062 -0.02067,-0.0179 -0.0565,-0.0179 -0.03859,0 -0.09233,0.0207 l -0.02067,-0.0496 0.380338,-0.15434 h 0.05926 z" />
        <path
           id="path972"
           style="font-size:2.82222px;stroke-width:0.264583"
           d="m 35.921129,275.85765 q -0.194303,0.15021 -0.243912,0.17363 -0.07441,0.0344 -0.158475,0.0344 -0.130913,0 -0.216352,-0.0896 -0.08406,-0.0896 -0.08406,-0.23564 0,-0.0923 0.04134,-0.15986 0.0565,-0.0937 0.195682,-0.17638 0.140559,-0.0827 0.465776,-0.2012 v -0.0496 q 0,-0.18879 -0.06063,-0.25907 -0.05926,-0.0703 -0.173633,-0.0703 -0.08682,0 -0.137804,0.0469 -0.05237,0.0469 -0.05237,0.10748 l 0.0028,0.0799 q 0,0.0634 -0.03307,0.0978 -0.03169,0.0344 -0.08406,0.0344 -0.05099,0 -0.08406,-0.0358 -0.03169,-0.0358 -0.03169,-0.0978 0,-0.11851 0.121268,-0.21773 0.121267,-0.0992 0.340375,-0.0992 0.16812,0 0.275607,0.0565 0.08131,0.0427 0.11989,0.13367 0.0248,0.0593 0.0248,0.24254 v 0.42856 q 0,0.18053 0.0069,0.22187 0.0069,0.04 0.02205,0.0537 0.01654,0.0138 0.03721,0.0138 0.02205,0 0.03858,-0.01 0.02894,-0.0179 0.111621,-0.1006 v 0.0772 q -0.15434,0.20671 -0.2949,0.20671 -0.06752,0 -0.107487,-0.0469 -0.03996,-0.0469 -0.04134,-0.15985 z m 0,-0.0896 v -0.48094 q -0.208083,0.0827 -0.268717,0.11714 -0.108865,0.0606 -0.155718,0.12678 -0.04685,0.0661 -0.04685,0.14469 0,0.0992 0.05926,0.16536 0.05926,0.0648 0.136426,0.0648 0.104731,0 0.275607,-0.1378 z" />
        <path
           id="path974"
           style="font-size:2.82222px;stroke-width:0.264583"
           d="m 36.778268,274.07998 q 0.05788,0 0.09784,0.0413 0.04134,0.04 0.04134,0.0978 0,0.0579 -0.04134,0.0992 -0.03996,0.0413 -0.09784,0.0413 -0.05788,0 -0.09922,-0.0413 -0.04134,-0.0413 -0.04134,-0.0992 0,-0.0579 0.03996,-0.0978 0.04134,-0.0413 0.100596,-0.0413 z m 0.114377,0.66008 v 1.01424 q 0,0.11851 0.01654,0.15847 0.01791,0.0386 0.05099,0.0579 0.03445,0.0193 0.124024,0.0193 v 0.0496 h -0.613227 v -0.0496 q 0.09233,0 0.124023,-0.0179 0.03169,-0.0179 0.04961,-0.0593 0.01929,-0.0413 0.01929,-0.15847 v -0.48645 q 0,-0.20533 -0.0124,-0.26596 -0.0096,-0.0441 -0.03032,-0.0606 -0.02067,-0.0179 -0.0565,-0.0179 -0.03858,0 -0.09371,0.0207 l -0.01929,-0.0496 0.380338,-0.15434 z" />
        <path
           id="path976"
           style="font-size:2.82222px;stroke-width:0.264583"
           d="m 37.607847,275.0074 q 0.221864,-0.26734 0.423057,-0.26734 0.103353,0 0.177767,0.0524 0.07441,0.051 0.118511,0.1695 0.03032,0.0827 0.03032,0.25355 v 0.53882 q 0,0.11989 0.01929,0.16261 0.01516,0.0345 0.04823,0.0537 0.03445,0.0193 0.125401,0.0193 v 0.0496 h -0.624251 v -0.0496 h 0.02618 q 0.08819,0 0.122645,-0.0262 0.03583,-0.0276 0.04961,-0.0799 0.0055,-0.0207 0.0055,-0.12953 v -0.51677 q 0,-0.17225 -0.04548,-0.24942 -0.0441,-0.0786 -0.150206,-0.0786 -0.163986,0 -0.326594,0.17915 v 0.66559 q 0,0.12815 0.01516,0.15847 0.01929,0.04 0.05237,0.0593 0.03445,0.0179 0.137804,0.0179 v 0.0496 h -0.624251 v -0.0496 h 0.02756 q 0.09646,0 0.129535,-0.0482 0.03445,-0.0496 0.03445,-0.18741 v -0.46854 q 0,-0.22737 -0.01102,-0.27698 -0.0096,-0.0496 -0.0317,-0.0675 -0.02067,-0.0179 -0.0565,-0.0179 -0.03859,0 -0.09233,0.0207 l -0.02067,-0.0496 0.380338,-0.15434 h 0.05926 z" />
      </g>
      <g
         style="font-style:normal;font-variant:normal;font-weight:normal;font-stretch:normal;font-size:4.23333px;line-height:1.25;font-family:'Times New Roman';-inkscape-font-specification:'Times New Roman, ';letter-spacing:0px;word-spacing:0px;fill:#000000;fill-opacity:1;stroke:none;stroke-width:0.264583"
         id="text4808"
         aria-label="SDIO">
        <path
           id="path979"
           style="font-size:2.82222px;stroke-width:0.264583"
           d="m 31.852388,270.42399 v 0.6463 H 31.8014 q -0.02481,-0.18604 -0.08957,-0.29628 -0.06339,-0.11024 -0.181901,-0.17501 -0.118511,-0.0648 -0.245291,-0.0648 -0.143316,0 -0.237022,0.0882 -0.09371,0.0868 -0.09371,0.19843 0,0.0854 0.05926,0.15572 0.08544,0.10336 0.406521,0.27561 0.261827,0.14056 0.356911,0.21635 0.09646,0.0744 0.14745,0.17639 0.05237,0.10198 0.05237,0.2136 0,0.21221 -0.165365,0.36655 -0.163986,0.15297 -0.423057,0.15297 -0.0813,0 -0.152962,-0.0124 -0.04272,-0.007 -0.177767,-0.0496 -0.13367,-0.0441 -0.169498,-0.0441 -0.03445,0 -0.05512,0.0207 -0.01929,0.0207 -0.02894,0.0854 h -0.05099 v -0.64079 h 0.05099 q 0.03583,0.20119 0.09646,0.30179 0.06063,0.0992 0.184657,0.16536 0.125401,0.0661 0.274229,0.0661 0.172255,0 0.271474,-0.0909 0.100596,-0.091 0.100596,-0.21497 0,-0.0689 -0.03859,-0.13919 -0.03721,-0.0703 -0.117133,-0.13091 -0.05374,-0.0413 -0.293522,-0.17501 -0.239778,-0.13505 -0.341753,-0.21497 -0.100597,-0.0799 -0.152962,-0.17639 -0.05237,-0.0965 -0.05237,-0.21222 0,-0.20119 0.154341,-0.34589 0.15434,-0.14607 0.39274,-0.14607 0.148828,0 0.315571,0.073 0.07717,0.0344 0.108865,0.0344 0.03583,0 0.05788,-0.0207 0.02343,-0.022 0.03721,-0.0868 z" />
        <path
           id="path981"
           style="font-size:2.82222px;stroke-width:0.264583"
           d="m 32.177604,272.33533 v -0.051 h 0.07028 q 0.118511,0 0.168121,-0.0758 0.03032,-0.0455 0.03032,-0.20395 v -1.20716 q 0,-0.17501 -0.03858,-0.21911 -0.05374,-0.0606 -0.159852,-0.0606 h -0.07028 v -0.051 h 0.760677 q 0.418923,0 0.636653,0.0951 0.219108,0.0951 0.351399,0.31695 0.13367,0.22187 0.13367,0.51263 0,0.38999 -0.237022,0.65181 -0.265962,0.29215 -0.810286,0.29215 z m 0.533301,-0.13505 q 0.17501,0.0386 0.293522,0.0386 0.319704,0 0.530544,-0.22462 0.21084,-0.22462 0.21084,-0.60909 0,-0.38723 -0.21084,-0.61047 -0.21084,-0.22324 -0.541569,-0.22324 -0.124023,0 -0.282497,0.04 z" />
        <path
           id="path983"
           style="font-size:2.82222px;stroke-width:0.264583"
           d="m 35.039788,272.28434 v 0.051 h -0.80064 v -0.051 h 0.06615 q 0.115755,0 0.16812,-0.0675 0.03307,-0.0441 0.03307,-0.21222 v -1.20716 q 0,-0.14194 -0.01791,-0.18742 -0.01378,-0.0344 -0.0565,-0.0593 -0.06063,-0.0331 -0.126779,-0.0331 h -0.06615 v -0.051 h 0.80064 v 0.051 h -0.06752 q -0.114377,0 -0.166743,0.0675 -0.03445,0.0441 -0.03445,0.21222 v 1.20716 q 0,0.14194 0.01791,0.18741 0.01378,0.0344 0.05788,0.0593 0.05926,0.0331 0.125402,0.0331 z" />
        <path
           id="path985"
           style="font-size:2.82222px;stroke-width:0.264583"
           d="m 36.143595,270.42399 q 0.363802,0 0.629763,0.27699 0.267339,0.2756 0.267339,0.68901 0,0.42582 -0.268717,0.70694 -0.268717,0.28112 -0.650433,0.28112 -0.385851,0 -0.649056,-0.27423 -0.261827,-0.27423 -0.261827,-0.70969 0,-0.44511 0.303168,-0.72623 0.263205,-0.24391 0.629763,-0.24391 z m -0.02618,0.1006 q -0.250803,0 -0.402387,0.18603 -0.188791,0.23151 -0.188791,0.678 0,0.4575 0.195681,0.70417 0.150206,0.18742 0.396875,0.18742 0.263205,0 0.434081,-0.20533 0.172255,-0.20533 0.172255,-0.64768 0,-0.47956 -0.188791,-0.7152 -0.151584,-0.18741 -0.418923,-0.18741 z" />
      </g>
      <g
         style="font-style:normal;font-variant:normal;font-weight:normal;font-stretch:normal;font-size:4.23333px;line-height:1.25;font-family:'Times New Roman';-inkscape-font-specification:'Times New Roman, ';letter-spacing:0px;word-spacing:0px;fill:#000000;fill-opacity:1;stroke:none;stroke-width:0.264583"
         id="text4812"
         aria-label="RTC">
        <path
           id="path988"
           style="font-size:2.82222px;text-align:center;text-anchor:middle;stroke-width:0.264583"
           d="m 57.958688,272.33533 h -0.49885 l -0.632519,-0.87368 q -0.07028,0.003 -0.114377,0.003 -0.01791,0 -0.03858,0 -0.02067,-0.001 -0.04272,-0.003 v 0.54295 q 0,0.17639 0.03858,0.21911 0.05237,0.0606 0.157096,0.0606 h 0.07304 v 0.051 h -0.80064 v -0.051 h 0.07028 q 0.118512,0 0.169499,-0.0772 0.02894,-0.0427 0.02894,-0.20257 v -1.20716 q 0,-0.17639 -0.03859,-0.21911 -0.05374,-0.0606 -0.159853,-0.0606 h -0.07028 v -0.051 h 0.680751 q 0.297656,0 0.438216,0.0441 0.141937,0.0427 0.239778,0.15985 0.09922,0.11575 0.09922,0.27698 0,0.17226 -0.112999,0.29904 -0.111621,0.12678 -0.347266,0.17914 l 0.385851,0.53606 q 0.132291,0.18466 0.227376,0.24529 0.09508,0.0606 0.248047,0.0772 z m -1.32705,-0.96049 q 0.02618,0 0.04547,0.001 0.01929,0 0.03169,0 0.267339,0 0.402387,-0.11575 0.136425,-0.11576 0.136425,-0.2949 0,-0.17501 -0.110243,-0.28388 -0.108865,-0.11024 -0.289387,-0.11024 -0.07993,0 -0.216352,0.0262 z" />
        <path
           id="path990"
           style="font-size:2.82222px;text-align:center;text-anchor:middle;stroke-width:0.264583"
           d="m 59.398736,270.46671 0.02067,0.43821 h -0.05237 q -0.01516,-0.11575 -0.04134,-0.16536 -0.04272,-0.0799 -0.114377,-0.11713 -0.07028,-0.0386 -0.186035,-0.0386 h -0.263205 v 1.42765 q 0,0.17225 0.03721,0.21497 0.05237,0.0579 0.161231,0.0579 h 0.06477 v 0.051 h -0.792371 v -0.051 h 0.06615 q 0.118511,0 0.16812,-0.0717 0.03032,-0.0441 0.03032,-0.20119 v -1.42765 h -0.22462 q -0.130913,0 -0.186035,0.0193 -0.07166,0.0262 -0.122645,0.1006 -0.05099,0.0744 -0.06063,0.20119 h -0.05236 l 0.02205,-0.43821 z" />
        <path
           id="path992"
           style="font-size:2.82222px;text-align:center;text-anchor:middle;stroke-width:0.264583"
           d="m 61.190185,270.42399 0.04272,0.63527 h -0.04272 q -0.08544,-0.28525 -0.243913,-0.41065 -0.158474,-0.1254 -0.380338,-0.1254 -0.186035,0 -0.336241,0.0951 -0.150206,0.0937 -0.237023,0.30041 -0.08544,0.20671 -0.08544,0.51401 0,0.25356 0.0813,0.4396 0.0813,0.18603 0.243913,0.28525 0.163986,0.0992 0.373448,0.0992 0.181901,0 0.321083,-0.0772 0.139181,-0.0786 0.305924,-0.31006 l 0.04272,0.0276 q -0.14056,0.24943 -0.327973,0.36518 -0.187413,0.11576 -0.445106,0.11576 -0.464398,0 -0.719335,-0.34451 -0.190169,-0.25632 -0.190169,-0.60358 0,-0.27974 0.125401,-0.51401 0.125401,-0.23427 0.344509,-0.36242 0.220486,-0.12954 0.480935,-0.12954 0.202572,0 0.399631,0.0992 0.05788,0.0303 0.08268,0.0303 0.03721,0 0.06477,-0.0262 0.03583,-0.0372 0.05099,-0.10335 z" />
      </g>
      <g
         style="font-style:normal;font-variant:normal;font-weight:normal;font-stretch:normal;font-size:4.23333px;line-height:1.25;font-family:'Times New Roman';-inkscape-font-specification:'Times New Roman, ';text-align:center;letter-spacing:0px;word-spacing:0px;text-anchor:middle;fill:#000000;fill-opacity:1;stroke:none;stroke-width:0.264583"
         id="text4816"
         aria-label="CPU">
        <path
           id="path995"
           style="font-size:2.82222px;text-align:center;text-anchor:middle;stroke-width:0.264583"
           d="m 83.158208,270.42399 0.04272,0.63527 h -0.04272 q -0.08544,-0.28525 -0.243913,-0.41065 -0.158474,-0.1254 -0.380338,-0.1254 -0.186035,0 -0.336241,0.0951 -0.150206,0.0937 -0.237023,0.30041 -0.08544,0.20671 -0.08544,0.51401 0,0.25356 0.0813,0.4396 0.0813,0.18603 0.243913,0.28525 0.163986,0.0992 0.373448,0.0992 0.181901,0 0.321083,-0.0772 0.139181,-0.0786 0.305924,-0.31006 l 0.04272,0.0276 q -0.14056,0.24943 -0.327973,0.36518 -0.187413,0.11576 -0.445106,0.11576 -0.464398,0 -0.719335,-0.34451 -0.190169,-0.25632 -0.190169,-0.60358 0,-0.27974 0.125401,-0.51401 0.125401,-0.23427 0.344509,-0.36242 0.220486,-0.12954 0.480935,-0.12954 0.202572,0 0.399631,0.0992 0.05788,0.0303 0.08268,0.0303 0.03721,0 0.06477,-0.0262 0.03583,-0.0372 0.05099,-0.10335 z" />
        <path
           id="path997"
           style="font-size:2.82222px;text-align:center;text-anchor:middle;stroke-width:0.264583"
           d="m 83.923018,271.46027 v 0.54433 q 0,0.17639 0.03858,0.21911 0.05237,0.0606 0.158475,0.0606 h 0.07166 v 0.051 h -0.80064 v -0.051 h 0.07028 q 0.118511,0 0.169498,-0.0772 0.02756,-0.0427 0.02756,-0.20257 v -1.20716 q 0,-0.17639 -0.03721,-0.21911 -0.05374,-0.0606 -0.159852,-0.0606 h -0.07028 v -0.051 h 0.684884 q 0.250803,0 0.395497,0.0524 0.144694,0.051 0.243913,0.17364 0.09922,0.12264 0.09922,0.29076 0,0.22876 -0.151584,0.37207 -0.150206,0.14332 -0.425813,0.14332 -0.06752,0 -0.146072,-0.01 -0.07855,-0.01 -0.168121,-0.0289 z m 0,-0.0785 q 0.07304,0.0138 0.129536,0.0207 0.0565,0.007 0.09646,0.007 0.143316,0 0.246669,-0.11025 0.104731,-0.11162 0.104731,-0.28801 0,-0.12126 -0.04961,-0.22462 -0.04961,-0.10473 -0.14056,-0.15571 -0.09095,-0.0524 -0.206706,-0.0524 -0.07028,0 -0.180523,0.0262 z" />
        <path
           id="path999"
           style="font-size:2.82222px;text-align:center;text-anchor:middle;stroke-width:0.264583"
           d="m 86.261547,270.5177 v -0.051 h 0.661458 v 0.051 h -0.07028 q -0.110243,0 -0.169498,0.0923 -0.02894,0.0427 -0.02894,0.19844 v 0.75792 q 0,0.28112 -0.0565,0.43684 -0.05512,0.15434 -0.219108,0.26596 -0.162608,0.11024 -0.443728,0.11024 -0.305924,0 -0.464398,-0.1061 -0.158474,-0.10611 -0.22462,-0.28526 -0.0441,-0.12264 -0.0441,-0.46026 v -0.73036 q 0,-0.17226 -0.04823,-0.226 -0.04685,-0.0537 -0.152962,-0.0537 h -0.07028 v -0.051 h 0.80753 v 0.051 h -0.07166 q -0.115755,0 -0.165364,0.073 -0.03445,0.0496 -0.03445,0.20671 v 0.81442 q 0,0.10886 0.01929,0.24942 0.02067,0.14056 0.07304,0.21911 0.05237,0.0785 0.150206,0.12954 0.09922,0.051 0.242535,0.051 0.183279,0 0.327973,-0.0799 0.144694,-0.0799 0.197059,-0.20395 0.05374,-0.1254 0.05374,-0.42306 v -0.75654 q 0,-0.17501 -0.03859,-0.21911 -0.05374,-0.0606 -0.159852,-0.0606 z" />
      </g>
      <g
         style="font-style:normal;font-variant:normal;font-weight:normal;font-stretch:normal;font-size:4.23333px;line-height:1.25;font-family:'Times New Roman';-inkscape-font-specification:'Times New Roman, ';letter-spacing:0px;word-spacing:0px;fill:#000000;fill-opacity:1;stroke:none;stroke-width:0.264583"
         id="text4820"
         aria-label="VDD3P3_RTC">
        <path
           id="path1002"
           style="font-size:2.82222px;stroke-width:0.264583"
           d="m 52.884056,209.75257 v 0.051 q -0.09922,0.0179 -0.150206,0.0634 -0.07304,0.0675 -0.129535,0.20671 l -0.651812,1.59025 h -0.05099 l -0.700043,-1.61092 q -0.05374,-0.12402 -0.07579,-0.15159 -0.03445,-0.0427 -0.08544,-0.0661 -0.04961,-0.0248 -0.135047,-0.0317 v -0.051 h 0.763432 v 0.051 q -0.129535,0.0124 -0.16812,0.0441 -0.03858,0.0317 -0.03858,0.0813 0,0.0689 0.06339,0.21497 l 0.475422,1.09554 0.440972,-1.08176 q 0.06477,-0.15985 0.06477,-0.22186 0,-0.04 -0.03996,-0.0758 -0.03996,-0.0372 -0.135048,-0.0524 -0.0069,-0.001 -0.02343,-0.004 v -0.051 z" />
        <path
           id="path1004"
           style="font-size:2.82222px;stroke-width:0.264583"
           d="m 52.968116,211.62119 v -0.051 h 0.07028 q 0.118512,0 0.168121,-0.0758 0.03032,-0.0455 0.03032,-0.20395 v -1.20716 q 0,-0.17501 -0.03859,-0.21911 -0.05374,-0.0606 -0.159853,-0.0606 h -0.07028 v -0.051 h 0.760677 q 0.418923,0 0.636653,0.0951 0.219108,0.0951 0.3514,0.31695 0.133669,0.22186 0.133669,0.51263 0,0.38998 -0.237022,0.65181 -0.265961,0.29215 -0.810286,0.29215 z m 0.533301,-0.13505 q 0.175011,0.0386 0.293522,0.0386 0.319704,0 0.530544,-0.22462 0.21084,-0.22462 0.21084,-0.60909 0,-0.38723 -0.21084,-0.61047 -0.21084,-0.22324 -0.541569,-0.22324 -0.124023,0 -0.282497,0.04 z" />
        <path
           id="path1006"
           style="font-size:2.82222px;stroke-width:0.264583"
           d="m 55.007611,211.62119 v -0.051 h 0.07028 q 0.118512,0 0.168121,-0.0758 0.03032,-0.0455 0.03032,-0.20395 v -1.20716 q 0,-0.17501 -0.03858,-0.21911 -0.05374,-0.0606 -0.159853,-0.0606 h -0.07028 v -0.051 h 0.760677 q 0.418923,0 0.636653,0.0951 0.219108,0.0951 0.3514,0.31695 0.133669,0.22186 0.133669,0.51263 0,0.38998 -0.237022,0.65181 -0.265961,0.29215 -0.810286,0.29215 z m 0.533301,-0.13505 q 0.175011,0.0386 0.293522,0.0386 0.319704,0 0.530544,-0.22462 0.21084,-0.22462 0.21084,-0.60909 0,-0.38723 -0.21084,-0.61047 -0.21084,-0.22324 -0.541569,-0.22324 -0.124023,0 -0.282497,0.04 z" />
        <path
           id="path1008"
           style="font-size:2.82222px;stroke-width:0.264583"
           d="m 57.142191,210.1081 q 0.07993,-0.18879 0.201193,-0.29077 0.122646,-0.10335 0.304547,-0.10335 0.22462,0 0.344509,0.14607 0.09095,0.10887 0.09095,0.23289 0,0.20395 -0.256315,0.42168 0.172255,0.0675 0.260449,0.19293 0.08819,0.1254 0.08819,0.2949 0,0.24253 -0.15434,0.4203 -0.201194,0.23151 -0.58291,0.23151 -0.188791,0 -0.257693,-0.0469 -0.06752,-0.0469 -0.06752,-0.10059 0,-0.04 0.03169,-0.0703 0.03307,-0.0303 0.07855,-0.0303 0.03445,0 0.07028,0.011 0.02343,0.007 0.106109,0.051 0.08268,0.0427 0.114377,0.051 0.05099,0.0152 0.108865,0.0152 0.14056,0 0.243913,-0.10887 0.10473,-0.10886 0.10473,-0.25769 0,-0.10886 -0.04823,-0.21222 -0.03583,-0.0772 -0.07855,-0.11713 -0.05926,-0.0551 -0.162608,-0.0992 -0.103353,-0.0455 -0.21084,-0.0455 h -0.0441 v -0.0413 q 0.108865,-0.0138 0.21773,-0.0786 0.110243,-0.0648 0.159852,-0.15572 0.04961,-0.0909 0.04961,-0.19982 0,-0.14193 -0.08957,-0.22875 -0.08819,-0.0882 -0.220486,-0.0882 -0.213596,0 -0.356912,0.22876 z" />
        <path
           id="path1010"
           style="font-size:2.82222px;stroke-width:0.264583"
           d="m 58.988761,210.74613 v 0.54433 q 0,0.17639 0.03859,0.2191 0.05237,0.0606 0.158474,0.0606 h 0.07166 v 0.051 h -0.80064 v -0.051 h 0.07028 q 0.118511,0 0.169499,-0.0772 0.02756,-0.0427 0.02756,-0.20257 v -1.20716 q 0,-0.17639 -0.03721,-0.21911 -0.05374,-0.0606 -0.159853,-0.0606 h -0.07028 v -0.051 h 0.684885 q 0.250803,0 0.395496,0.0524 0.144694,0.051 0.243913,0.17364 0.09922,0.12264 0.09922,0.29076 0,0.22876 -0.151584,0.37207 -0.150206,0.14332 -0.425814,0.14332 -0.06752,0 -0.146072,-0.01 -0.07855,-0.01 -0.16812,-0.0289 z m 0,-0.0786 q 0.07304,0.0138 0.129535,0.0207 0.0565,0.007 0.09646,0.007 0.143316,0 0.246668,-0.11024 0.104731,-0.11162 0.104731,-0.28801 0,-0.12127 -0.04961,-0.22462 -0.04961,-0.10473 -0.14056,-0.15572 -0.09095,-0.0524 -0.206705,-0.0524 -0.07028,0 -0.180523,0.0262 z" />
        <path
           id="path1012"
           style="font-size:2.82222px;stroke-width:0.264583"
           d="m 60.124263,210.1081 q 0.07993,-0.18879 0.201194,-0.29077 0.122645,-0.10335 0.304546,-0.10335 0.22462,0 0.344509,0.14607 0.09095,0.10887 0.09095,0.23289 0,0.20395 -0.256315,0.42168 0.172254,0.0675 0.260449,0.19293 0.08819,0.1254 0.08819,0.2949 0,0.24253 -0.15434,0.4203 -0.201193,0.23151 -0.58291,0.23151 -0.188791,0 -0.257693,-0.0469 -0.06752,-0.0469 -0.06752,-0.10059 0,-0.04 0.03169,-0.0703 0.03307,-0.0303 0.07855,-0.0303 0.03445,0 0.07028,0.011 0.02343,0.007 0.106109,0.051 0.08268,0.0427 0.114377,0.051 0.05099,0.0152 0.108865,0.0152 0.14056,0 0.243913,-0.10887 0.104731,-0.10886 0.104731,-0.25769 0,-0.10886 -0.04823,-0.21222 -0.03583,-0.0772 -0.07855,-0.11713 -0.05926,-0.0551 -0.162608,-0.0992 -0.103353,-0.0455 -0.21084,-0.0455 h -0.0441 v -0.0413 q 0.108865,-0.0138 0.21773,-0.0786 0.110243,-0.0648 0.159852,-0.15572 0.04961,-0.0909 0.04961,-0.19982 0,-0.14193 -0.08957,-0.22875 -0.08819,-0.0882 -0.220486,-0.0882 -0.213596,0 -0.356911,0.22876 z" />
        <path
           id="path1014"
           style="font-size:2.82222px;stroke-width:0.264583"
           d="m 62.827972,212.23028 h -1.459341 v -0.11576 h 1.459341 z" />
        <path
           id="path1016"
           style="font-size:2.82222px;stroke-width:0.264583"
           d="m 64.710371,211.62119 h -0.49885 l -0.632519,-0.87368 q -0.07028,0.003 -0.114377,0.003 -0.01791,0 -0.03858,0 -0.02067,-0.001 -0.04272,-0.003 v 0.54295 q 0,0.17639 0.03858,0.2191 0.05237,0.0606 0.157096,0.0606 h 0.07304 v 0.051 h -0.800639 v -0.051 h 0.07028 q 0.118511,0 0.169498,-0.0772 0.02894,-0.0427 0.02894,-0.20257 v -1.20716 q 0,-0.17639 -0.03859,-0.21911 -0.05374,-0.0606 -0.159852,-0.0606 h -0.07028 v -0.051 h 0.68075 q 0.297656,0 0.438216,0.0441 0.141938,0.0427 0.239778,0.15986 0.09922,0.11575 0.09922,0.27698 0,0.17226 -0.112999,0.29904 -0.111621,0.12678 -0.347265,0.17914 l 0.38585,0.53606 q 0.132292,0.18465 0.227376,0.24529 0.09509,0.0606 0.248047,0.0772 z m -1.32705,-0.9605 q 0.02618,0 0.04547,0.001 0.01929,0 0.03169,0 0.267339,0 0.402387,-0.11575 0.136426,-0.11576 0.136426,-0.2949 0,-0.17501 -0.110243,-0.28388 -0.108865,-0.11024 -0.289388,-0.11024 -0.07993,0 -0.216352,0.0262 z" />
        <path
           id="path1018"
           style="font-size:2.82222px;stroke-width:0.264583"
           d="m 66.15042,209.75257 0.02067,0.43821 h -0.05237 q -0.01516,-0.11575 -0.04134,-0.16536 -0.04272,-0.0799 -0.114377,-0.11713 -0.07028,-0.0386 -0.186035,-0.0386 h -0.263206 v 1.42765 q 0,0.17225 0.03721,0.21497 0.05237,0.0579 0.161231,0.0579 h 0.06477 v 0.051 H 64.9846 v -0.051 h 0.06615 q 0.118511,0 0.16812,-0.0717 0.03032,-0.0441 0.03032,-0.20119 v -1.42765 h -0.22462 q -0.130913,0 -0.186035,0.0193 -0.07166,0.0262 -0.122645,0.1006 -0.05099,0.0744 -0.06063,0.20119 h -0.05236 l 0.02205,-0.43821 z" />
        <path
           id="path1020"
           style="font-size:2.82222px;stroke-width:0.264583"
           d="m 67.941868,209.70985 0.04272,0.63527 h -0.04272 q -0.08544,-0.28525 -0.243913,-0.41065 -0.158474,-0.1254 -0.380338,-0.1254 -0.186035,0 -0.336241,0.0951 -0.150206,0.0937 -0.237022,0.30041 -0.08544,0.20671 -0.08544,0.51401 0,0.25356 0.08131,0.43959 0.0813,0.18604 0.243912,0.28526 0.163987,0.0992 0.373448,0.0992 0.181901,0 0.321083,-0.0772 0.139182,-0.0786 0.305924,-0.31006 l 0.04272,0.0276 q -0.140559,0.24942 -0.327972,0.36518 -0.187414,0.11575 -0.445106,0.11575 -0.464399,0 -0.719336,-0.3445 -0.190169,-0.25632 -0.190169,-0.60359 0,-0.27974 0.125401,-0.514 0.125402,-0.23427 0.34451,-0.36243 0.220486,-0.12953 0.480935,-0.12953 0.202571,0 0.39963,0.0992 0.05788,0.0303 0.08268,0.0303 0.03721,0 0.06477,-0.0262 0.03583,-0.0372 0.05099,-0.10335 z" />
      </g>
      <g
         style="font-style:normal;font-variant:normal;font-weight:normal;font-stretch:normal;font-size:4.23333px;line-height:1.25;font-family:'Times New Roman';-inkscape-font-specification:'Times New Roman, ';letter-spacing:0px;word-spacing:0px;fill:#000000;fill-opacity:1;stroke:none;stroke-width:0.264583"
         id="text4824"
         aria-label="VDD3P3_CPU">
        <path
           id="path1023"
           style="font-size:2.82222px;stroke-width:0.264583"
           d="m 80.347797,209.5851 v 0.051 q -0.09922,0.0179 -0.150206,0.0634 -0.07304,0.0675 -0.129535,0.2067 l -0.651812,1.59026 h -0.05099 l -0.700043,-1.61093 q -0.05374,-0.12402 -0.07579,-0.15158 -0.03445,-0.0427 -0.08544,-0.0661 -0.04961,-0.0248 -0.135048,-0.0317 v -0.051 h 0.763433 v 0.051 q -0.129536,0.0124 -0.168121,0.0441 -0.03858,0.0317 -0.03858,0.0813 0,0.0689 0.06339,0.21497 l 0.475423,1.09554 0.440972,-1.08176 q 0.06477,-0.15985 0.06477,-0.22186 0,-0.04 -0.03996,-0.0758 -0.03996,-0.0372 -0.135047,-0.0524 -0.0069,-0.001 -0.02343,-0.004 v -0.051 z" />
        <path
           id="path1025"
           style="font-size:2.82222px;stroke-width:0.264583"
           d="m 80.431858,211.45372 v -0.051 h 0.07028 q 0.118511,0 0.16812,-0.0758 0.03032,-0.0455 0.03032,-0.20395 v -1.20716 q 0,-0.17501 -0.03858,-0.21911 -0.05374,-0.0606 -0.159852,-0.0606 h -0.07028 v -0.051 h 0.760676 q 0.418924,0 0.636653,0.0951 0.219108,0.0951 0.3514,0.31694 0.13367,0.22187 0.13367,0.51263 0,0.38999 -0.237023,0.65182 -0.265961,0.29214 -0.810286,0.29214 z m 0.5333,-0.13505 q 0.175011,0.0386 0.293522,0.0386 0.319705,0 0.530544,-0.22462 0.21084,-0.22462 0.21084,-0.60909 0,-0.38723 -0.21084,-0.61048 -0.210839,-0.22324 -0.541568,-0.22324 -0.124024,0 -0.282498,0.04 z" />
        <path
           id="path1027"
           style="font-size:2.82222px;stroke-width:0.264583"
           d="m 82.471353,211.45372 v -0.051 h 0.07028 q 0.118511,0 0.16812,-0.0758 0.03032,-0.0455 0.03032,-0.20395 v -1.20716 q 0,-0.17501 -0.03858,-0.21911 -0.05374,-0.0606 -0.159852,-0.0606 h -0.07028 v -0.051 h 0.760676 q 0.418924,0 0.636653,0.0951 0.219108,0.0951 0.3514,0.31694 0.13367,0.22187 0.13367,0.51263 0,0.38999 -0.237023,0.65182 -0.265961,0.29214 -0.810286,0.29214 z m 0.5333,-0.13505 q 0.175011,0.0386 0.293522,0.0386 0.319705,0 0.530544,-0.22462 0.21084,-0.22462 0.21084,-0.60909 0,-0.38723 -0.21084,-0.61048 -0.210839,-0.22324 -0.541568,-0.22324 -0.124024,0 -0.282498,0.04 z" />
        <path
           id="path1029"
           style="font-size:2.82222px;stroke-width:0.264583"
           d="m 84.605932,209.94064 q 0.07993,-0.1888 0.201194,-0.29077 0.122645,-0.10335 0.304546,-0.10335 0.22462,0 0.344509,0.14607 0.09095,0.10886 0.09095,0.23289 0,0.20395 -0.256315,0.42168 0.172254,0.0675 0.260449,0.19292 0.08819,0.1254 0.08819,0.2949 0,0.24254 -0.15434,0.4203 -0.201193,0.23151 -0.58291,0.23151 -0.188791,0 -0.257693,-0.0469 -0.06752,-0.0469 -0.06752,-0.1006 0,-0.04 0.03169,-0.0703 0.03307,-0.0303 0.07855,-0.0303 0.03445,0 0.07028,0.011 0.02343,0.007 0.106109,0.051 0.08268,0.0427 0.114377,0.051 0.05099,0.0151 0.108865,0.0151 0.14056,0 0.243913,-0.10886 0.104731,-0.10887 0.104731,-0.25769 0,-0.10887 -0.04823,-0.21222 -0.03583,-0.0772 -0.07855,-0.11714 -0.05925,-0.0551 -0.162608,-0.0992 -0.103353,-0.0455 -0.21084,-0.0455 h -0.0441 v -0.0413 q 0.108865,-0.0138 0.21773,-0.0786 0.110243,-0.0648 0.159852,-0.15572 0.04961,-0.0909 0.04961,-0.19981 0,-0.14194 -0.08957,-0.22876 -0.08819,-0.0882 -0.220486,-0.0882 -0.213596,0 -0.356911,0.22875 z" />
        <path
           id="path1031"
           style="font-size:2.82222px;stroke-width:0.264583"
           d="m 86.452502,210.57867 v 0.54432 q 0,0.17639 0.03858,0.21911 0.05237,0.0606 0.158474,0.0606 h 0.07166 v 0.051 H 85.92058 v -0.051 h 0.07028 q 0.118511,0 0.169498,-0.0772 0.02756,-0.0427 0.02756,-0.20257 v -1.20716 q 0,-0.17639 -0.03721,-0.21911 -0.05374,-0.0606 -0.159852,-0.0606 h -0.07028 v -0.051 h 0.684884 q 0.250803,0 0.395497,0.0524 0.144694,0.051 0.243912,0.17363 0.09922,0.12265 0.09922,0.29077 0,0.22875 -0.151584,0.37207 -0.150206,0.14331 -0.425814,0.14331 -0.06752,0 -0.146071,-0.01 -0.07855,-0.01 -0.168121,-0.0289 z m 0,-0.0785 q 0.07304,0.0138 0.129535,0.0207 0.0565,0.007 0.09646,0.007 0.143316,0 0.246669,-0.11024 0.104731,-0.11162 0.104731,-0.28801 0,-0.12127 -0.04961,-0.22462 -0.04961,-0.10473 -0.14056,-0.15572 -0.09095,-0.0524 -0.206705,-0.0524 -0.07028,0 -0.180523,0.0262 z" />
        <path
           id="path1033"
           style="font-size:2.82222px;stroke-width:0.264583"
           d="m 87.588005,209.94064 q 0.07993,-0.1888 0.201193,-0.29077 0.122645,-0.10335 0.304546,-0.10335 0.22462,0 0.34451,0.14607 0.09095,0.10886 0.09095,0.23289 0,0.20395 -0.256315,0.42168 0.172255,0.0675 0.260449,0.19292 0.08819,0.1254 0.08819,0.2949 0,0.24254 -0.154341,0.4203 -0.201193,0.23151 -0.582909,0.23151 -0.188791,0 -0.257693,-0.0469 -0.06752,-0.0469 -0.06752,-0.1006 0,-0.04 0.03169,-0.0703 0.03307,-0.0303 0.07855,-0.0303 0.03445,0 0.07028,0.011 0.02343,0.007 0.106109,0.051 0.08268,0.0427 0.114377,0.051 0.05099,0.0151 0.108865,0.0151 0.140559,0 0.243912,-0.10886 0.104731,-0.10887 0.104731,-0.25769 0,-0.10887 -0.04823,-0.21222 -0.03583,-0.0772 -0.07855,-0.11714 -0.05926,-0.0551 -0.162609,-0.0992 -0.103353,-0.0455 -0.210839,-0.0455 h -0.0441 v -0.0413 q 0.108865,-0.0138 0.21773,-0.0786 0.110243,-0.0648 0.159853,-0.15572 0.04961,-0.0909 0.04961,-0.19981 0,-0.14194 -0.08957,-0.22876 -0.08819,-0.0882 -0.220485,-0.0882 -0.213596,0 -0.356912,0.22875 z" />
        <path
           id="path1035"
           style="font-size:2.82222px;stroke-width:0.264583"
           d="m 90.291713,212.06281 h -1.459341 v -0.11575 h 1.459341 z" />
        <path
           id="path1037"
           style="font-size:2.82222px;stroke-width:0.264583"
           d="m 91.966028,209.54238 0.04272,0.63528 h -0.04272 q -0.08544,-0.28526 -0.243912,-0.41066 -0.158474,-0.1254 -0.380338,-0.1254 -0.186035,0 -0.336241,0.0951 -0.150206,0.0937 -0.237023,0.30041 -0.08544,0.2067 -0.08544,0.51401 0,0.25355 0.0813,0.43959 0.0813,0.18603 0.243913,0.28525 0.163986,0.0992 0.373448,0.0992 0.181901,0 0.321082,-0.0772 0.139182,-0.0786 0.305925,-0.31006 l 0.04272,0.0276 q -0.14056,0.24943 -0.327973,0.36518 -0.187413,0.11576 -0.445106,0.11576 -0.464399,0 -0.719335,-0.34451 -0.19017,-0.25631 -0.19017,-0.60358 0,-0.27974 0.125402,-0.51401 0.125401,-0.23426 0.344509,-0.36242 0.220486,-0.12954 0.480935,-0.12954 0.202571,0 0.399631,0.0992 0.05788,0.0303 0.08268,0.0303 0.03721,0 0.06477,-0.0262 0.03583,-0.0372 0.05099,-0.10336 z" />
        <path
           id="path1039"
           style="font-size:2.82222px;stroke-width:0.264583"
           d="m 92.730839,210.57867 v 0.54432 q 0,0.17639 0.03858,0.21911 0.05236,0.0606 0.158474,0.0606 h 0.07166 v 0.051 h -0.800639 v -0.051 h 0.07028 q 0.118511,0 0.169498,-0.0772 0.02756,-0.0427 0.02756,-0.20257 v -1.20716 q 0,-0.17639 -0.03721,-0.21911 -0.05374,-0.0606 -0.159852,-0.0606 h -0.07028 v -0.051 h 0.684884 q 0.250803,0 0.395497,0.0524 0.144694,0.051 0.243912,0.17363 0.09922,0.12265 0.09922,0.29077 0,0.22875 -0.151584,0.37207 -0.150206,0.14331 -0.425814,0.14331 -0.06752,0 -0.146071,-0.01 -0.07855,-0.01 -0.168121,-0.0289 z m 0,-0.0785 q 0.07304,0.0138 0.129535,0.0207 0.0565,0.007 0.09646,0.007 0.143316,0 0.246669,-0.11024 0.104731,-0.11162 0.104731,-0.28801 0,-0.12127 -0.04961,-0.22462 -0.04961,-0.10473 -0.14056,-0.15572 -0.09095,-0.0524 -0.206705,-0.0524 -0.07028,0 -0.180523,0.0262 z" />
        <path
           id="path1041"
           style="font-size:2.82222px;stroke-width:0.264583"
           d="m 95.069369,209.63609 v -0.051 h 0.661457 v 0.051 h -0.07028 q -0.110243,0 -0.169499,0.0923 -0.02894,0.0427 -0.02894,0.19843 v 0.75793 q 0,0.28111 -0.0565,0.43683 -0.05512,0.15434 -0.219108,0.26596 -0.162609,0.11025 -0.443728,0.11025 -0.305924,0 -0.464399,-0.10611 -0.158474,-0.10611 -0.22462,-0.28526 -0.0441,-0.12264 -0.0441,-0.46026 v -0.73036 q 0,-0.17225 -0.04823,-0.226 -0.04685,-0.0537 -0.152962,-0.0537 h -0.07028 v -0.051 h 0.807529 v 0.051 h -0.07166 q -0.115756,0 -0.165365,0.073 -0.03445,0.0496 -0.03445,0.2067 v 0.81442 q 0,0.10887 0.01929,0.24943 0.02067,0.14056 0.07304,0.2191 0.05237,0.0786 0.150206,0.12954 0.09922,0.051 0.242534,0.051 0.183279,0 0.327973,-0.0799 0.144694,-0.0799 0.197059,-0.20395 0.05374,-0.1254 0.05374,-0.42306 v -0.75654 q 0,-0.17501 -0.03858,-0.21911 -0.05374,-0.0606 -0.159853,-0.0606 z" />
      </g>
      <g
         style="font-style:normal;font-variant:normal;font-weight:normal;font-stretch:normal;font-size:4.23333px;line-height:1.25;font-family:'Times New Roman';-inkscape-font-specification:'Times New Roman, ';letter-spacing:0px;word-spacing:0px;fill:#000000;fill-opacity:1;stroke:none;stroke-width:0.264583"
         id="text4828"
         aria-label="VDD_SDIOU">
        <path
           id="path1044"
           style="font-size:2.82222px;stroke-width:0.264583"
           d="m 5.4590906,250.27834 v 0.051 q -0.099219,0.0179 -0.1502061,0.0634 -0.073036,0.0675 -0.1295355,0.2067 l -0.6518115,1.59026 h -0.050987 l -0.7000429,-1.61093 q -0.053743,-0.12402 -0.075792,-0.15158 -0.034451,-0.0427 -0.085438,-0.0661 -0.049609,-0.0248 -0.1350477,-0.0317 v -0.051 h 0.7634326 v 0.051 q -0.1295355,0.0124 -0.1681205,0.0441 -0.038585,0.0317 -0.038585,0.0813 0,0.0689 0.06339,0.21497 l 0.4754229,1.09554 0.4409718,-1.08176 q 0.064768,-0.15985 0.064768,-0.22186 0,-0.04 -0.039963,-0.0758 -0.039963,-0.0372 -0.1350476,-0.0524 -0.00689,-0.001 -0.023427,-0.004 v -0.051 z" />
        <path
           id="path1046"
           style="font-size:2.82222px;stroke-width:0.264583"
           d="m 5.5431508,252.14696 v -0.051 h 0.07028 q 0.1185112,0 0.1681206,-0.0758 0.030317,-0.0455 0.030317,-0.20395 v -1.20716 q 0,-0.17501 -0.038585,-0.21911 -0.053743,-0.0606 -0.1598523,-0.0606 h -0.07028 v -0.051 h 0.7606765 q 0.4189233,0 0.6366532,0.0951 0.2191079,0.0951 0.3513995,0.31695 0.1336696,0.22187 0.1336696,0.51263 0,0.38999 -0.2370224,0.65181 -0.2659612,0.29215 -0.8102858,0.29215 z m 0.5333004,-0.13505 q 0.1750107,0.0386 0.2935219,0.0386 0.3197046,0 0.5305443,-0.22462 0.2108397,-0.22462 0.2108397,-0.60909 0,-0.38723 -0.2108397,-0.61047 -0.2108397,-0.22324 -0.5415686,-0.22324 -0.1240233,0 -0.2824976,0.04 z" />
        <path
           id="path1048"
           style="font-size:2.82222px;stroke-width:0.264583"
           d="m 7.5826458,252.14696 v -0.051 h 0.07028 q 0.1185112,0 0.1681206,-0.0758 0.030317,-0.0455 0.030317,-0.20395 v -1.20716 q 0,-0.17501 -0.038585,-0.21911 -0.053743,-0.0606 -0.1598523,-0.0606 h -0.07028 v -0.051 h 0.7606765 q 0.4189233,0 0.6366532,0.0951 0.2191079,0.0951 0.3513995,0.31695 0.1336696,0.22187 0.1336696,0.51263 0,0.38999 -0.2370224,0.65181 -0.2659612,0.29215 -0.8102859,0.29215 z m 0.5333004,-0.13505 q 0.1750107,0.0386 0.2935219,0.0386 0.3197046,0 0.5305443,-0.22462 0.2108397,-0.22462 0.2108397,-0.60909 0,-0.38723 -0.2108397,-0.61047 -0.2108397,-0.22324 -0.5415686,-0.22324 -0.1240233,0 -0.2824976,0.04 z" />
        <path
           id="path1050"
           style="font-size:2.82222px;stroke-width:0.264583"
           d="M 11.009824,252.75605 H 9.5504829 v -0.11576 h 1.4593411 z" />
        <path
           id="path1052"
           style="font-size:2.82222px;stroke-width:0.264583"
           d="m 12.278996,250.23562 v 0.6463 h -0.05099 q -0.02481,-0.18604 -0.08957,-0.29628 -0.06339,-0.11024 -0.181901,-0.17501 -0.118512,-0.0648 -0.245291,-0.0648 -0.143316,0 -0.237022,0.0882 -0.09371,0.0868 -0.09371,0.19843 0,0.0854 0.05926,0.15572 0.08544,0.10336 0.406521,0.27561 0.261827,0.14056 0.356911,0.21635 0.09646,0.0744 0.14745,0.17639 0.05237,0.10198 0.05237,0.2136 0,0.21221 -0.165365,0.36655 -0.163986,0.15297 -0.423057,0.15297 -0.0813,0 -0.152962,-0.0124 -0.04272,-0.007 -0.177767,-0.0496 -0.13367,-0.0441 -0.169499,-0.0441 -0.03445,0 -0.05512,0.0207 -0.01929,0.0207 -0.02894,0.0854 h -0.05099 v -0.64079 h 0.05099 q 0.03583,0.20119 0.09646,0.30179 0.06063,0.0992 0.184657,0.16536 0.125401,0.0661 0.274229,0.0661 0.172255,0 0.271473,-0.0909 0.100597,-0.0909 0.100597,-0.21497 0,-0.0689 -0.03858,-0.13919 -0.03721,-0.0703 -0.117133,-0.13091 -0.05374,-0.0413 -0.293522,-0.17501 -0.239779,-0.13505 -0.341753,-0.21497 -0.100597,-0.0799 -0.152962,-0.17639 -0.05237,-0.0965 -0.05237,-0.21222 0,-0.20119 0.15434,-0.34589 0.154341,-0.14607 0.392741,-0.14607 0.148828,0 0.31557,0.073 0.07717,0.0344 0.108865,0.0344 0.03583,0 0.05788,-0.0207 0.02343,-0.0221 0.03721,-0.0868 z" />
        <path
           id="path1054"
           style="font-size:2.82222px;stroke-width:0.264583"
           d="m 12.604213,252.14696 v -0.051 h 0.07028 q 0.118511,0 0.168121,-0.0758 0.03032,-0.0455 0.03032,-0.20395 v -1.20716 q 0,-0.17501 -0.03858,-0.21911 -0.05374,-0.0606 -0.159852,-0.0606 h -0.07028 v -0.051 h 0.760677 q 0.418923,0 0.636653,0.0951 0.219108,0.0951 0.351399,0.31695 0.13367,0.22187 0.13367,0.51263 0,0.38999 -0.237022,0.65181 -0.265962,0.29215 -0.810286,0.29215 z m 0.533301,-0.13505 q 0.17501,0.0386 0.293521,0.0386 0.319705,0 0.530545,-0.22462 0.210839,-0.22462 0.210839,-0.60909 0,-0.38723 -0.210839,-0.61047 -0.21084,-0.22324 -0.541569,-0.22324 -0.124023,0 -0.282497,0.04 z" />
        <path
           id="path1056"
           style="font-size:2.82222px;stroke-width:0.264583"
           d="m 15.466397,252.09597 v 0.051 h -0.80064 v -0.051 h 0.06615 q 0.115755,0 0.168121,-0.0675 0.03307,-0.0441 0.03307,-0.21222 v -1.20716 q 0,-0.14194 -0.01791,-0.18742 -0.01378,-0.0344 -0.0565,-0.0592 -0.06063,-0.0331 -0.126779,-0.0331 h -0.06615 v -0.051 h 0.80064 v 0.051 h -0.06752 q -0.114377,0 -0.166742,0.0675 -0.03445,0.0441 -0.03445,0.21222 v 1.20716 q 0,0.14194 0.01791,0.18741 0.01378,0.0345 0.05788,0.0593 0.05926,0.0331 0.125401,0.0331 z" />
        <path
           id="path1058"
           style="font-size:2.82222px;stroke-width:0.264583"
           d="m 16.570205,250.23562 q 0.363801,0 0.629763,0.27699 0.267339,0.2756 0.267339,0.68901 0,0.42582 -0.268718,0.70694 -0.268717,0.28112 -0.650433,0.28112 -0.38585,0 -0.649056,-0.27423 -0.261827,-0.27423 -0.261827,-0.70969 0,-0.44511 0.303169,-0.72623 0.263205,-0.24391 0.629763,-0.24391 z m -0.02618,0.1006 q -0.250803,0 -0.402387,0.18603 -0.188791,0.23151 -0.188791,0.678 0,0.4575 0.195681,0.70417 0.150206,0.18742 0.396875,0.18742 0.263205,0 0.434082,-0.20533 0.172254,-0.20533 0.172254,-0.64768 0,-0.47956 -0.188791,-0.7152 -0.151584,-0.18741 -0.418923,-0.18741 z" />
        <path
           id="path1060"
           style="font-size:2.82222px;stroke-width:0.264583"
           d="m 18.923892,250.32933 v -0.051 h 0.661457 v 0.051 h -0.07028 q -0.110243,0 -0.169498,0.0923 -0.02894,0.0427 -0.02894,0.19844 v 0.75792 q 0,0.28112 -0.0565,0.43684 -0.05512,0.15434 -0.219108,0.26596 -0.162609,0.11024 -0.443728,0.11024 -0.305925,0 -0.464399,-0.1061 -0.158474,-0.10611 -0.22462,-0.28526 -0.0441,-0.12264 -0.0441,-0.46026 v -0.73036 q 0,-0.17226 -0.04823,-0.226 -0.04685,-0.0537 -0.152962,-0.0537 h -0.07028 v -0.051 h 0.807529 v 0.051 h -0.07166 q -0.115755,0 -0.165364,0.073 -0.03445,0.0496 -0.03445,0.20671 v 0.81442 q 0,0.10886 0.01929,0.24942 0.02067,0.14056 0.07304,0.21911 0.05237,0.0786 0.150206,0.12954 0.09922,0.051 0.242534,0.051 0.183279,0 0.327973,-0.0799 0.144694,-0.0799 0.197059,-0.20395 0.05374,-0.1254 0.05374,-0.42306 v -0.75654 q 0,-0.17501 -0.03859,-0.21911 -0.05374,-0.0606 -0.159853,-0.0606 z" />
      </g>
      <g
         style="font-style:normal;font-variant:normal;font-weight:normal;font-stretch:normal;font-size:4.23333px;line-height:1.25;font-family:'Times New Roman';-inkscape-font-specification:'Times New Roman, ';letter-spacing:0px;word-spacing:0px;fill:#000000;fill-opacity:1;stroke:none;stroke-width:0.264583"
         id="text4832"
         aria-label="3.3V/1.8V">
        <path
           id="path1063"
           style="font-size:2.82222px;stroke-width:0.264583"
           d="m 3.5987404,255.39634 q 0.079926,-0.18879 0.2011934,-0.29077 0.1226453,-0.10335 0.3045462,-0.10335 0.2246201,0 0.3445093,0.14607 0.09095,0.10887 0.09095,0.23289 0,0.20395 -0.2563149,0.42168 0.1722546,0.0675 0.260449,0.19293 0.088194,0.1254 0.088194,0.2949 0,0.24253 -0.1543402,0.4203 -0.2011934,0.23151 -0.5829097,0.23151 -0.1887911,0 -0.2576929,-0.0469 -0.067524,-0.0469 -0.067524,-0.10059 0,-0.04 0.031695,-0.0703 0.033073,-0.0303 0.078548,-0.0303 0.034451,0 0.07028,0.011 0.023427,0.007 0.1061089,0.051 0.082682,0.0427 0.114377,0.051 0.050987,0.0152 0.108865,0.0152 0.1405598,0 0.2439126,-0.10887 0.1047308,-0.10886 0.1047308,-0.25769 0,-0.10887 -0.048231,-0.21222 -0.035829,-0.0772 -0.078548,-0.11713 -0.059256,-0.0551 -0.1626084,-0.0992 -0.1033528,-0.0455 -0.2108397,-0.0455 h -0.044097 v -0.0413 q 0.1088649,-0.0138 0.2177299,-0.0785 0.1102429,-0.0648 0.1598523,-0.15572 0.049609,-0.0909 0.049609,-0.19982 0,-0.14194 -0.089572,-0.22875 -0.088194,-0.0882 -0.2204859,-0.0882 -0.2135958,0 -0.3569117,0.22876 z" />
        <path
           id="path1065"
           style="font-size:2.82222px;stroke-width:0.264583"
           d="m 5.2193121,256.64208 q 0.064768,0 0.1088649,0.0455 0.044097,0.0441 0.044097,0.10749 0,0.0634 -0.045475,0.10886 -0.044097,0.0441 -0.1074869,0.0441 -0.06339,0 -0.1088649,-0.0441 -0.044097,-0.0455 -0.044097,-0.10886 0,-0.0648 0.044097,-0.10887 0.045475,-0.0441 0.1088649,-0.0441 z" />
        <path
           id="path1067"
           style="font-size:2.82222px;stroke-width:0.264583"
           d="m 5.7154055,255.39634 q 0.079926,-0.18879 0.2011935,-0.29077 0.1226453,-0.10335 0.3045462,-0.10335 0.22462,0 0.3445093,0.14607 0.09095,0.10887 0.09095,0.23289 0,0.20395 -0.2563149,0.42168 0.1722546,0.0675 0.260449,0.19293 0.088194,0.1254 0.088194,0.2949 0,0.24253 -0.1543402,0.4203 -0.2011934,0.23151 -0.5829097,0.23151 -0.1887911,0 -0.2576929,-0.0469 -0.067524,-0.0469 -0.067524,-0.10059 0,-0.04 0.031695,-0.0703 0.033073,-0.0303 0.078548,-0.0303 0.034451,0 0.07028,0.011 0.023427,0.007 0.1061089,0.051 0.082682,0.0427 0.1143771,0.051 0.050987,0.0152 0.1088649,0.0152 0.1405598,0 0.2439126,-0.10887 0.1047308,-0.10886 0.1047308,-0.25769 0,-0.10887 -0.048231,-0.21222 -0.035829,-0.0772 -0.078548,-0.11713 -0.059256,-0.0551 -0.1626084,-0.0992 -0.1033528,-0.0455 -0.2108397,-0.0455 h -0.044097 v -0.0413 q 0.108865,-0.0138 0.2177299,-0.0785 0.110243,-0.0648 0.1598523,-0.15572 0.049609,-0.0909 0.049609,-0.19982 0,-0.14194 -0.089572,-0.22875 -0.088194,-0.0882 -0.2204859,-0.0882 -0.2135958,0 -0.3569116,0.22876 z" />
        <path
           id="path1069"
           style="font-size:2.82222px;stroke-width:0.264583"
           d="m 8.9868656,255.04081 v 0.051 q -0.099219,0.0179 -0.150206,0.0634 -0.073036,0.0675 -0.1295355,0.20671 l -0.6518116,1.59025 h -0.050987 l -0.7000428,-1.61092 q -0.053743,-0.12403 -0.075792,-0.15159 -0.034451,-0.0427 -0.085438,-0.0661 -0.049609,-0.0248 -0.1350476,-0.0317 v -0.051 h 0.7634325 v 0.051 q -0.1295354,0.0124 -0.1681205,0.0441 -0.038585,0.0317 -0.038585,0.0813 0,0.0689 0.06339,0.21498 l 0.4754228,1.09554 0.4409719,-1.08176 q 0.064768,-0.15985 0.064768,-0.22187 0,-0.04 -0.039963,-0.0758 -0.039963,-0.0372 -0.1350477,-0.0524 -0.00689,-0.001 -0.023427,-0.004 v -0.051 z" />
        <path
           id="path1071"
           style="font-size:2.82222px;stroke-width:0.264583"
           d="m 9.8136882,254.94985 -0.6766163,1.99816 h -0.110243 l 0.6766163,-1.99816 z" />
        <path
           id="path1073"
           style="font-size:2.82222px;stroke-width:0.264583"
           d="m 10.136149,255.22408 0.454752,-0.22186 h 0.04547 v 1.57785 q 0,0.1571 0.0124,0.19568 0.01378,0.0386 0.05512,0.0593 0.04134,0.0207 0.16812,0.0234 v 0.051 h -0.702799 v -0.051 q 0.132292,-0.003 0.170877,-0.022 0.03859,-0.0207 0.05374,-0.0537 0.01516,-0.0344 0.01516,-0.20257 v -1.00872 q 0,-0.20395 -0.01378,-0.26183 -0.0096,-0.0441 -0.03583,-0.0648 -0.02481,-0.0207 -0.06063,-0.0207 -0.05099,0 -0.141938,0.0427 z" />
        <path
           id="path1075"
           style="font-size:2.82222px;stroke-width:0.264583"
           d="m 11.569307,256.64208 q 0.06477,0 0.108865,0.0455 0.0441,0.0441 0.0441,0.10749 0,0.0634 -0.04548,0.10886 -0.0441,0.0441 -0.107487,0.0441 -0.06339,0 -0.108865,-0.0441 -0.0441,-0.0455 -0.0441,-0.10886 0,-0.0648 0.0441,-0.10887 0.04547,-0.0441 0.108865,-0.0441 z" />
        <path
           id="path1077"
           style="font-size:2.82222px;stroke-width:0.264583"
           d="m 12.463654,255.96822 q -0.221864,-0.1819 -0.286632,-0.29214 -0.06339,-0.11024 -0.06339,-0.22875 0,-0.1819 0.14056,-0.31282 0.14056,-0.13229 0.373448,-0.13229 0.225998,0 0.363802,0.12265 0.137804,0.12264 0.137804,0.27974 0,0.10473 -0.07441,0.21359 -0.07441,0.10887 -0.310059,0.25632 0.242535,0.18741 0.321083,0.2949 0.104731,0.14056 0.104731,0.29628 0,0.19706 -0.150206,0.33761 -0.150206,0.13919 -0.394119,0.13919 -0.265961,0 -0.414789,-0.16675 -0.118511,-0.13367 -0.118511,-0.29214 0,-0.12402 0.08268,-0.24529 0.08406,-0.12265 0.28801,-0.2701 z m 0.216351,-0.14745 q 0.165365,-0.14882 0.209462,-0.23426 0.0441,-0.0868 0.0441,-0.19568 0,-0.1447 -0.0813,-0.226 -0.0813,-0.0827 -0.221864,-0.0827 -0.14056,0 -0.228754,0.0813 -0.08819,0.0813 -0.08819,0.19017 0,0.0717 0.03583,0.14332 0.03721,0.0717 0.10473,0.13642 z m -0.151584,0.19982 q -0.114377,0.0965 -0.169498,0.21084 -0.05512,0.113 -0.05512,0.24529 0,0.17777 0.09646,0.28525 0.09784,0.10611 0.248047,0.10611 0.148828,0 0.2384,-0.0841 0.08957,-0.0841 0.08957,-0.20395 0,-0.0992 -0.05236,-0.17776 -0.09784,-0.14608 -0.395497,-0.38172 z" />
        <path
           id="path1079"
           style="font-size:2.82222px;stroke-width:0.264583"
           d="m 15.336861,255.04081 v 0.051 q -0.09922,0.0179 -0.150206,0.0634 -0.07304,0.0675 -0.129536,0.20671 l -0.651811,1.59025 h -0.05099 l -0.700043,-1.61092 q -0.05374,-0.12403 -0.07579,-0.15159 -0.03445,-0.0427 -0.08544,-0.0661 -0.04961,-0.0248 -0.135047,-0.0317 v -0.051 h 0.763432 v 0.051 q -0.129535,0.0124 -0.16812,0.0441 -0.03859,0.0317 -0.03859,0.0813 0,0.0689 0.06339,0.21498 l 0.475423,1.09554 0.440972,-1.08176 q 0.06477,-0.15985 0.06477,-0.22187 0,-0.04 -0.03996,-0.0758 -0.03996,-0.0372 -0.135048,-0.0524 -0.0069,-0.001 -0.02343,-0.004 v -0.051 z" />
      </g>
      <g
         style="font-style:normal;font-variant:normal;font-weight:normal;font-stretch:normal;font-size:4.23333px;line-height:1.25;font-family:'Times New Roman';-inkscape-font-specification:'Times New Roman, ';letter-spacing:0px;word-spacing:0px;fill:#000000;fill-opacity:1;stroke:none;stroke-width:0.264583"
         id="text4836"
         aria-label="1.8V">
        <path
           id="path1082"
           style="font-size:2.82222px;stroke-width:0.264583"
           d="m 21.777819,235.64517 0.454752,-0.22187 h 0.04548 v 1.57785 q 0,0.1571 0.0124,0.19569 0.01378,0.0386 0.05512,0.0592 0.04134,0.0207 0.168121,0.0234 v 0.051 h -0.702799 v -0.051 q 0.132292,-0.003 0.170877,-0.022 0.03859,-0.0207 0.05374,-0.0537 0.01516,-0.0345 0.01516,-0.20258 v -1.00872 q 0,-0.20395 -0.01378,-0.26183 -0.0096,-0.0441 -0.03583,-0.0648 -0.02481,-0.0207 -0.06063,-0.0207 -0.05099,0 -0.141937,0.0427 z" />
        <path
           id="path1084"
           style="font-size:2.82222px;stroke-width:0.264583"
           d="m 23.210978,237.06317 q 0.06477,0 0.108865,0.0455 0.0441,0.0441 0.0441,0.10749 0,0.0634 -0.04547,0.10886 -0.0441,0.0441 -0.107487,0.0441 -0.06339,0 -0.108865,-0.0441 -0.0441,-0.0455 -0.0441,-0.10886 0,-0.0648 0.0441,-0.10887 0.04547,-0.0441 0.108865,-0.0441 z" />
        <path
           id="path1086"
           style="font-size:2.82222px;stroke-width:0.264583"
           d="m 24.105324,236.38931 q -0.221864,-0.1819 -0.286632,-0.29215 -0.06339,-0.11024 -0.06339,-0.22875 0,-0.1819 0.14056,-0.31282 0.14056,-0.13229 0.373448,-0.13229 0.225998,0 0.363802,0.12265 0.137804,0.12264 0.137804,0.27974 0,0.10473 -0.07441,0.21359 -0.07441,0.10887 -0.310059,0.25632 0.242535,0.18741 0.321083,0.2949 0.104731,0.14056 0.104731,0.29628 0,0.19706 -0.150206,0.33762 -0.150206,0.13918 -0.394119,0.13918 -0.265961,0 -0.414789,-0.16674 -0.118511,-0.13367 -0.118511,-0.29215 0,-0.12402 0.08268,-0.24529 0.08406,-0.12264 0.28801,-0.27009 z m 0.216352,-0.14745 q 0.165364,-0.14883 0.209461,-0.23427 0.0441,-0.0868 0.0441,-0.19568 0,-0.1447 -0.08131,-0.226 -0.0813,-0.0827 -0.221864,-0.0827 -0.140559,0 -0.228754,0.0813 -0.08819,0.0813 -0.08819,0.19017 0,0.0717 0.03583,0.14332 0.03721,0.0717 0.104731,0.13642 z m -0.151584,0.19981 q -0.114377,0.0965 -0.169499,0.21084 -0.05512,0.113 -0.05512,0.24529 0,0.17777 0.09646,0.28526 0.09784,0.1061 0.248047,0.1061 0.148828,0 0.2384,-0.0841 0.08957,-0.0841 0.08957,-0.20395 0,-0.0992 -0.05237,-0.17776 -0.09784,-0.14607 -0.395496,-0.38172 z" />
        <path
           id="path1088"
           style="font-size:2.82222px;stroke-width:0.264583"
           d="m 26.978531,235.46189 v 0.051 q -0.09922,0.0179 -0.150206,0.0634 -0.07304,0.0675 -0.129535,0.20671 l -0.651812,1.59025 h -0.05099 l -0.700043,-1.61092 q -0.05374,-0.12402 -0.07579,-0.15158 -0.03445,-0.0427 -0.08544,-0.0661 -0.04961,-0.0248 -0.135048,-0.0317 v -0.051 h 0.763432 v 0.051 q -0.129535,0.0124 -0.16812,0.0441 -0.03859,0.0317 -0.03859,0.0813 0,0.0689 0.06339,0.21497 l 0.475422,1.09554 0.440972,-1.08176 q 0.06477,-0.15985 0.06477,-0.22186 0,-0.04 -0.03996,-0.0758 -0.03996,-0.0372 -0.135048,-0.0524 -0.0069,-0.001 -0.02343,-0.004 v -0.051 z" />
      </g>
      <g
         style="font-style:normal;font-variant:normal;font-weight:normal;font-stretch:normal;font-size:4.23333px;line-height:1.25;font-family:'Times New Roman';-inkscape-font-specification:'Times New Roman, ';letter-spacing:0px;word-spacing:0px;fill:#000000;fill-opacity:1;stroke:none;stroke-width:0.264583"
         id="text4840"
         aria-label="1.1V">
        <path
           id="path1091"
           style="font-size:2.82222px;stroke-width:0.264583"
           d="m 48.765345,235.64517 0.454752,-0.22187 h 0.04547 v 1.57785 q 0,0.1571 0.0124,0.19569 0.01378,0.0386 0.05512,0.0592 0.04134,0.0207 0.168121,0.0234 v 0.051 h -0.702799 v -0.051 q 0.132291,-0.003 0.170877,-0.022 0.03858,-0.0207 0.05374,-0.0537 0.01516,-0.0345 0.01516,-0.20258 v -1.00872 q 0,-0.20395 -0.01378,-0.26183 -0.0096,-0.0441 -0.03583,-0.0648 -0.02481,-0.0207 -0.06063,-0.0207 -0.05099,0 -0.141937,0.0427 z" />
        <path
           id="path1093"
           style="font-size:2.82222px;stroke-width:0.264583"
           d="m 50.198504,237.06317 q 0.06477,0 0.108865,0.0455 0.0441,0.0441 0.0441,0.10749 0,0.0634 -0.04548,0.10886 -0.0441,0.0441 -0.107487,0.0441 -0.06339,0 -0.108865,-0.0441 -0.0441,-0.0455 -0.0441,-0.10886 0,-0.0648 0.0441,-0.10887 0.04548,-0.0441 0.108865,-0.0441 z" />
        <path
           id="path1095"
           style="font-size:2.82222px;stroke-width:0.264583"
           d="m 50.88201,235.64517 0.454752,-0.22187 h 0.04548 v 1.57785 q 0,0.1571 0.0124,0.19569 0.01378,0.0386 0.05512,0.0592 0.04134,0.0207 0.168121,0.0234 v 0.051 h -0.702799 v -0.051 q 0.132292,-0.003 0.170877,-0.022 0.03858,-0.0207 0.05374,-0.0537 0.01516,-0.0345 0.01516,-0.20258 v -1.00872 q 0,-0.20395 -0.01378,-0.26183 -0.0096,-0.0441 -0.03583,-0.0648 -0.02481,-0.0207 -0.06063,-0.0207 -0.05099,0 -0.141938,0.0427 z" />
        <path
           id="path1097"
           style="font-size:2.82222px;stroke-width:0.264583"
           d="m 53.966057,235.46189 v 0.051 q -0.09922,0.0179 -0.150206,0.0634 -0.07304,0.0675 -0.129535,0.20671 l -0.651812,1.59025 h -0.05099 l -0.700043,-1.61092 q -0.05374,-0.12402 -0.07579,-0.15158 -0.03445,-0.0427 -0.08544,-0.0661 -0.04961,-0.0248 -0.135047,-0.0317 v -0.051 h 0.763432 v 0.051 q -0.129535,0.0124 -0.16812,0.0441 -0.03858,0.0317 -0.03858,0.0813 0,0.0689 0.06339,0.21497 l 0.475422,1.09554 0.440972,-1.08176 q 0.06477,-0.15985 0.06477,-0.22186 0,-0.04 -0.03996,-0.0758 -0.03996,-0.0372 -0.135048,-0.0524 -0.0069,-0.001 -0.02343,-0.004 v -0.051 z" />
      </g>
      <g
         style="font-style:normal;font-variant:normal;font-weight:normal;font-stretch:normal;font-size:4.23333px;line-height:1.25;font-family:'Times New Roman';-inkscape-font-specification:'Times New Roman, ';letter-spacing:0px;word-spacing:0px;fill:#000000;fill-opacity:1;stroke:none;stroke-width:0.264583"
         id="text4844"
         aria-label="1.1V">
        <path
           id="path1100"
           style="font-size:2.82222px;stroke-width:0.264583"
           d="m 74.165369,235.64517 0.454753,-0.22187 h 0.04548 v 1.57785 q 0,0.1571 0.0124,0.19569 0.01378,0.0386 0.05512,0.0592 0.04134,0.0207 0.16812,0.0234 v 0.051 h -0.702799 v -0.051 q 0.132292,-0.003 0.170877,-0.022 0.03858,-0.0207 0.05374,-0.0537 0.01516,-0.0345 0.01516,-0.20258 v -1.00872 q 0,-0.20395 -0.01378,-0.26183 -0.0096,-0.0441 -0.03583,-0.0648 -0.0248,-0.0207 -0.06063,-0.0207 -0.05099,0 -0.141938,0.0427 z" />
        <path
           id="path1102"
           style="font-size:2.82222px;stroke-width:0.264583"
           d="m 75.598528,237.06317 q 0.06477,0 0.108865,0.0455 0.0441,0.0441 0.0441,0.10749 0,0.0634 -0.04548,0.10886 -0.0441,0.0441 -0.107487,0.0441 -0.06339,0 -0.108865,-0.0441 -0.0441,-0.0455 -0.0441,-0.10886 0,-0.0648 0.0441,-0.10887 0.04548,-0.0441 0.108865,-0.0441 z" />
        <path
           id="path1104"
           style="font-size:2.82222px;stroke-width:0.264583"
           d="m 76.282035,235.64517 0.454752,-0.22187 h 0.04547 v 1.57785 q 0,0.1571 0.0124,0.19569 0.01378,0.0386 0.05512,0.0592 0.04134,0.0207 0.16812,0.0234 v 0.051 h -0.702799 v -0.051 q 0.132292,-0.003 0.170877,-0.022 0.03858,-0.0207 0.05374,-0.0537 0.01516,-0.0345 0.01516,-0.20258 v -1.00872 q 0,-0.20395 -0.01378,-0.26183 -0.0096,-0.0441 -0.03583,-0.0648 -0.02481,-0.0207 -0.06063,-0.0207 -0.05099,0 -0.141938,0.0427 z" />
        <path
           id="path1106"
           style="font-size:2.82222px;stroke-width:0.264583"
           d="m 79.366082,235.46189 v 0.051 q -0.09922,0.0179 -0.150206,0.0634 -0.07304,0.0675 -0.129536,0.20671 l -0.651812,1.59025 h -0.05099 l -0.700043,-1.61092 q -0.05374,-0.12402 -0.07579,-0.15158 -0.03445,-0.0427 -0.08544,-0.0661 -0.04961,-0.0248 -0.135048,-0.0317 v -0.051 h 0.763433 v 0.051 q -0.129536,0.0124 -0.168121,0.0441 -0.03859,0.0317 -0.03859,0.0813 0,0.0689 0.06339,0.21497 l 0.475423,1.09554 0.440972,-1.08176 q 0.06477,-0.15985 0.06477,-0.22186 0,-0.04 -0.03996,-0.0758 -0.03996,-0.0372 -0.135047,-0.0524 -0.0069,-0.001 -0.02343,-0.004 v -0.051 z" />
      </g>
    </g>
  </g>
</svg>
