<?xml version="1.0" encoding="UTF-8" standalone="no"?>
<svg
   xmlns:dc="http://purl.org/dc/elements/1.1/"
   xmlns:cc="http://creativecommons.org/ns#"
   xmlns:rdf="http://www.w3.org/1999/02/22-rdf-syntax-ns#"
   xmlns:svg="http://www.w3.org/2000/svg"
   xmlns="http://www.w3.org/2000/svg"
   xmlns:sodipodi="http://sodipodi.sourceforge.net/DTD/sodipodi-0.dtd"
   xmlns:inkscape="http://www.inkscape.org/namespaces/inkscape"
   inkscape:version="1.0 (4035a4fb49, 2020-05-01)"
   sodipodi:docname="Espressif_ESP-WROOM-32_Shield_FCC.svg"
   id="svg92"
   version="1.1"
   viewBox="0 0 51.02 72.28"
   height="72.28"
   width="51.02">
  <metadata
     id="metadata98">
    <rdf:RDF>
      <cc:Work
         rdf:about="">
        <dc:format>image/svg+xml</dc:format>
        <dc:type
           rdf:resource="http://purl.org/dc/dcmitype/StillImage" />
      </cc:Work>
    </rdf:RDF>
  </metadata>
  <defs
     id="defs96" />
  <sodipodi:namedview
     inkscape:current-layer="svg92"
     inkscape:window-maximized="1"
     inkscape:window-y="-8"
     inkscape:window-x="-8"
     inkscape:cy="36.142"
     inkscape:cx="7.5740211"
     inkscape:zoom="9.504178"
     showgrid="false"
     id="namedview94"
     inkscape:window-height="877"
     inkscape:window-width="1600"
     inkscape:pageshadow="2"
     inkscape:pageopacity="0"
     guidetolerance="10"
     gridtolerance="10"
     objecttolerance="10"
     borderopacity="1"
     bordercolor="#666666"
     pagecolor="#ffffff" />
  <path
     inkscape:export-ydpi="1926.51"
     inkscape:export-xdpi="1926.51"
     id="path2"
     d="M51.023 20.364V0H0v20.364a.893.893 0 0 1 0 1.786v1.814a.893.893 0 0 1 0 1.786v1.814a.893.893 0 0 1 0 1.786v1.814a.893.893 0 0 1 0 1.786v1.814a.893.893 0 0 1 0 1.785v1.814a.893.893 0 0 1 0 1.786v1.813a.894.894 0 0 1 0 1.787v1.814a.893.893 0 1 1 0 1.787v1.812a.893.893 0 0 1 0 1.786v1.814a.893.893 0 0 1 0 1.786v1.814a.893.893 0 1 1 0 1.787v1.814a.893.893 0 0 1 0 1.786v1.814a.893.893 0 1 1 0 1.787v1.813a.893.893 0 1 1 0 1.787v3.334h8.419a.893.893 0 1 1 1.787 0h1.813a.893.893 0 1 1 1.787 0h1.814a.893.893 0 1 1 1.786 0h1.814a.893.893 0 1 1 1.787 0h1.814a.893.893 0 1 1 1.786 0h1.814a.892.892 0 1 1 1.786 0h1.812a.893.893 0 1 1 1.788 0h1.814a.893.893 0 1 1 1.786 0h1.814a.893.893 0 1 1 1.786 0h1.814a.893.893 0 1 1 1.786 0h8.42V68.95a.894.894 0 0 1 0-1.787V65.35a.894.894 0 0 1 0-1.787v-1.814a.893.893 0 1 1 0-1.786v-1.814a.894.894 0 0 1 0-1.787v-1.814a.893.893 0 1 1 0-1.786v-1.814a.893.893 0 0 1 0-1.787V47.35a.894.894 0 0 1 0-1.787v-1.814a.893.893 0 0 1 0-1.787v-1.813a.893.893 0 0 1 0-1.787v-1.814a.892.892 0 1 1 0-1.785V32.95a.893.893 0 0 1 0-1.786V29.35a.893.893 0 0 1 0-1.786V25.75a.893.893 0 0 1 0-1.786V22.15a.893.893 0 0 1-.004-1.786z"
     fill="#231F20" />
  <g
     inkscape:export-ydpi="1926.51"
     inkscape:export-xdpi="1926.51"
     id="g8"
     stroke-miterlimit="10"
     stroke-linejoin="round"
     stroke-linecap="round"
     stroke="#414242"
     fill="none">
    <path
       id="path4"
       d="M36.625 15.741c0 1.861-1.52 3.613-2.764 4.244"
       stroke-width=".998" />
    <path
       id="path6"
       d="M44.402 17.783v-.602l-1.439-1.44M42.963 15.741l-1.442 1.44v.602M42.963 15.741v2.042"
       stroke-width="1.44" />
  </g>
  <path
     inkscape:export-ydpi="1926.51"
     inkscape:export-xdpi="1926.51"
     id="path10"
     d="M43.488 2.203h-1.055v13.886h1.055V2.203m0-.003v-.698H30.037v7.293a.36.36 0 0 1-.361.36h-5.669a.36.36 0 0 1-.361-.36V1.502H16.43v7.293a.36.36 0 0 1-.36.36H10.4a.36.36 0 0 1-.36-.36V1.502H3.107v12.526h.697V2.56a.36.36 0 0 1 .36-.36h4.819a.36.36 0 0 1 .36.36v7.293h7.783V2.56a.36.36 0 0 1 .36-.36h5.103a.36.36 0 0 1 .36.36v7.293h7.785V2.56c0-.199.16-.36.361-.36h4.816a.36.36 0 0 1 .361.36v13.529h.695V2.56a.363.363 0 0 1 .363-.36h6.158"
     fill="#414242" />
  <path
     inkscape:export-ydpi="1926.51"
     inkscape:export-xdpi="1926.51"
     id="path12"
     d="M43.488 2.203h-1.055v13.886h1.055V2.203m0-.003v-.698H30.037v7.293a.36.36 0 0 1-.361.36h-5.669a.36.36 0 0 1-.361-.36V1.502H16.43v7.293a.36.36 0 0 1-.36.36H10.4a.36.36 0 0 1-.36-.36V1.502H3.107v12.526h.697V2.56a.36.36 0 0 1 .36-.36h4.819a.36.36 0 0 1 .36.36v7.293h7.783V2.56a.36.36 0 0 1 .36-.36h5.103a.36.36 0 0 1 .36.36v7.293h7.785V2.56c0-.199.16-.36.361-.36h4.816a.36.36 0 0 1 .361.36v13.529h.695V2.56a.363.363 0 0 1 .363-.36h6.158"
     stroke-miterlimit="10"
     stroke-linejoin="round"
     stroke-linecap="round"
     stroke-width=".72"
     stroke="#414242"
     fill="none" />
  <path
     inkscape:export-ydpi="1926.51"
     inkscape:export-xdpi="1926.51"
     id="path14"
     d="M50.412 17.138a.108.108 0 0 0-.109-.108h-6.557a.1.1 0 0 0-.025.003.956.956 0 0 1-.232.028h-1.055c-.078 0-.156-.01-.232-.028a.113.113 0 0 0-.025-.003h-4.412a.11.11 0 0 0-.104.079 5.054 5.054 0 0 1-1.057 1.953c-.043.05-3.107-.009-3.107-.009s2.42-2.023.803-2.023H.722a.108.108 0 0 0-.108.108v3.475c.171.163.281.389.281.644s-.109.481-.281.644v.771c0 .059.048.108.108.108h.933c.1 0 .18.081.18.18v.192c0 .014.003.028.008.042a.602.602 0 0 1 .047.233v2.551c0 .08-.016.16-.047.234a.115.115 0 0 0-.008.041v.5c0 .014.003.028.008.041a.604.604 0 0 1 .047.234v2.551c0 .08-.016.159-.047.233a.115.115 0 0 0-.008.041v.5c0 .014.003.028.008.042a.607.607 0 0 1 .047.234v2.551c0 .08-.016.159-.047.233a.115.115 0 0 0-.008.041v.5c0 .014.003.028.008.041a.604.604 0 0 1 .047.234v2.55c0 .08-.016.16-.047.234a.107.107 0 0 0-.008.041v.499c0 .014.003.028.008.042a.594.594 0 0 1 .047.232v2.551c0 .081-.016.16-.047.234a.115.115 0 0 0-.008.041v.499c0 .014.003.028.008.041a.606.606 0 0 1 .047.233v2.553c0 .08-.016.16-.047.234a.1.1 0 0 0-.008.039v.501a.12.12 0 0 0 .008.041.593.593 0 0 1 .047.231v2.553a.606.606 0 0 1-.047.233.12.12 0 0 0-.008.041v.499c0 .016.003.029.008.041a.607.607 0 0 1 .047.234v2.552a.596.596 0 0 1-.047.231.122.122 0 0 0-.008.043v.499a.12.12 0 0 0 .008.041.6.6 0 0 1 .047.234v2.55c0 .08-.016.16-.047.234a.12.12 0 0 0-.008.041v.499a.11.11 0 0 0 .008.041.606.606 0 0 1 .047.233v2.553c0 .08-.016.157-.047.231a.122.122 0 0 0-.008.043v.499a.12.12 0 0 0 .008.041.6.6 0 0 1 .047.234v2.55a.59.59 0 0 1-.047.232.122.122 0 0 0-.008.043v.499a.12.12 0 0 0 .008.041.599.599 0 0 1 .047.233v2.55a.6.6 0 0 1-.047.234.12.12 0 0 0-.008.041v.526c0 .012.002.025.007.037a.61.61 0 0 1 .038.211v2.552a.618.618 0 0 1-.047.242.184.184 0 0 1-.05.094c-.005.004-.008.01-.012.014a.61.61 0 0 1-.502.264H.721a.108.108 0 0 0-.108.106v1.537c0 .061.048.108.108.108h8.118c.139-.088.293-.152.47-.152s.331.064.47.152h.943c.06 0 .108-.048.108-.108v-.81a.18.18 0 0 1 .18-.182h.115a.113.113 0 0 0 .071-.024.61.61 0 0 1 .402-.152h2.551c.147 0 .29.055.402.152.02.017.045.024.07.024h.104a.113.113 0 0 0 .071-.024.607.607 0 0 1 .402-.152h2.551a.61.61 0 0 1 .401.152c.02.017.045.024.071.024h.104a.108.108 0 0 0 .07-.024.607.607 0 0 1 .402-.152h2.551a.61.61 0 0 1 .401.152c.02.017.045.024.071.024h.104a.113.113 0 0 0 .071-.024.607.607 0 0 1 .401-.152h2.551c.148 0 .291.055.402.152.02.017.045.024.071.024h.103a.11.11 0 0 0 .071-.024.605.605 0 0 1 .402-.152h2.552c.146 0 .289.055.4.152a.11.11 0 0 0 .072.024h.104a.11.11 0 0 0 .07-.024.607.607 0 0 1 .402-.152h2.551c.148 0 .291.055.402.152.02.017.045.024.07.024h.104a.112.112 0 0 0 .072-.024.604.604 0 0 1 .402-.152h2.549c.148 0 .291.055.402.152.02.017.045.024.072.024h.104a.11.11 0 0 0 .07-.024.599.599 0 0 1 .4-.152h2.553c.146 0 .291.055.402.152a.098.098 0 0 0 .068.024h.104a.112.112 0 0 0 .072-.024.606.606 0 0 1 .4-.152h2.553a.61.61 0 0 1 .41.16c.012.011.199.046.215.05a.18.18 0 0 1 .135.176l-.006.782c0 .061.047.108.105.108h6.494a.108.108 0 0 0 .109-.108v-1.537a.108.108 0 0 0-.109-.106h-.549a.62.62 0 0 1-.383-.133.083.083 0 0 0-.049-.021.184.184 0 0 1-.152-.18v-.074c0-.01-.002-.02-.004-.029a.574.574 0 0 1-.025-.175v-2.552c0-.059.008-.117.025-.174a.165.165 0 0 0 .004-.031v-.638a.165.165 0 0 0-.004-.031.576.576 0 0 1-.025-.176v-2.55c0-.061.008-.119.025-.176.002-.01.004-.02.004-.029v-.639c0-.01-.002-.02-.004-.031a.564.564 0 0 1-.025-.174v-2.55c0-.061.008-.119.025-.176a.165.165 0 0 0 .004-.031v-.638a.165.165 0 0 0-.004-.031.566.566 0 0 1-.025-.173v-2.553c0-.059.008-.118.025-.175.002-.01.004-.02.004-.029v-.64c0-.01-.002-.02-.004-.031a.572.572 0 0 1-.025-.174v-2.55c0-.061.008-.119.025-.176.002-.012.004-.021.004-.031v-.637a.165.165 0 0 0-.004-.031.572.572 0 0 1-.025-.174v-2.552c0-.059.008-.117.025-.176a.155.155 0 0 0 .004-.031v-.636c0-.012-.002-.021-.004-.031a.583.583 0 0 1-.025-.175v-2.553c0-.059.008-.117.025-.173a.165.165 0 0 0 .004-.031v-.638a.165.165 0 0 0-.004-.031.572.572 0 0 1-.025-.174v-2.553c0-.059.008-.117.025-.174a.165.165 0 0 0 .004-.031v-.637a.155.155 0 0 0-.004-.031.576.576 0 0 1-.025-.176v-2.551a.6.6 0 0 1 .025-.174.165.165 0 0 0 .004-.031v-.638a.136.136 0 0 0-.004-.03.576.576 0 0 1-.025-.176v-2.55c0-.06.008-.118.025-.175a.165.165 0 0 0 .004-.031v-.638a.155.155 0 0 0-.004-.031.568.568 0 0 1-.025-.174v-2.551c0-.059.008-.119.025-.175a.165.165 0 0 0 .004-.031v-.637a.165.165 0 0 0-.004-.031.579.579 0 0 1-.025-.175v-2.551c0-.06.008-.119.025-.175a.165.165 0 0 0 .004-.031v-.138c0-.06-.049-.108-.033-.238l.01-3.635 1.16.005a.108.108 0 0 0 .109-.108v-.806c-.172-.163-.281-.389-.281-.644s.109-.481.281-.644v-3.47z"
     fill="#414242" />
  <path
     inkscape:export-ydpi="1926.51"
     inkscape:export-xdpi="1926.51"
     id="path16"
     d="M35.916 15.741a.709.709 0 1 1 .709.709.708.708 0 0 1-.709-.709M42.254 15.741a.708.708 0 1 1 1.415 0 .708.708 0 0 1-1.415 0"
     fill="#DCBE7D" />
  <g
     inkscape:export-ydpi="1926.51"
     inkscape:export-xdpi="1926.51"
     id="g20"
     stroke-miterlimit="10"
     stroke-linejoin="round"
     stroke-linecap="round"
     stroke-width="1.701"
     stroke="#CCCBCB"
     fill="none">
    <path
       id="path18"
       d="M47.666 68.891H3.339M3.33 19.223h27.506M38.037 19.223h9.629M3.339 30.744v38.147M47.666 19.223v49.668" />
  </g>
  <g
     inkscape:export-ydpi="1926.51"
     inkscape:export-xdpi="1926.51"
     id="g32"
     fill="#DCBF7E">
    <path
       id="path22"
       d="M0 66.779v.383a.893.893 0 1 1 0 1.786v.382h1.275v-2.551H0zM0 63.18v.383a.893.893 0 1 1 0 1.786v.382h1.275V63.18H0zM0 59.58v.383a.893.893 0 1 1 0 1.786v.382h1.275V59.58H0zM0 55.98v.383a.893.893 0 1 1 0 1.786v.382h1.275V55.98H0zM0 52.381v.383a.893.893 0 1 1 0 1.786v.382h1.275v-2.551H0zM0 48.781v.383a.893.893 0 1 1 0 1.786v.382h1.275v-2.551H0zM0 45.182v.383a.893.893 0 1 1 0 1.786v.382h1.275v-2.551H0zM0 41.582v.383a.893.893 0 1 1 0 1.786v.382h1.275v-2.551H0zM0 37.982v.383a.893.893 0 1 1 0 1.786v.382h1.275v-2.551H0zM0 34.383v.383a.893.893 0 1 1 0 1.786v.382h1.275v-2.551H0zM0 30.783v.383a.893.893 0 1 1 0 1.786v.382h1.275v-2.551H0zM0 27.184v.383a.893.893 0 1 1 0 1.786v.382h1.275v-2.551H0zM0 23.584v.383a.893.893 0 1 1 0 1.786v.382h1.275v-2.551H0zM0 19.984v.383a.893.893 0 1 1 0 1.786v.382h1.275v-2.551H0z" />
    <g
       id="g26">
      <path
         id="path24"
         d="M40.436 72.282h.383a.893.893 0 1 1 1.786 0h.383v-1.275h-2.551v1.275zM36.836 72.282h.383a.893.893 0 1 1 1.786 0h.383v-1.275h-2.551v1.275zM33.236 72.282h.383a.893.893 0 1 1 1.786 0h.383v-1.275h-2.551v1.275zM29.637 72.282h.383a.893.893 0 1 1 1.786 0h.383v-1.275h-2.551v1.275zM26.037 72.282h.383a.893.893 0 1 1 1.786 0h.383v-1.275h-2.551v1.275zM22.437 72.282h.383c0-.494.399-.893.893-.893s.894.398.894.893h.382v-1.275h-2.551v1.275zM18.837 72.282h.383c0-.494.399-.893.893-.893s.894.398.894.893h.382v-1.275h-2.551v1.275zM15.237 72.282h.383c0-.494.399-.893.893-.893s.894.398.894.893h.382v-1.275h-2.551v1.275zM11.638 72.282h.383c0-.494.399-.893.893-.893s.894.398.894.893h.382v-1.275h-2.551v1.275zM8.038 72.282h.383c0-.494.399-.893.893-.893s.894.398.894.893h.382v-1.275H8.038v1.275z" />
    </g>
    <g
       id="g30">
      <path
         id="path28"
         d="M51.023 22.535v-.383a.893.893 0 0 1 0-1.787v-.382h-1.275v2.551h1.275zM51.023 26.135v-.383a.893.893 0 0 1 0-1.787v-.382h-1.275v2.551h1.275zM51.023 29.734v-.383a.893.893 0 0 1 0-1.787v-.382h-1.275v2.551h1.275zM51.023 33.334v-.383a.893.893 0 0 1 0-1.787v-.382h-1.275v2.551h1.275zM51.023 36.934v-.383a.893.893 0 0 1 0-1.787v-.382h-1.275v2.551h1.275zM51.023 40.533v-.383a.893.893 0 0 1 0-1.787v-.382h-1.275v2.551h1.275zM51.023 44.133v-.383a.893.893 0 0 1 0-1.787v-.382h-1.275v2.551h1.275zM51.023 47.732v-.382a.893.893 0 0 1 0-1.787v-.382h-1.275v2.551h1.275zM51.023 51.332v-.383a.893.893 0 0 1 0-1.787v-.382h-1.275v2.551h1.275zM51.023 54.932v-.383a.893.893 0 0 1 0-1.787v-.382h-1.275v2.551h1.275zM51.023 58.531v-.383a.893.893 0 0 1 0-1.787v-.381h-1.275v2.551h1.275zM51.023 62.131v-.383a.893.893 0 0 1 0-1.787v-.381h-1.275v2.551h1.275zM51.023 65.73v-.383a.893.893 0 0 1 0-1.787v-.38h-1.275v2.551h1.275zM51.023 69.33v-.383a.893.893 0 0 1 0-1.787v-.382h-1.275v2.551h1.275z" />
    </g>
  </g>
  <path
     inkscape:export-ydpi="1926.51"
     inkscape:export-xdpi="1926.51"
     id="path34"
     d="M48.012 68.739a.283.283 0 0 1-.283.283H3.295a.284.284 0 0 1-.284-.283V19.267c0-.157.127-.284.284-.284h44.433c.156 0 .283.127.283.284v49.472z"
     fill="#989898" />
  <circle
     inkscape:export-ydpi="1926.51"
     inkscape:export-xdpi="1926.51"
     id="circle36"
     r="1.417"
     cy="63.779"
     cx="8.505" />
  <g
     inkscape:export-ydpi="1926.51"
     inkscape:export-xdpi="1926.51"
     id="g50"
     fill="#E5E5E4">
    <path
       id="path40"
       d="M37.926 36.329c.066-.015.137-.011.207-.015.156-.012.314-.015.473-.002a5.68 5.68 0 0 1 3.123 1.074 5.72 5.72 0 0 1 1.984 2.579c.311.801.436 1.674.365 2.53-.068.037-.145.054-.217.08-.061.02-.119.049-.182.056a9.504 9.504 0 0 0-5.678-5.832c-.066-.025-.137-.044-.203-.074-.014-.021.006-.044.01-.064.042-.109.075-.223.118-.332" />
    <path
       id="path42"
       d="M35.662 37.006c.039-.019.076-.05.121-.043a8.737 8.737 0 0 1 3.898 1.473 8.872 8.872 0 0 1 2.25 2.236 8.824 8.824 0 0 1 1.494 3.84c.004.067.031.139.004.202a5.658 5.658 0 0 1-.523.813c-.082.104-.162.211-.254.305-.055.012-.111.004-.168.004-.266-.004-.533-.004-.799-.014a7.03 7.03 0 0 0-1.566-4.522 6.946 6.946 0 0 0-5.504-2.569c-.004-.317-.012-.636-.016-.952-.002-.021.016-.032.027-.043.319-.28.667-.526 1.036-.73" />
    <path
       id="path44"
       d="M33.592 37.271c.012-.012.027-.02.041-.029.123.122.244.243.363.366-.047.061-.105.112-.156.172a6.257 6.257 0 0 0-1.663 4.147c-.012.118.006.233.004.351a6.255 6.255 0 0 0 1.139 3.358 6.208 6.208 0 0 0 2.453 2.05 6.24 6.24 0 0 0 2.559.584 6.233 6.233 0 0 0 4.283-1.655c.061-.06.119-.12.184-.172.123.122.248.243.367.371a6.721 6.721 0 0 1-5.293 1.964 6.714 6.714 0 0 1-2.58-.739 6.741 6.741 0 0 1-3.615-5.391 6.79 6.79 0 0 1 1.914-5.377" />
    <path
       id="path46"
       d="M34.439 39.463c.297-.061.602-.046.9-.017a6.262 6.262 0 0 1 5.279 4.108c.34.937.457 1.952.33 2.938a6.395 6.395 0 0 1-.113.65c-.01.029-.014.069-.047.079a5.586 5.586 0 0 1-.988.352c-.047.01-.098.034-.145.009-.252-.101-.51-.188-.758-.292.145-.397.24-.813.271-1.236a4.47 4.47 0 0 0-2.273-4.251 4.414 4.414 0 0 0-2.059-.56.35.35 0 0 0-.265.55c.062.092.17.146.279.147a3.77 3.77 0 0 1 3.548 2.958c.215.96.031 1.998-.496 2.826a5.463 5.463 0 0 1-1.09-.2c-.072-.014-.119-.074-.172-.118l-.436-.384c-.023-.015-.016-.042.004-.056.309-.362.477-.841.457-1.317a1.948 1.948 0 0 0-.703-1.445 1.95 1.95 0 0 0-1.225-.445 2.142 2.142 0 0 1-1.277-.507 2.175 2.175 0 0 1-.762-1.513 5.72 5.72 0 0 1 .109-.843 2.144 2.144 0 0 1 1.632-1.433" />
    <path
       id="path48"
       d="M34.684 44.589a1.004 1.004 0 0 1 1.121.642c.059.154.066.324.049.488a1.006 1.006 0 0 1-.976.855.98.98 0 0 1-.719-.297 1.013 1.013 0 0 1-.275-.526c-.049-.27.02-.558.186-.776a.977.977 0 0 1 .614-.386" />
  </g>
  <g
     inkscape:export-ydpi="1926.51"
     inkscape:export-xdpi="1926.51"
     id="g56"
     fill="#E5E5E4">
    <path
       id="path52"
       d="M7.38 59.658h.361v-1.492h.925v-.488h-.925v-.918H8.81v-.487H7.38zM10.387 58.449c-.035.268-.101.47-.197.603-.092.128-.2.19-.331.19a.413.413 0 0 1-.299-.14c-.096-.096-.168-.245-.214-.443a3.188 3.188 0 0 1-.072-.721c0-.213.021-.422.061-.621.04-.195.108-.353.204-.466a.428.428 0 0 1 .342-.164c.117 0 .211.048.289.146.082.103.145.271.188.5l.011.059.351-.136-.007-.041c-.054-.31-.152-.556-.291-.729a.668.668 0 0 0-.537-.269.748.748 0 0 0-.512.21c-.151.139-.269.342-.349.604a3.08 3.08 0 0 0-.12.909c0 .316.035.617.105.894.072.28.178.499.316.648.141.153.327.23.555.23.221 0 .41-.102.562-.301.146-.193.249-.476.304-.839l.006-.039-.357-.149-.008.065zM12.307 58.449c-.035.268-.101.47-.197.603-.092.128-.2.19-.331.19a.413.413 0 0 1-.299-.14c-.096-.096-.168-.245-.214-.443a3.188 3.188 0 0 1-.072-.721c0-.213.021-.422.061-.621.04-.195.108-.353.204-.466a.428.428 0 0 1 .342-.164c.117 0 .211.048.289.146.082.103.145.271.188.5l.011.059.351-.136-.007-.041c-.054-.31-.152-.556-.291-.729a.668.668 0 0 0-.537-.269.748.748 0 0 0-.512.21c-.151.139-.269.342-.349.604a3.08 3.08 0 0 0-.12.909c0 .316.035.617.105.894.072.28.178.499.316.648.141.153.327.23.555.23.221 0 .41-.102.562-.301.146-.193.249-.476.304-.839l.006-.039-.357-.149-.008.065zM13.561 56.273h.36v3.385h-.36zM15.623 56.575a.688.688 0 0 0-.312-.252 1.075 1.075 0 0 0-.369-.05h-.729v3.385h.761a.892.892 0 0 0 .335-.061.675.675 0 0 0 .254-.177c.068-.075.131-.181.188-.312.057-.133.103-.292.138-.489.035-.196.053-.423.053-.673 0-.295-.026-.561-.078-.79a1.63 1.63 0 0 0-.241-.581zm-1.05.185h.365c.141 0 .249.021.31.059.088.059.165.175.228.347.065.179.099.439.099.775 0 .244-.017.454-.051.623a1.27 1.27 0 0 1-.139.4.402.402 0 0 1-.158.151.58.58 0 0 1-.282.055h-.371v-2.41zM16.169 57.178h.375v.559h-.375zM16.169 59.1h.375v.559h-.375zM18.842 56.273l-.74 3.21v-.313h-.942c.021-.05.045-.098.072-.145.039-.067.126-.197.277-.407.171-.242.297-.438.376-.584a1.634 1.634 0 0 0 .215-.812c0-.269-.058-.496-.173-.677a.556.556 0 0 0-.492-.285.567.567 0 0 0-.489.264c-.116.17-.183.416-.201.732l-.002.045.351.061v-.06c.001-.195.034-.351.099-.459.06-.101.138-.149.237-.149.093 0 .167.046.226.141a.707.707 0 0 1 .095.378c0 .145-.037.302-.109.466a4.137 4.137 0 0 1-.429.687 3.504 3.504 0 0 0-.32.505 1.88 1.88 0 0 0-.164.446 1.179 1.179 0 0 0-.029.294l.001.049h1.742l.216-.996h.745l.221.958.009.038h.4l-.832-3.385h-.36zm-.086 1.936l.203-.902c.024-.11.046-.222.064-.335.024.116.052.246.084.388l.192.85h-.543zM21.466 58.449c-.035.268-.101.47-.197.603-.092.128-.2.19-.331.19a.413.413 0 0 1-.299-.14c-.096-.096-.168-.245-.214-.443a3.188 3.188 0 0 1-.072-.721c0-.213.021-.422.061-.621.04-.195.108-.353.204-.466a.428.428 0 0 1 .342-.164c.117 0 .211.048.289.146.082.103.145.271.188.5l.011.059.351-.136-.007-.041c-.054-.31-.152-.556-.291-.729a.668.668 0 0 0-.537-.269.748.748 0 0 0-.512.21c-.151.139-.269.342-.349.604a3.08 3.08 0 0 0-.12.909c0 .316.035.617.105.894.072.28.178.499.316.648.141.153.327.23.555.23.221 0 .41-.102.562-.301.146-.193.249-.476.304-.839l.006-.039-.357-.149-.008.065zM21.898 56.803h.934a5.82 5.82 0 0 0-.313.794 7.323 7.323 0 0 0-.252 1.066c-.06.375-.089.685-.092.945v.05h.347l.002-.048c.014-.324.044-.627.092-.897a7.81 7.81 0 0 1 .284-1.132c.122-.362.246-.658.37-.878l.006-.012v-.377H21.9v.489zM24.906 56.731l.005-.458h-1.512v.486h1.064c-.055.1-.11.206-.164.319l-1.01 2.104-.005.476h1.658v-.488h-1.226l1.19-2.439z" />
    <path
       id="path54"
       d="M24.931 58.166h.843v.506h-.843zM26.27 58.152h1.091v-.486H26.27v-.906h1.166v-.487H25.91v3.385h1.57v-.488h-1.21zM28.896 57.838c-.08-.062-.223-.131-.449-.216-.25-.095-.338-.169-.369-.216a.462.462 0 0 1-.068-.263c0-.126.033-.233.1-.319.062-.083.164-.125.305-.125.137 0 .234.046.303.14.072.098.113.246.127.442l.004.054.348-.044-.002-.045a1.517 1.517 0 0 0-.1-.535c-.064-.161-.156-.284-.275-.368s-.26-.126-.416-.126a.67.67 0 0 0-.389.12.722.722 0 0 0-.266.351 1.307 1.307 0 0 0-.088.483c0 .158.023.298.07.428a.827.827 0 0 0 .225.324c.078.069.207.14.395.214.188.077.297.127.344.159a.388.388 0 0 1 .158.172.565.565 0 0 1 .051.248.642.642 0 0 1-.053.262.4.4 0 0 1-.386.247.446.446 0 0 1-.273-.089.525.525 0 0 1-.182-.233 1.32 1.32 0 0 1-.078-.39l-.004-.053-.344.049.002.044c.004.226.041.431.111.609a.893.893 0 0 0 .301.413.805.805 0 0 0 .479.138c.15 0 .289-.047.41-.139a.865.865 0 0 0 .275-.381c.061-.159.092-.332.092-.513 0-.184-.027-.344-.084-.487a.872.872 0 0 0-.274-.355zM30.814 56.474a.526.526 0 0 0-.266-.167 1.134 1.134 0 0 0-.314-.033h-.793v3.385h.359v-1.336h.457c.297 0 .506-.106.621-.316.111-.2.166-.446.166-.733 0-.167-.02-.322-.062-.461a.86.86 0 0 0-.168-.339zm-.236 1.225c-.061.091-.164.135-.316.135h-.461V56.76h.455c.139 0 .197.014.223.025.057.025.104.082.139.167a.856.856 0 0 1 .059.334c-.001.179-.034.318-.099.413zM32.994 58.425c-.016.104-.031.203-.043.297-.029-.241-.066-.49-.109-.745l-.283-1.662-.008-.041h-.398l-.383 2.26c-.004.029-.016.103-.033.228a15.637 15.637 0 0 0-.039-.292l-.307-2.195h-.369l.531 3.343.008.042h.352l.424-2.545.012-.063c.002.021.006.041.01.062l.416 2.504.006.042h.338l.547-3.327.01-.058h-.365l-.317 2.15zM35.012 58.248a.692.692 0 0 0-.098-.113.661.661 0 0 0 .363-.303c.094-.167.141-.373.141-.612 0-.188-.027-.36-.084-.514-.059-.159-.139-.272-.24-.337-.098-.063-.242-.096-.428-.096h-.924v3.385h.361v-1.459h.252c.025 0 .098 0 .129.013a.281.281 0 0 1 .1.075.784.784 0 0 1 .123.206c.051.104.113.256.188.449l.262.684.012.032h.436l-.369-.962a2.593 2.593 0 0 0-.224-.448zm.039-1.028c0 .099-.018.19-.051.275a.323.323 0 0 1-.131.172.49.49 0 0 1-.254.056h-.512v-.988h.574c.129 0 .221.042.279.128.064.093.095.21.095.357zM37.102 56.446a.736.736 0 0 0-.527-.231c-.297 0-.541.164-.725.488-.18.314-.27.754-.27 1.304 0 .293.039.573.115.834.076.265.191.478.344.635a.731.731 0 0 0 .533.237.751.751 0 0 0 .512-.214c.154-.143.275-.351.357-.62.082-.268.123-.573.123-.909a3.18 3.18 0 0 0-.117-.897 1.438 1.438 0 0 0-.345-.627zm.093 1.522c0 .411-.061.732-.184.954-.119.216-.264.32-.441.32-.174 0-.318-.104-.438-.316-.123-.22-.186-.526-.186-.911 0-.482.066-.829.193-1.032.123-.198.266-.295.434-.295.117 0 .221.05.316.15.098.103.174.251.225.441.056.196.081.427.081.689zM39.174 56.446a.73.73 0 0 0-.527-.231c-.295 0-.539.164-.725.488-.178.314-.27.754-.27 1.304 0 .293.039.573.115.834.076.265.193.478.344.635a.738.738 0 0 0 .533.237.752.752 0 0 0 .514-.214c.154-.143.273-.351.357-.62.08-.268.123-.573.123-.909a3.18 3.18 0 0 0-.117-.897 1.46 1.46 0 0 0-.347-.627zm.096 1.522c0 .411-.062.732-.186.954-.117.216-.262.32-.439.32-.176 0-.318-.104-.438-.316-.123-.22-.186-.526-.186-.911 0-.482.064-.829.191-1.032.125-.198.268-.295.436-.295a.42.42 0 0 1 .314.15c.1.103.174.251.227.441.053.196.081.427.081.689zM40.857 58.599l-.057.272c-.014-.068-.027-.146-.045-.231l-.467-2.326-.008-.04h-.484v3.385h.352v-2.351l.471 2.311.008.04h.318l.482-2.314v2.314h.35v-3.385h-.439l-.481 2.325zM42.996 57.817a.717.717 0 0 0 .16-.249 1.256 1.256 0 0 0-.004-.845.77.77 0 0 0-.221-.336.497.497 0 0 0-.33-.127c-.174 0-.318.082-.432.243-.109.155-.182.375-.211.652l-.006.042.342.099.006-.06c.016-.188.055-.329.113-.421.053-.085.117-.126.193-.126s.139.04.189.123a.643.643 0 0 1 .082.341c0 .174-.037.302-.109.382a.322.322 0 0 1-.242.117c-.008 0-.018 0-.027-.003l-.057-.014-.037.495.076-.033a.409.409 0 0 1 .15-.041c.094 0 .17.052.234.158.066.11.102.256.102.431a.9.9 0 0 1-.111.465c-.07.116-.15.173-.246.173-.078 0-.145-.043-.201-.131-.062-.092-.107-.251-.135-.472l-.006-.055-.338.076.002.042c.018.281.086.515.205.692.123.187.281.28.473.28.209 0 .383-.109.518-.324.131-.206.195-.46.195-.755 0-.222-.033-.401-.102-.552a.556.556 0 0 0-.225-.267zM43.824 59.17c.021-.05.045-.098.072-.145.039-.067.127-.197.277-.407.17-.242.297-.438.375-.584a1.633 1.633 0 0 0 .215-.812c0-.269-.057-.496-.172-.677a.558.558 0 0 0-.492-.285.566.566 0 0 0-.488.264c-.117.17-.184.416-.201.732l-.002.045.35.061v-.06c.002-.195.035-.351.1-.459.061-.101.139-.149.236-.149.094 0 .168.046.227.141a.716.716 0 0 1 .096.378c0 .145-.037.302-.109.466-.074.167-.219.398-.43.687a3.594 3.594 0 0 0-.32.505 1.872 1.872 0 0 0-.162.446 1.134 1.134 0 0 0-.029.294v.049h1.402v-.49h-.945z" />
  </g>
  <g
     inkscape:export-ydpi="1926.51"
     inkscape:export-xdpi="1926.51"
     id="g60"
     fill="#E5E5E4">
    <path
       id="path58"
       d="M26.257 52.988c.053-.068.17-.198.37-.408.231-.246.4-.442.501-.583a1.64 1.64 0 0 0 .221-.416c.045-.131.066-.267.066-.402 0-.271-.076-.501-.23-.683-.156-.186-.37-.279-.638-.279-.264 0-.478.087-.634.258-.155.17-.246.418-.269.737l-.003.048.435.056v-.057c.001-.195.044-.344.131-.453a.401.401 0 0 1 .334-.155c.133 0 .236.048.319.146a.554.554 0 0 1 .126.372.92.92 0 0 1-.145.461c-.1.168-.291.398-.571.686-.187.19-.331.36-.428.505-.1.146-.173.297-.219.449a.94.94 0 0 0-.04.297l.001.049h1.835v-.488h-1.254c.028-.049.059-.095.092-.14zM28.678 50.248a1.475 1.475 0 0 1-.277.425 1.957 1.957 0 0 1-.461.375l-.025.015v.498l.07-.034a2.34 2.34 0 0 0 .577-.404v2.493h.422v-3.398h-.291l-.015.03zM30.447 50.248a1.475 1.475 0 0 1-.277.425 1.957 1.957 0 0 1-.461.375l-.025.015v.498l.072-.034c.102-.047.215-.117.348-.214a2.34 2.34 0 0 0 .227-.19v2.493h.422v-3.398h-.291l-.015.03zM31.443 52.123h1.09v.506h-1.09zM33.713 50.248a1.564 1.564 0 0 1-.277.425 1.968 1.968 0 0 1-.463.375l-.023.015v.498l.07-.034c.102-.047.215-.117.35-.214.088-.065.162-.128.225-.19v2.493h.424v-3.398h-.293l-.013.03zM35.738 51.383a.686.686 0 0 0-.379.117.81.81 0 0 0-.205.19c.012-.236.039-.426.084-.564a.89.89 0 0 1 .229-.384.333.333 0 0 1 .236-.096c.111 0 .203.051.281.153a.793.793 0 0 1 .113.325l.008.046.418-.043-.006-.05c-.027-.266-.111-.477-.25-.629a.708.708 0 0 0-.545-.232c-.293 0-.531.134-.703.397-.195.3-.289.763-.289 1.414 0 .574.088.995.262 1.251.18.26.414.391.699.391.17 0 .322-.051.453-.15a.973.973 0 0 0 .311-.428c.072-.184.109-.383.109-.593 0-.324-.08-.593-.236-.798-.16-.21-.359-.317-.59-.317zm.397 1.139c0 .225-.047.403-.137.531-.09.125-.191.187-.311.187a.376.376 0 0 1-.236-.089.597.597 0 0 1-.184-.27 1.08 1.08 0 0 1-.066-.381c0-.2.047-.363.141-.485a.407.407 0 0 1 .332-.176.39.39 0 0 1 .326.175c.09.123.135.294.135.508zM37.797 50.248a1.475 1.475 0 0 1-.277.425 1.957 1.957 0 0 1-.461.375l-.025.015v.498l.07-.034a2.34 2.34 0 0 0 .577-.404v2.493h.422v-3.398h-.291l-.015.03zM40.414 50.655a.844.844 0 0 0-.281-.325.709.709 0 0 0-.398-.113.697.697 0 0 0-.512.206c-.131.134-.23.326-.297.571-.064.239-.098.56-.098.95 0 .624.09 1.082.268 1.363.154.24.369.362.639.362.205 0 .379-.07.514-.208.131-.135.23-.326.297-.571.064-.239.098-.558.098-.946a4.11 4.11 0 0 0-.061-.787 1.996 1.996 0 0 0-.169-.502zm-.68 2.585c-.129 0-.238-.08-.33-.244-.096-.17-.145-.523-.145-1.052 0-.527.053-.893.16-1.085.08-.141.182-.209.311-.209.133 0 .242.079.334.24.098.169.146.523.146 1.054 0 .526-.049.881-.146 1.052-.091.164-.199.244-.33.244zM42.457 50.655a.86.86 0 0 0-.281-.325.709.709 0 0 0-.398-.113.697.697 0 0 0-.512.206c-.131.134-.23.326-.297.571-.066.239-.098.56-.098.95 0 .624.09 1.082.268 1.363.152.24.369.362.639.362.205 0 .379-.07.514-.208.131-.135.23-.326.297-.571.064-.239.096-.558.096-.946 0-.326-.02-.591-.061-.787a2.08 2.08 0 0 0-.167-.502zm-.68 2.585c-.131 0-.238-.08-.33-.244-.096-.17-.146-.523-.146-1.052 0-.527.055-.893.162-1.085.078-.141.182-.209.311-.209.133 0 .242.079.334.24.096.169.145.523.145 1.054 0 .526-.049.881-.145 1.052-.092.164-.202.244-.331.244zM42.934 50.271v.488h1.242a5.76 5.76 0 0 0-.752 1.857 5.1 5.1 0 0 0-.123.947v.051h.43l.002-.047c.018-.325.059-.626.123-.896a6.27 6.27 0 0 1 .379-1.129 4.6 4.6 0 0 1 .49-.877l.01-.014v-.381h-1.801z" />
  </g>
  <path
     inkscape:export-ydpi="1926.51"
     inkscape:export-xdpi="1926.51"
     id="path62"
     d="M18.656 49.679h4.861v3.729h-4.861z"
     stroke-miterlimit="10"
     stroke-width=".408"
     stroke="#E5E5E4"
     fill="none" />
  <path
     inkscape:export-ydpi="1926.51"
     inkscape:export-xdpi="1926.51"
     id="path64"
     d="M20.044 52.818v-2.556h1.195c.3 0 .519.023.655.069a.639.639 0 0 1 .327.244.688.688 0 0 1 .123.403c0 .191-.062.35-.186.475s-.31.204-.556.236c.123.065.224.137.304.215.08.077.188.216.323.414l.343.499h-.679l-.411-.556c-.146-.199-.245-.324-.299-.376s-.111-.087-.171-.106-.155-.028-.286-.028h-.115v1.066h-.567zm.567-1.474h.42c.272 0 .442-.011.51-.031.068-.021.121-.058.159-.108s.058-.115.058-.191a.29.29 0 0 0-.076-.209.361.361 0 0 0-.214-.1 5.086 5.086 0 0 0-.414-.009h-.443v.648z"
     fill="#E5E5E4" />
  <g
     inkscape:export-ydpi="1926.51"
     inkscape:export-xdpi="1926.51"
     id="g70"
     fill="#E5E5E4">
    <path
       id="path66"
       d="M12.732 54.098v-1.204h1.984v-.752H9.821v.752h1.993v1.204zM9.821 50.938h4.895v.751H9.821z"
       clip-rule="evenodd"
       fill-rule="evenodd" />
    <path
       id="path68"
       d="M12.247 54.535c-2.195 0-3.981-1.757-3.981-3.916 0-.17.03-.332.051-.497l3.645-.779v1.28l4.72-1.076a4.564 4.564 0 0 0-4.435-3.443c-2.526 0-4.581 2.025-4.581 4.516s2.055 4.516 4.581 4.516c2 0 3.687-1.279 4.309-3.045h-.626a3.984 3.984 0 0 1-3.683 2.444zm0-7.832c1.636 0 3.035.981 3.644 2.373l-3.306.778v-1.232l-.016.003v-.003l-4.107.846a3.964 3.964 0 0 1 3.785-2.765z" />
  </g>
  <g
     inkscape:export-ydpi="1926.51"
     inkscape:export-xdpi="1926.51"
     id="g74"
     fill="#E5E5E4">
    <path
       id="path72"
       d="M17.616 39.129c-.089.181-.245.371-.463.566-.22.196-.482.367-.778.506l-.058.027v.736l.135-.051c.175-.064.374-.162.592-.289.138-.082.261-.164.367-.246v3.367h.747v-4.672h-.514l-.028.056zM21.737 41.209a1.04 1.04 0 0 0 .466-.877 1.225 1.225 0 0 0-.686-1.09 1.564 1.564 0 0 0-.717-.168c-.375 0-.694.109-.949.326-.253.216-.418.521-.489.91l-.018.1.747.132.015-.101c.037-.244.119-.428.244-.545a.645.645 0 0 1 .463-.173c.189 0 .338.056.456.169a.567.567 0 0 1 .173.427c0 .219-.077.376-.234.478a1.016 1.016 0 0 1-.652.161l-.098-.011-.091.725.143-.037c.146-.039.267-.059.36-.059a.738.738 0 0 1 .772.767.804.804 0 0 1-.237.592.781.781 0 0 1-.581.237.689.689 0 0 1-.484-.179c-.134-.121-.231-.328-.29-.616l-.019-.091-.735.098.009.097c.039.395.199.721.475.969.277.25.627.376 1.041.376.458 0 .843-.146 1.144-.434.303-.288.457-.646.457-1.062 0-.309-.081-.57-.239-.779a1.069 1.069 0 0 0-.446-.342zM24.425 39.129c-.089.181-.245.371-.463.566-.22.196-.482.367-.778.506l-.058.027v.736l.135-.051c.175-.064.374-.162.592-.289.138-.082.261-.164.367-.246v3.367h.747v-4.672h-.514l-.028.056zM28.992 41.551a1.08 1.08 0 0 0-.445-.342 1.047 1.047 0 0 0 .465-.877c0-.221-.059-.432-.176-.627a1.234 1.234 0 0 0-.51-.463 1.567 1.567 0 0 0-.717-.168c-.375 0-.694.109-.95.326-.254.216-.418.521-.488.91l-.019.1.747.132.015-.101c.037-.244.119-.428.244-.545a.644.644 0 0 1 .463-.173c.189 0 .338.056.457.169a.57.57 0 0 1 .172.427c0 .219-.076.376-.234.478a1.009 1.009 0 0 1-.65.161l-.098-.011-.092.725.143-.037c.146-.039.268-.059.361-.059.227 0 .408.07.555.216s.217.325.217.551a.807.807 0 0 1-.818.829.692.692 0 0 1-.484-.179c-.133-.121-.231-.328-.29-.616l-.018-.091-.736.098.01.097c.039.395.199.721.475.969.277.25.627.376 1.042.376.457 0 .842-.146 1.145-.434s.455-.646.455-1.062c-.003-.309-.083-.57-.241-.779z" />
  </g>
  <g
     inkscape:export-ydpi="1926.51"
     inkscape:export-xdpi="1926.51"
     id="g78"
     fill="#E5E5E4">
    <path
       id="path76"
       d="M14.547 39.607c.087 0 .171.009.255.021v-.773a2.552 2.552 0 1 0 0 5.077v-.772a1.788 1.788 0 0 1-1.999-1.383h1.488v-.766h-1.488a1.788 1.788 0 0 1 1.744-1.404zM10.465 43.16a1.786 1.786 0 1 1-.255-3.552c.086 0 .171.009.255.021v-.773a2.552 2.552 0 1 0 0 5.077v-.773z" />
  </g>
  <g
     inkscape:export-ydpi="1926.51"
     inkscape:export-xdpi="1926.51"
     id="g82"
     fill="#E5E5E4">
    <path
       id="path80"
       d="M16.158 34.516v-3.65h2.008v.618h-1.461v.809h1.359v.615h-1.359v.994h1.513v.614h-2.06zM18.505 33.328l.533-.07c.032.241.097.419.194.53a.498.498 0 0 0 .397.169c.175 0 .308-.05.398-.149a.523.523 0 0 0 .132-.353.415.415 0 0 0-.056-.221.461.461 0 0 0-.196-.157 4.906 4.906 0 0 0-.438-.159c-.293-.098-.5-.218-.618-.361a1.115 1.115 0 0 1-.249-.734c0-.186.039-.359.116-.522a.825.825 0 0 1 .339-.368c.147-.086.326-.128.533-.128.34 0 .596.102.768.301.172.201.264.471.271.805l-.548.032c-.023-.188-.073-.323-.15-.404-.077-.082-.192-.124-.346-.124a.514.514 0 0 0-.374.132.308.308 0 0 0-.086.228c0 .085.027.161.08.221.07.08.237.159.503.245.267.084.463.171.591.263a.91.91 0 0 1 .3.371c.072.157.106.351.106.581 0 .209-.042.404-.128.588a.883.883 0 0 1-.367.406 1.17 1.17 0 0 1-.588.134c-.343 0-.606-.107-.789-.321-.183-.216-.291-.527-.328-.935zM21.13 34.516v-3.65h.878c.333 0 .549.021.651.056.155.055.284.174.389.357.104.183.158.42.158.711 0 .223-.031.412-.091.565a.984.984 0 0 1-.23.358.708.708 0 0 1-.284.174 2.27 2.27 0 0 1-.566.052h-.357v1.377h-.548zm.547-3.033v1.036h.3c.216 0 .359-.019.433-.059a.402.402 0 0 0 .171-.179.618.618 0 0 0 .062-.283.567.567 0 0 0-.087-.329.366.366 0 0 0-.22-.161 1.858 1.858 0 0 0-.394-.025h-.265zM23.402 33.543v-.699h1.02v.699h-1.02zM25.148 34.516l-.647-3.65h.56l.408 2.509.496-2.509h.65l.475 2.551.416-2.551h.551l-.658 3.65h-.581l-.539-2.728-.539 2.728h-.592zM28.299 34.516v-3.65h1.152c.289 0 .498.034.631.1a.704.704 0 0 1 .314.349c.078.168.117.361.117.576 0 .272-.059.5-.178.68a.804.804 0 0 1-.537.336c.119.094.217.195.293.305.078.112.182.31.312.594l.33.712h-.653l-.395-.793a5.029 5.029 0 0 0-.289-.538.419.419 0 0 0-.164-.151.717.717 0 0 0-.275-.04h-.111v1.522h-.547zm.547-2.107h.404c.264 0 .426-.014.492-.044a.318.318 0 0 0 .152-.155.57.57 0 0 0 .057-.272.54.54 0 0 0-.074-.299.314.314 0 0 0-.205-.144 3.554 3.554 0 0 0-.398-.012h-.428v.926zM30.881 32.714c0-.372.041-.685.125-.936.061-.188.145-.353.252-.502a1.072 1.072 0 0 1 .934-.473c.398 0 .719.167.957.5.24.335.361.799.361 1.393 0 .588-.119 1.05-.357 1.383s-.557.5-.953.5c-.402 0-.723-.167-.961-.498s-.358-.787-.358-1.367zm.564-.026c0 .414.07.728.211.94.143.213.322.318.541.318.217 0 .396-.105.537-.316s.209-.528.209-.952c0-.419-.068-.731-.203-.937-.137-.205-.318-.309-.543-.309s-.408.104-.545.312c-.138.211-.207.524-.207.944zM33.785 32.714c0-.372.043-.685.125-.936a1.81 1.81 0 0 1 .254-.502 1.072 1.072 0 0 1 .934-.473c.398 0 .719.167.957.5.24.335.359.799.359 1.393 0 .588-.119 1.05-.355 1.383-.238.333-.557.5-.955.5-.402 0-.723-.167-.961-.498-.237-.331-.358-.787-.358-1.367zm.567-.026c0 .414.07.728.211.94s.322.318.539.318c.219 0 .398-.105.537-.316.141-.211.209-.528.209-.952 0-.419-.068-.731-.203-.937-.137-.205-.316-.309-.543-.309-.225 0-.406.104-.545.312s-.205.524-.205.944zM36.795 34.516v-3.65h.82l.49 2.49.486-2.49h.82v3.65h-.508v-2.873l-.537 2.873h-.526l-.535-2.873v2.873h-.51zM39.855 33.543v-.699h1.02v.699h-1.02zM41.234 33.547l.502-.081a.777.777 0 0 0 .129.396c.07.09.156.136.256.136.107 0 .197-.054.271-.163a.797.797 0 0 0 .109-.444.724.724 0 0 0-.105-.416c-.07-.104-.156-.155-.258-.155a.713.713 0 0 0-.238.052l.059-.57c.141.006.246-.036.32-.123a.516.516 0 0 0 .111-.347.478.478 0 0 0-.082-.295c-.055-.072-.125-.109-.215-.109s-.164.041-.229.125a.698.698 0 0 0-.113.362l-.479-.109a1.67 1.67 0 0 1 .15-.527.771.771 0 0 1 .281-.312.741.741 0 0 1 .402-.113c.254 0 .461.109.613.329.129.179.191.38.191.607a.91.91 0 0 1-.391.767c.156.044.279.146.373.301s.139.345.139.564c0 .32-.086.594-.26.82-.174.226-.391.339-.648.339a.76.76 0 0 1-.609-.287c-.159-.191-.253-.44-.279-.747zM45.072 33.866v.649h-1.82c.02-.245.078-.479.178-.697.1-.222.293-.513.584-.875.232-.295.379-.494.43-.598a.964.964 0 0 0 .107-.429c0-.157-.031-.276-.092-.36a.306.306 0 0 0-.26-.125.307.307 0 0 0-.258.131c-.064.088-.102.235-.111.438l-.518-.069c.031-.385.129-.662.291-.829a.817.817 0 0 1 .609-.251c.268 0 .479.098.631.291s.229.437.229.725c0 .164-.021.321-.064.469a2.146 2.146 0 0 1-.209.468 3.995 3.995 0 0 1-.34.465 5.953 5.953 0 0 0-.311.404c-.045.065-.08.129-.107.193h1.031z" />
  </g>
  <g
     inkscape:export-ydpi="1926.51"
     inkscape:export-xdpi="1926.51"
     id="g90"
     fill="#E5E5E4">
    <path
       id="path84"
       d="M13.854 29.71h-.688c-.654-1.094-1.661-1.796-2.792-1.796-1.13 0-2.138.702-2.791 1.796h-.687c-.954 0-1.728 1.024-1.728 2.289v1.509c0 1.265.773 2.289 1.728 2.289h.786c.654 1.003 1.618 1.637 2.692 1.637 1.075 0 2.038-.634 2.692-1.637h.787c.953 0 1.728-1.024 1.728-2.289v-1.509c0-1.265-.774-2.289-1.727-2.289zm-5.576 4.498H7.69l-.258-1.876-.252 1.876h-.581l-.552-3.044h.659l.192 1.78.252-1.78h.581l.247 1.78.197-1.788h.648l-.545 3.052zm1.415-.016H9.1V31.99h.594v2.202zm-.291-2.424c-.19 0-.345-.176-.345-.393 0-.218.154-.394.345-.394s.346.176.346.394c0 .217-.155.393-.346.393zm5.804 1.788c0 1.573-1.311 1.787-1.311 1.787l-4.027.005c.779-.906.719-1.855.719-1.855v-1.398c0-1.844 1.403-1.907 1.403-1.907h1.848c1.212 0 1.368 1.796 1.368 1.796v1.572z" />
    <ellipse
       id="ellipse86"
       ry=".393"
       rx=".345"
       cy="31.375"
       cx="14.033" />
    <path
       id="path88"
       d="M13.73 31.99h.594v2.202h-.594zM11.391 31.164h1.973v.716h-1.337v.675h1.205v.707h-1.205v.923h-.636z" />
  </g>
</svg>
