<?xml version="1.0" encoding="UTF-8" standalone="no"?>
<!-- Svg Vector Icons : http://www.onlinewebfonts.com/icon -->

<svg
   xmlns:dc="http://purl.org/dc/elements/1.1/"
   xmlns:cc="http://creativecommons.org/ns#"
   xmlns:rdf="http://www.w3.org/1999/02/22-rdf-syntax-ns#"
   xmlns:svg="http://www.w3.org/2000/svg"
   xmlns="http://www.w3.org/2000/svg"
   xmlns:sodipodi="http://sodipodi.sourceforge.net/DTD/sodipodi-0.dtd"
   xmlns:inkscape="http://www.inkscape.org/namespaces/inkscape"
   version="1.1"
   x="0px"
   y="0px"
   viewBox="0 0 440.90939 514"
   enable-background="new 0 0 1000 1000"
   xml:space="preserve"
   id="svg8"
   sodipodi:docname="pass.svg"
   width="440.90939"
   height="514"
   inkscape:version="0.92.4 (5da689c313, 2019-01-14)"><defs
   id="defs12" /><sodipodi:namedview
   pagecolor="#ffffff"
   bordercolor="#666666"
   borderopacity="1"
   objecttolerance="10"
   gridtolerance="10"
   guidetolerance="10"
   inkscape:pageopacity="0"
   inkscape:pageshadow="2"
   inkscape:window-width="1600"
   inkscape:window-height="877"
   id="namedview10"
   showgrid="false"
   fit-margin-left="1"
   fit-margin-right="1"
   fit-margin-bottom="1"
   fit-margin-top="1"
   inkscape:zoom="0.236"
   inkscape:cx="-267.55932"
   inkscape:cy="491.00004"
   inkscape:window-x="-8"
   inkscape:window-y="-8"
   inkscape:window-maximized="1"
   inkscape:current-layer="svg8" />
<metadata
   id="metadata2"> Svg Vector Icons : http://www.onlinewebfonts.com/icon <rdf:RDF><cc:Work
     rdf:about=""><dc:format>image/svg+xml</dc:format><dc:type
       rdf:resource="http://purl.org/dc/dcmitype/StillImage" /><dc:title></dc:title></cc:Work></rdf:RDF></metadata>
<g
   id="g6"
   transform="matrix(0.52244898,0,0,0.52244898,-40.795918,-4.2244898)"><path
     d="M 848.6,430 H 780 l 0.1,-202.2 C 780.1,107.4 655.2,10 500.9,10 346.5,10 221.3,107.4 221.3,227.8 L 220,430 h -70.1 c -38.7,0 -68.4,31.1 -68.4,61.3 L 80,928.7 c 0,30.2 32.8,61.3 71.4,61.3 h 698.9 c 38.6,0 68.2,-31.2 68.2,-61.3 l 1.6,-437.4 C 920,461.1 887.1,430 848.6,430 Z M 639,430 H 360 V 220.1 C 360,160 423.8,118.9 500.9,118.9 577.8,118.9 640,160 640,220.1 Z"
     id="path4"
     inkscape:connector-curvature="0" /></g>
</svg>