<?xml version="1.0" encoding="UTF-8" standalone="no"?>
<!-- Created with Inkscape (http://www.inkscape.org/) -->

<svg
   xmlns:dc="http://purl.org/dc/elements/1.1/"
   xmlns:cc="http://creativecommons.org/ns#"
   xmlns:rdf="http://www.w3.org/1999/02/22-rdf-syntax-ns#"
   xmlns:svg="http://www.w3.org/2000/svg"
   xmlns="http://www.w3.org/2000/svg"
   xmlns:sodipodi="http://sodipodi.sourceforge.net/DTD/sodipodi-0.dtd"
   xmlns:inkscape="http://www.inkscape.org/namespaces/inkscape"
   width="85.311356mm"
   height="30.003969mm"
   viewBox="0 0 85.311356 30.003969"
   version="1.1"
   id="svg8"
   inkscape:version="0.92.4 (5da689c313, 2019-01-14)"
   sodipodi:docname="title.svg">
  <defs
     id="defs2" />
  <sodipodi:namedview
     id="base"
     pagecolor="#ffffff"
     bordercolor="#666666"
     borderopacity="1.0"
     inkscape:pageopacity="0.0"
     inkscape:pageshadow="2"
     inkscape:zoom="2.5882586"
     inkscape:cx="165.32151"
     inkscape:cy="43.403589"
     inkscape:document-units="mm"
     inkscape:current-layer="layer1"
     showgrid="false"
     inkscape:window-width="1600"
     inkscape:window-height="877"
     inkscape:window-x="-8"
     inkscape:window-y="-8"
     inkscape:window-maximized="1"
     showguides="true"
     inkscape:guide-bbox="true"
     fit-margin-top="1"
     fit-margin-left="1"
     fit-margin-right="1"
     fit-margin-bottom="1" />
  <metadata
     id="metadata5">
    <rdf:RDF>
      <cc:Work
         rdf:about="">
        <dc:format>image/svg+xml</dc:format>
        <dc:type
           rdf:resource="http://purl.org/dc/dcmitype/StillImage" />
        <dc:title></dc:title>
      </cc:Work>
    </rdf:RDF>
  </metadata>
  <g
     inkscape:label="Layer 1"
     inkscape:groupmode="layer"
     id="layer1"
     transform="translate(-41.527176,-120.83062)">
    <g
       id="g889">
      <path
         id="rect850"
         d="m 119.07409,122.88895 c -1.13655,0 -2.25496,0.13979 -3.35484,0.41858 -1.08766,0.27879 -2.05909,0.70258 -2.91455,1.27228 -0.85546,0.56969 -1.54569,1.29693 -2.07119,2.18177 -0.5255,0.87273 -0.78858,1.90341 -0.78858,3.09129 0,0.9697 0.16509,1.81831 0.49506,2.54558 0.34218,0.71515 0.80659,1.35732 1.39319,1.92701 0.58661,0.5697 1.27684,1.09101 2.0712,1.56373 0.79435,0.47273 1.6502,0.93931 2.56676,1.39992 0.86769,0.43636 1.67402,0.8547 2.41949,1.2547 0.7577,0.38788 1.4117,0.79974 1.96164,1.2361 0.54994,0.42424 0.9776,0.89731 1.28313,1.41852 0.31774,0.52121 0.47645,1.13303 0.47645,1.83606 0,1.30909 -0.47027,2.31539 -1.41128,3.01842 -0.92879,0.69091 -2.34013,1.03612 -4.23437,1.03612 -0.54994,0 -1.14908,-0.0542 -1.79678,-0.1633 -0.64771,-0.10909 -1.29533,-0.26081 -1.94304,-0.45475 -0.63549,-0.20606 -1.24636,-0.45479 -1.83296,-0.7457 -0.57438,-0.2909 -1.06967,-0.61821 -1.48518,-0.98185 v 3.6003 c 0.34218,0.2303 0.79434,0.4422 1.3565,0.63614 0.57439,0.18181 1.17939,0.33354 1.81488,0.45475 0.63549,0.13333 1.25861,0.23033 1.86965,0.29094 0.61105,0.0727 1.12445,0.10903 1.53996,0.10903 1.24653,0 2.43205,-0.12734 3.55637,-0.38188 1.12432,-0.24243 2.11439,-0.64235 2.96985,-1.19993 0.86768,-0.55758 1.55204,-1.27884 2.0531,-2.16369 0.51328,-0.89697 0.76998,-1.98782 0.76998,-3.27267 0,-0.9697 -0.18959,-1.83024 -0.56844,-2.58176 -0.36663,-0.75151 -0.86778,-1.43647 -1.50327,-2.05465 -0.63548,-0.61818 -1.37471,-1.18176 -2.21795,-1.69085 -0.84324,-0.50909 -1.73531,-0.99409 -2.67632,-1.4547 -0.91657,-0.44848 -1.72928,-0.86034 -2.4381,-1.2361 -0.69659,-0.37575 -1.28935,-0.76375 -1.77818,-1.16375 -0.48884,-0.4 -0.86164,-0.84272 -1.11828,-1.32757 -0.24442,-0.48484 -0.36638,-1.06036 -0.36638,-1.72702 0,-0.71515 0.16457,-1.32101 0.49454,-1.81798 0.32996,-0.49697 0.75762,-0.90338 1.28312,-1.21853 0.5255,-0.31515 1.12464,-0.53949 1.79679,-0.67283 0.67215,-0.14545 1.34427,-0.21807 2.01642,-0.21807 2.43195,0 4.42381,0.53323 5.97586,1.5999 v -3.43597 c -1.18543,-0.61818 -3.07342,-0.92759 -5.66425,-0.92759 z"
         style="fill:#44d5ad;fill-opacity:1;stroke:none;stroke-width:0.93807244;stroke-miterlimit:4;stroke-dasharray:none;stroke-opacity:1"
         inkscape:connector-curvature="0" />
      <path
         id="rect852"
         d="m 108.58571,122.72211 c -0.53772,0 -0.99626,0.17699 -1.37511,0.53066 -0.37885,0.34227 -0.56844,0.77576 -0.56844,1.30054 0,0.52482 0.18959,0.95832 0.56844,1.30056 0.37885,0.34229 0.83739,0.51313 1.37511,0.51313 0.54994,0 1.01383,-0.17648 1.39268,-0.53015 0.39107,-0.35366 0.58704,-0.78156 0.58704,-1.28354 0,-0.52478 -0.19597,-0.95827 -0.58704,-1.30054 -0.37885,-0.35367 -0.84274,-0.53066 -1.39268,-0.53066 z m -1.53996,8.09431 v 17.52369 h 3.00602 v -17.52369 z"
         style="fill:#44d5ad;fill-opacity:1;stroke:none;stroke-width:0.91007459;stroke-miterlimit:4;stroke-dasharray:none;stroke-opacity:1"
         inkscape:connector-curvature="0" />
      <path
         id="rect854"
         d="m 100.39444,121.83062 c -1.136539,0 -2.254951,0.13979 -3.354829,0.41858 -1.08766,0.27879 -2.059091,0.70258 -2.914552,1.27227 -0.855461,0.5697 -1.546209,1.29693 -2.071709,2.18178 -0.525497,0.87273 -0.788064,1.90341 -0.788064,3.09129 0,0.96969 0.165095,1.8183 0.495059,2.54558 0.342186,0.71515 0.806596,1.35731 1.393198,1.92701 0.586603,0.5697 1.276832,1.091 2.07119,1.56373 0.794359,0.47273 1.649685,0.93931 2.566252,1.39991 0.867683,0.43637 1.674532,0.85471 2.420005,1.25471 0.7577,0.38788 1.41118,0.79973 1.96112,1.2361 0.54994,0.42424 0.97812,0.8973 1.28365,1.41852 0.31774,0.52121 0.47645,1.13303 0.47645,1.83606 0,1.30909 -0.47079,2.31539 -1.4118,3.01842 -0.92879,0.69091 -2.34013,1.03611 -4.234365,1.03611 -0.54994,0 -1.148565,-0.0547 -1.796273,-0.16381 -0.647707,-0.10909 -1.295325,-0.2603 -1.943033,-0.45424 -0.635487,-0.20606 -1.246876,-0.45478 -1.833481,-0.74569 -0.574381,-0.29091 -1.069152,-0.61821 -1.484662,-0.98185 v 3.6003 c 0.342183,0.2303 0.794346,0.44219 1.356506,0.63613 0.574381,0.18182 1.179391,0.33354 1.814875,0.45476 0.635487,0.13333 1.25861,0.23033 1.869654,0.29093 0.611045,0.0727 1.124448,0.10904 1.539957,0.10904 1.246532,0 2.432052,-0.12734 3.556372,-0.38189 1.12432,-0.24242 2.11387,-0.64235 2.96933,-1.19992 0.86768,-0.55758 1.55205,-1.27885 2.0531,-2.1637 0.51328,-0.89697 0.76998,-1.98782 0.76998,-3.27266 0,-0.9697 -0.18907,-1.83024 -0.56792,-2.58176 -0.36663,-0.75151 -0.86778,-1.43647 -1.50327,-2.05465 -0.63549,-0.61819 -1.37523,-1.18177 -2.21847,-1.69086 -0.84324,-0.50909 -1.73531,-0.99408 -2.67632,-1.45469 -0.916568,-0.44848 -1.729284,-0.86034 -2.438094,-1.2361 -0.69659,-0.37576 -1.289352,-0.76375 -1.778186,-1.16375 -0.488836,-0.4 -0.861123,-0.84272 -1.117761,-1.32757 -0.244419,-0.48485 -0.366903,-1.06036 -0.366903,-1.72703 0,-0.71515 0.165095,-1.321 0.495059,-1.81797 0.329965,-0.49697 0.757629,-0.90338 1.283126,-1.21853 0.5255,-0.31515 1.124125,-0.5395 1.796272,-0.67283 0.67215,-0.14545 1.344782,-0.21807 2.016937,-0.21807 2.43195,0 4.4238,0.53323 5.97586,1.5999 v -3.43597 c -1.18543,-0.61818 -3.07343,-0.92759 -5.66426,-0.92759 z"
         style="fill:#44d5ad;fill-opacity:1;stroke:none;stroke-width:0.93807244;stroke-miterlimit:4;stroke-dasharray:none;stroke-opacity:1"
         inkscape:connector-curvature="0" />
      <path
         inkscape:connector-curvature="0"
         id="rect856"
         d="m 84.86419,129.57692 c -2.456399,0 -4.515876,0.91526 -6.177917,2.74557 -1.64982,1.81818 -2.47427,4.17546 -2.47427,7.07243 0,3.06667 0.757341,5.44885 2.272731,7.14582 1.515391,1.68485 3.599365,2.52698 6.251297,2.52698 2.713038,0 4.894485,-0.59393 6.544305,-1.78181 v -2.79983 c -1.772031,1.38182 -3.715406,2.07275 -5.82962,2.07275 -1.882016,0 -3.360465,-0.56358 -4.435904,-1.69086 -1.075438,-1.12727 -1.637837,-2.72749 -1.686718,-4.80022 h 13.253455 v -1.56373 c -3e-6,-2.8 -0.672118,-4.98767 -2.016416,-6.56342 -1.344298,-1.57576 -3.244546,-2.36368 -5.700943,-2.36368 z m -0.05478,2.5094 c 1.466506,0 2.608897,0.47852 3.427695,1.43609 0.831022,0.95758 1.252818,2.29715 1.265039,4.01836 H 79.364783 c 0.232196,-1.62424 0.843071,-2.93943 1.832962,-3.94549 0.989894,-1.00606 2.194044,-1.50896 3.611669,-1.50896 z"
         style="fill:#ffffff;fill-opacity:1;stroke:none;stroke-width:0.93807244;stroke-miterlimit:4;stroke-dasharray:none;stroke-opacity:1" />
      <path
         id="rect858"
         d="m 60.712112,122.55926 v 26.06404 h 3.006018 v -9.972 c 0,-1.66195 0.501155,-3.01969 1.503268,-4.07417 1.002113,-1.06594 2.236626,-1.59939 3.703133,-1.59939 2.90857,0 4.362524,1.83424 4.362524,5.50199 v 10.14357 h 3.006535 v -10.84843 c 0,-4.77955 -2.114339,-7.16959 -6.342766,-7.16959 -2.664153,0 -4.717248,1.11213 -6.159313,3.33571 h -0.07338 v -11.38173 z"
         style="fill:#ffffff;fill-opacity:1;stroke:none;stroke-width:0.93807244;stroke-miterlimit:4;stroke-dasharray:none;stroke-opacity:1"
         inkscape:connector-curvature="0" />
      <path
         id="rect832"
         d="m 42.527176,122.55874 v 2.76366 h 7.571114 v 23.30917 h 3.079398 V 125.3224 h 7.589201 v -2.76366 z"
         style="fill:#ffffff;fill-opacity:1;stroke:none;stroke-width:0.93807244;stroke-miterlimit:4;stroke-dasharray:none;stroke-opacity:1"
         inkscape:connector-curvature="0" />
    </g>
  </g>
</svg>
