<?xml version="1.0" encoding="UTF-8" standalone="no"?>
<!-- Svg Vector Icons : http://www.onlinewebfonts.com/icon -->

<svg
   xmlns:dc="http://purl.org/dc/elements/1.1/"
   xmlns:cc="http://creativecommons.org/ns#"
   xmlns:rdf="http://www.w3.org/1999/02/22-rdf-syntax-ns#"
   xmlns:svg="http://www.w3.org/2000/svg"
   xmlns="http://www.w3.org/2000/svg"
   xmlns:sodipodi="http://sodipodi.sourceforge.net/DTD/sodipodi-0.dtd"
   xmlns:inkscape="http://www.inkscape.org/namespaces/inkscape"
   version="1.1"
   x="0px"
   y="0px"
   viewBox="0 0 471.06323 514"
   enable-background="new 0 0 1000 1000"
   xml:space="preserve"
   id="svg10"
   sodipodi:docname="user.svg"
   width="471.06323"
   height="514"
   inkscape:version="0.92.4 (5da689c313, 2019-01-14)"><defs
   id="defs14" /><sodipodi:namedview
   pagecolor="#ffffff"
   bordercolor="#666666"
   borderopacity="1"
   objecttolerance="10"
   gridtolerance="10"
   guidetolerance="10"
   inkscape:pageopacity="0"
   inkscape:pageshadow="2"
   inkscape:window-width="1600"
   inkscape:window-height="877"
   id="namedview12"
   showgrid="false"
   fit-margin-top="1"
   fit-margin-left="1"
   fit-margin-right="1"
   fit-margin-bottom="1"
   inkscape:zoom="0.236"
   inkscape:cx="449.94463"
   inkscape:cy="491.03061"
   inkscape:window-x="-8"
   inkscape:window-y="-8"
   inkscape:window-maximized="1"
   inkscape:current-layer="g8" />
<metadata
   id="metadata2"> Svg Vector Icons : http://www.onlinewebfonts.com/icon <rdf:RDF><cc:Work
     rdf:about=""><dc:format>image/svg+xml</dc:format><dc:type
       rdf:resource="http://purl.org/dc/dcmitype/StillImage" /><dc:title></dc:title></cc:Work></rdf:RDF></metadata>
<g
   id="g8"
   transform="translate(-50.055373,-477.03061)"><g
     id="g823"
     transform="matrix(0.52243032,0,0,0.52243032,24.382498,472.8086)"><path
       id="path4"
       d="m 498.7,989.9 c -93.6,0 -187.3,0.4 -280.9,-0.2 C 163.6,989.4 116.2,972.4 81.9,927.8 62.3,902.4 52.7,872.8 51.6,841.4 48.7,755.9 56.8,671.5 90,591.7 c 24.6,-59.3 61.7,-107.4 127.8,-125.5 33,-9 62.9,-9.1 92.2,13.7 39,30.3 83.4,51.1 132,61.7 72,15.8 139.3,1.2 203.1,-33.2 18.6,-10.1 36.9,-21.2 53.7,-34.1 20.1,-15.4 41.6,-16.2 64.8,-12.2 61.8,10.6 103.6,47.1 132.5,100.8 31.6,58.7 44,122.6 49.5,188 2.6,31.4 4.8,63.3 2,94.5 -8.3,89.1 -72,144.1 -164.7,144.4 -94.7,0.3 -189.5,0.1 -284.2,0.1 z"
       inkscape:connector-curvature="0" /><path
       id="path6"
       d="M 744.6,254.1 C 745.3,389.7 636.7,499 500.6,499.7 365.2,500.4 255.9,391.6 255.1,255.6 254.5,119.8 362.7,10.8 499.1,10 634.6,9.2 743.9,117.9 744.6,254.1 Z"
       inkscape:connector-curvature="0" /></g></g>
</svg>